<?xml version="1.0" encoding="UTF-8" standalone="no"?>
<!-- Created with Inkscape (http://www.inkscape.org/) -->

<svg
   xmlns:dc="http://purl.org/dc/elements/1.1/"
   xmlns:cc="http://creativecommons.org/ns#"
   xmlns:rdf="http://www.w3.org/1999/02/22-rdf-syntax-ns#"
   xmlns:svg="http://www.w3.org/2000/svg"
   xmlns="http://www.w3.org/2000/svg"
   xmlns:sodipodi="http://sodipodi.sourceforge.net/DTD/sodipodi-0.dtd"
   xmlns:inkscape="http://www.inkscape.org/namespaces/inkscape"
   width="48px"
   height="48px"
   id="svg3085"
   version="1.1"
   inkscape:version="0.47pre4 r22446"
   sodipodi:docname="phoenix icon.svg">
  <defs
     id="defs3087">
    <inkscape:perspective
       sodipodi:type="inkscape:persp3d"
       inkscape:vp_x="0 : 24 : 1"
       inkscape:vp_y="0 : 1000 : 0"
       inkscape:vp_z="48 : 24 : 1"
       inkscape:persp3d-origin="24 : 16 : 1"
       id="perspective3093" />
    <inkscape:perspective
       id="perspective2994"
       inkscape:persp3d-origin="0.5 : 0.33333333 : 1"
       inkscape:vp_z="1 : 0.5 : 1"
       inkscape:vp_y="0 : 1000 : 0"
       inkscape:vp_x="0 : 0.5 : 1"
       sodipodi:type="inkscape:persp3d" />
  </defs>
  <sodipodi:namedview
     id="base"
     pagecolor="#ffffff"
     bordercolor="#666666"
     borderopacity="1.0"
     inkscape:pageopacity="0.0"
     inkscape:pageshadow="2"
     inkscape:zoom="6.404399"
     inkscape:cx="9.0979859"
     inkscape:cy="10.247698"
     inkscape:current-layer="layer1"
     showgrid="true"
     inkscape:grid-bbox="true"
     inkscape:document-units="px"
     inkscape:window-width="1680"
     inkscape:window-height="1024"
     inkscape:window-x="0"
     inkscape:window-y="1"
     inkscape:window-maximized="1" />
  <metadata
     id="metadata3090">
    <rdf:RDF>
      <cc:Work
         rdf:about="">
        <dc:format>image/svg+xml</dc:format>
        <dc:type
           rdf:resource="http://purl.org/dc/dcmitype/StillImage" />
        <dc:title />
      </cc:Work>
    </rdf:RDF>
  </metadata>
  <g
     id="layer1"
     inkscape:label="Layer 1"
     inkscape:groupmode="layer">
    <text
       xml:space="preserve"
       style="font-size:72.49557495px;font-style:normal;font-variant:normal;font-weight:normal;font-stretch:normal;text-align:start;line-height:125%;writing-mode:lr-tb;text-anchor:start;fill:#4e78b2;fill-opacity:1;stroke:none;font-family:Doulos SIL;-inkscape-font-specification:Doulos SIL"
       x="4.7198043"
       y="47.470676"
       id="text3506"
       sodipodi:linespacing="125%"><tspan
         sodipodi:role="line"
         id="tspan3508"
         x="4.7198043"
         y="47.470676">P</tspan></text>
    <g
       id="g4435"
       transform="matrix(0.15037947,0,0,0.15037947,-4.9386622,-25.675968)">
      <g
         transform="translate(423.23383,-209.54838)"
         id="g4312">
        <path
           sodipodi:type="arc"
           style="fill:#df1a1a;fill-opacity:1;stroke:none"
           id="path3510"
           sodipodi:cx="-454.52219"
           sodipodi:cy="311.20438"
           sodipodi:rx="21.838903"
           sodipodi:ry="21.838903"
           d="m -432.68328,311.20438 c 0,12.06129 -9.77761,21.8389 -21.83891,21.8389 -12.06129,0 -21.8389,-9.77761 -21.8389,-21.8389 0,-12.0613 9.77761,-21.83891 21.8389,-21.83891 12.0613,0 21.83891,9.77761 21.83891,21.83891 z"
           transform="translate(121.4789,116.01918)" />
        <path
           style="fill:#1a1a1a;fill-opacity:1;stroke:none"
           d="m -334.05235,407.42543 c -14.38645,-0.0111 -23.99615,18.07118 -15.96875,30.03125 6.82423,12.6574 27.1112,12.60714 34,0 8.27897,-13.13493 -2.46286,-31.21093 -18.03125,-30.03125 z"
           id="path4296" />
        <path
           style="fill:#ff0000;fill-opacity:1;stroke:none"
           d="m -335.28125,409.34375 c -14.7635,1.24878 -21.44746,23.29451 -9.0625,31.875 10.60373,9.1098 30.2852,0.50584 29.21875,-13.9375 -0.0943,-10.37199 -9.63721,-19.33866 -20.15625,-17.9375 z"
           id="path4300" />
        <path
           style="fill:#000000;fill-opacity:1;stroke:none"
           d="m -334.6875,420.09375 c -7.73482,0.8931 -8.25179,15.09689 0.34375,14.96875 6.12238,0.72039 11.5338,-7.19563 6.75,-11.9375 -1.67951,-2.16363 -4.38827,-3.37579 -7.09375,-3.03125 z"
           id="path4284" />
      </g>
      <g
         transform="translate(411.25482,-69.553302)"
         id="g4340">
        <path
           transform="translate(133.45791,119.6112)"
           d="m -432.68328,311.20438 c 0,12.06129 -9.77761,21.8389 -21.83891,21.8389 -12.06129,0 -21.8389,-9.77761 -21.8389,-21.8389 0,-12.0613 9.77761,-21.83891 21.8389,-21.83891 12.0613,0 21.83891,9.77761 21.83891,21.83891 z"
           sodipodi:ry="21.838903"
           sodipodi:rx="21.838903"
           sodipodi:cy="311.20438"
           sodipodi:cx="-454.52219"
           id="path4320"
           style="fill:#ffff00;fill-opacity:1;stroke:none"
           sodipodi:type="arc" />
        <path
           id="path4322"
           d="m -322.07334,411.01745 c -14.38645,-0.0111 -23.99615,18.07118 -15.96875,30.03125 6.82423,12.6574 27.1112,12.60714 34,0 8.27897,-13.13493 -2.46286,-31.21093 -18.03125,-30.03125 z"
           style="fill:#1a1a1a;fill-opacity:1;stroke:none" />
        <path
           id="path4324"
           d="m -323.30224,412.93577 c -14.7635,1.24878 -21.44746,23.29451 -9.0625,31.875 10.60373,9.1098 30.2852,0.50584 29.21875,-13.9375 -0.0943,-10.37199 -9.63721,-19.33866 -20.15625,-17.9375 z"
           style="fill:#ffff00;fill-opacity:1;stroke:none" />
        <path
           id="path4326"
           d="m -322.70849,423.68577 c -7.73482,0.8931 -8.25179,15.09689 0.34375,14.96875 6.12238,0.72039 11.5338,-7.19563 6.75,-11.9375 -1.67951,-2.16363 -4.38827,-3.37579 -7.09375,-3.03125 z"
           style="fill:#000000;fill-opacity:1;stroke:none" />
      </g>
      <g
         transform="translate(449.64164,-112.74871)"
         id="g4365">
        <path
           sodipodi:type="arc"
           style="fill:#0000ff;fill-opacity:1;stroke:none"
           id="path4332"
           sodipodi:cx="-454.52219"
           sodipodi:cy="311.20438"
           sodipodi:rx="21.838903"
           sodipodi:ry="21.838903"
           d="m -432.68328,311.20438 c 0,12.06129 -9.77761,21.8389 -21.83891,21.8389 -12.06129,0 -21.8389,-9.77761 -21.8389,-21.8389 0,-12.0613 9.77761,-21.83891 21.8389,-21.83891 12.0613,0 21.83891,9.77761 21.83891,21.83891 z"
           transform="translate(95.071099,91.013026)" />
        <path
           style="fill:#1a1a1a;fill-opacity:1;stroke:none"
           d="m -360.46015,382.41928 c -14.38645,-0.0111 -23.99615,18.07118 -15.96875,30.03125 6.82423,12.6574 27.1112,12.60714 34,0 8.27897,-13.13493 -2.46286,-31.21093 -18.03125,-30.03125 z"
           id="path4334" />
        <path
           style="fill:#0000ff;fill-opacity:1;stroke:none"
           d="m -361.68905,384.3376 c -14.7635,1.24878 -21.44746,23.29451 -9.0625,31.875 10.60373,9.1098 30.2852,0.50584 29.21875,-13.9375 -0.0943,-10.37199 -9.63721,-19.33866 -20.15625,-17.9375 z"
           id="path4336" />
        <path
           style="fill:#000000;fill-opacity:1;stroke:none"
           d="m -361.0953,395.0876 c -7.73482,0.8931 -8.25179,15.09689 0.34375,14.96875 6.12238,0.72039 11.5338,-7.19563 6.75,-11.9375 -1.67951,-2.16363 -4.38827,-3.37579 -7.09375,-3.03125 z"
           id="path4338" />
      </g>
      <g
         transform="translate(449.64164,30.838437)"
         id="g4354">
        <path
           transform="translate(95.071099,91.013026)"
           d="m -432.68328,311.20438 c 0,12.06129 -9.77761,21.8389 -21.83891,21.8389 -12.06129,0 -21.8389,-9.77761 -21.8389,-21.8389 0,-12.0613 9.77761,-21.83891 21.8389,-21.83891 12.0613,0 21.83891,9.77761 21.83891,21.83891 z"
           sodipodi:ry="21.838903"
           sodipodi:rx="21.838903"
           sodipodi:cy="311.20438"
           sodipodi:cx="-454.52219"
           id="path4346"
           style="fill:#008000;fill-opacity:1;stroke:none"
           sodipodi:type="arc" />
        <path
           id="path4348"
           d="m -360.46015,382.41928 c -14.38645,-0.0111 -23.99615,18.07118 -15.96875,30.03125 6.82423,12.6574 27.1112,12.60714 34,0 8.27897,-13.13493 -2.46286,-31.21093 -18.03125,-30.03125 z"
           style="fill:#1a1a1a;fill-opacity:1;stroke:none" />
        <path
           id="path4350"
           d="m -361.68905,384.3376 c -14.7635,1.24878 -21.44746,23.29451 -9.0625,31.875 10.60373,9.1098 30.2852,0.50584 29.21875,-13.9375 -0.0943,-10.37199 -9.63721,-19.33866 -20.15625,-17.9375 z"
           style="fill:#008000;fill-opacity:1;stroke:none" />
        <path
           id="path4352"
           d="m -361.0953,395.0876 c -7.73482,0.8931 -8.25179,15.09689 0.34375,14.96875 6.12238,0.72039 11.5338,-7.19563 6.75,-11.9375 -1.67951,-2.16363 -4.38827,-3.37579 -7.09375,-3.03125 z"
           style="fill:#000000;fill-opacity:1;stroke:none" />
      </g>
    </g>
    <g
       id="g4457"
       transform="matrix(0.15037947,0,0,0.15037947,2.5013158,-25.675968)">
      <g
         id="g4459"
         transform="translate(423.23383,-209.54838)">
        <path
           transform="translate(121.4789,116.01918)"
           d="m -432.68328,311.20438 c 0,12.06129 -9.77761,21.8389 -21.83891,21.8389 -12.06129,0 -21.8389,-9.77761 -21.8389,-21.8389 0,-12.0613 9.77761,-21.83891 21.8389,-21.83891 12.0613,0 21.83891,9.77761 21.83891,21.83891 z"
           sodipodi:ry="21.838903"
           sodipodi:rx="21.838903"
           sodipodi:cy="311.20438"
           sodipodi:cx="-454.52219"
           id="path4461"
           style="fill:#df1a1a;fill-opacity:1;stroke:none"
           sodipodi:type="arc" />
        <path
           id="path4463"
           d="m -334.05235,407.42543 c -14.38645,-0.0111 -23.99615,18.07118 -15.96875,30.03125 6.82423,12.6574 27.1112,12.60714 34,0 8.27897,-13.13493 -2.46286,-31.21093 -18.03125,-30.03125 z"
           style="fill:#1a1a1a;fill-opacity:1;stroke:none" />
        <path
           id="path4465"
           d="m -335.28125,409.34375 c -14.7635,1.24878 -21.44746,23.29451 -9.0625,31.875 10.60373,9.1098 30.2852,0.50584 29.21875,-13.9375 -0.0943,-10.37199 -9.63721,-19.33866 -20.15625,-17.9375 z"
           style="fill:#ff0000;fill-opacity:1;stroke:none" />
        <path
           id="path4467"
           d="m -334.6875,420.09375 c -7.73482,0.8931 -8.25179,15.09689 0.34375,14.96875 6.12238,0.72039 11.5338,-7.19563 6.75,-11.9375 -1.67951,-2.16363 -4.38827,-3.37579 -7.09375,-3.03125 z"
           style="fill:#000000;fill-opacity:1;stroke:none" />
      </g>
      <g
         id="g4469"
         transform="translate(411.25482,-69.553302)">
        <path
           sodipodi:type="arc"
           style="fill:#ffff00;fill-opacity:1;stroke:none"
           id="path4471"
           sodipodi:cx="-454.52219"
           sodipodi:cy="311.20438"
           sodipodi:rx="21.838903"
           sodipodi:ry="21.838903"
           d="m -432.68328,311.20438 c 0,12.06129 -9.77761,21.8389 -21.83891,21.8389 -12.06129,0 -21.8389,-9.77761 -21.8389,-21.8389 0,-12.0613 9.77761,-21.83891 21.8389,-21.83891 12.0613,0 21.83891,9.77761 21.83891,21.83891 z"
           transform="translate(133.45791,119.6112)" />
        <path
           style="fill:#1a1a1a;fill-opacity:1;stroke:none"
           d="m -322.07334,411.01745 c -14.38645,-0.0111 -23.99615,18.07118 -15.96875,30.03125 6.82423,12.6574 27.1112,12.60714 34,0 8.27897,-13.13493 -2.46286,-31.21093 -18.03125,-30.03125 z"
           id="path4473" />
        <path
           style="fill:#ffff00;fill-opacity:1;stroke:none"
           d="m -323.30224,412.93577 c -14.7635,1.24878 -21.44746,23.29451 -9.0625,31.875 10.60373,9.1098 30.2852,0.50584 29.21875,-13.9375 -0.0943,-10.37199 -9.63721,-19.33866 -20.15625,-17.9375 z"
           id="path4475" />
        <path
           style="fill:#000000;fill-opacity:1;stroke:none"
           d="m -322.70849,423.68577 c -7.73482,0.8931 -8.25179,15.09689 0.34375,14.96875 6.12238,0.72039 11.5338,-7.19563 6.75,-11.9375 -1.67951,-2.16363 -4.38827,-3.37579 -7.09375,-3.03125 z"
           id="path4477" />
      </g>
      <g
         id="g4479"
         transform="translate(449.64164,-112.74871)">
        <path
           transform="translate(95.071099,91.013026)"
           d="m -432.68328,311.20438 c 0,12.06129 -9.77761,21.8389 -21.83891,21.8389 -12.06129,0 -21.8389,-9.77761 -21.8389,-21.8389 0,-12.0613 9.77761,-21.83891 21.8389,-21.83891 12.0613,0 21.83891,9.77761 21.83891,21.83891 z"
           sodipodi:ry="21.838903"
           sodipodi:rx="21.838903"
           sodipodi:cy="311.20438"
           sodipodi:cx="-454.52219"
           id="path4481"
           style="fill:#0000ff;fill-opacity:1;stroke:none"
           sodipodi:type="arc" />
        <path
           id="path4483"
           d="m -360.46015,382.41928 c -14.38645,-0.0111 -23.99615,18.07118 -15.96875,30.03125 6.82423,12.6574 27.1112,12.60714 34,0 8.27897,-13.13493 -2.46286,-31.21093 -18.03125,-30.03125 z"
           style="fill:#1a1a1a;fill-opacity:1;stroke:none" />
        <path
           id="path4485"
           d="m -361.68905,384.3376 c -14.7635,1.24878 -21.44746,23.29451 -9.0625,31.875 10.60373,9.1098 30.2852,0.50584 29.21875,-13.9375 -0.0943,-10.37199 -9.63721,-19.33866 -20.15625,-17.9375 z"
           style="fill:#0000ff;fill-opacity:1;stroke:none" />
        <path
           id="path4487"
           d="m -361.0953,395.0876 c -7.73482,0.8931 -8.25179,15.09689 0.34375,14.96875 6.12238,0.72039 11.5338,-7.19563 6.75,-11.9375 -1.67951,-2.16363 -4.38827,-3.37579 -7.09375,-3.03125 z"
           style="fill:#000000;fill-opacity:1;stroke:none" />
      </g>
      <g
         id="g4489"
         transform="translate(449.64164,30.838437)">
        <path
           sodipodi:type="arc"
           style="fill:#008000;fill-opacity:1;stroke:none"
           id="path4491"
           sodipodi:cx="-454.52219"
           sodipodi:cy="311.20438"
           sodipodi:rx="21.838903"
           sodipodi:ry="21.838903"
           d="m -432.68328,311.20438 c 0,12.06129 -9.77761,21.8389 -21.83891,21.8389 -12.06129,0 -21.8389,-9.77761 -21.8389,-21.8389 0,-12.0613 9.77761,-21.83891 21.8389,-21.83891 12.0613,0 21.83891,9.77761 21.83891,21.83891 z"
           transform="translate(95.071099,91.013026)" />
        <path
           style="fill:#1a1a1a;fill-opacity:1;stroke:none"
           d="m -360.46015,382.41928 c -14.38645,-0.0111 -23.99615,18.07118 -15.96875,30.03125 6.82423,12.6574 27.1112,12.60714 34,0 8.27897,-13.13493 -2.46286,-31.21093 -18.03125,-30.03125 z"
           id="path4493" />
        <path
           style="fill:#008000;fill-opacity:1;stroke:none"
           d="m -361.68905,384.3376 c -14.7635,1.24878 -21.44746,23.29451 -9.0625,31.875 10.60373,9.1098 30.2852,0.50584 29.21875,-13.9375 -0.0943,-10.37199 -9.63721,-19.33866 -20.15625,-17.9375 z"
           id="path4495" />
        <path
           style="fill:#000000;fill-opacity:1;stroke:none"
           d="m -361.0953,395.0876 c -7.73482,0.8931 -8.25179,15.09689 0.34375,14.96875 6.12238,0.72039 11.5338,-7.19563 6.75,-11.9375 -1.67951,-2.16363 -4.38827,-3.37579 -7.09375,-3.03125 z"
           id="path4497" />
      </g>
    </g>
    <g
       transform="matrix(0.15037947,0,0,0.15037947,9.9412921,-25.675968)"
       id="g4499">
      <g
         transform="translate(423.23383,-209.54838)"
         id="g4501">
        <path
           sodipodi:type="arc"
           style="fill:#df1a1a;fill-opacity:1;stroke:none"
           id="path4503"
           sodipodi:cx="-454.52219"
           sodipodi:cy="311.20438"
           sodipodi:rx="21.838903"
           sodipodi:ry="21.838903"
           d="m -432.68328,311.20438 c 0,12.06129 -9.77761,21.8389 -21.83891,21.8389 -12.06129,0 -21.8389,-9.77761 -21.8389,-21.8389 0,-12.0613 9.77761,-21.83891 21.8389,-21.83891 12.0613,0 21.83891,9.77761 21.83891,21.83891 z"
           transform="translate(121.4789,116.01918)" />
        <path
           style="fill:#1a1a1a;fill-opacity:1;stroke:none"
           d="m -334.05235,407.42543 c -14.38645,-0.0111 -23.99615,18.07118 -15.96875,30.03125 6.82423,12.6574 27.1112,12.60714 34,0 8.27897,-13.13493 -2.46286,-31.21093 -18.03125,-30.03125 z"
           id="path4505" />
        <path
           style="fill:#ff0000;fill-opacity:1;stroke:none"
           d="m -335.28125,409.34375 c -14.7635,1.24878 -21.44746,23.29451 -9.0625,31.875 10.60373,9.1098 30.2852,0.50584 29.21875,-13.9375 -0.0943,-10.37199 -9.63721,-19.33866 -20.15625,-17.9375 z"
           id="path4507" />
        <path
           style="fill:#000000;fill-opacity:1;stroke:none"
           d="m -334.6875,420.09375 c -7.73482,0.8931 -8.25179,15.09689 0.34375,14.96875 6.12238,0.72039 11.5338,-7.19563 6.75,-11.9375 -1.67951,-2.16363 -4.38827,-3.37579 -7.09375,-3.03125 z"
           id="path4509" />
      </g>
      <g
         transform="translate(411.25482,-69.553302)"
         id="g4511">
        <path
           transform="translate(133.45791,119.6112)"
           d="m -432.68328,311.20438 c 0,12.06129 -9.77761,21.8389 -21.83891,21.8389 -12.06129,0 -21.8389,-9.77761 -21.8389,-21.8389 0,-12.0613 9.77761,-21.83891 21.8389,-21.83891 12.0613,0 21.83891,9.77761 21.83891,21.83891 z"
           sodipodi:ry="21.838903"
           sodipodi:rx="21.838903"
           sodipodi:cy="311.20438"
           sodipodi:cx="-454.52219"
           id="path4513"
           style="fill:#ffff00;fill-opacity:1;stroke:none"
           sodipodi:type="arc" />
        <path
           id="path4515"
           d="m -322.07334,411.01745 c -14.38645,-0.0111 -23.99615,18.07118 -15.96875,30.03125 6.82423,12.6574 27.1112,12.60714 34,0 8.27897,-13.13493 -2.46286,-31.21093 -18.03125,-30.03125 z"
           style="fill:#1a1a1a;fill-opacity:1;stroke:none" />
        <path
           id="path4517"
           d="m -323.30224,412.93577 c -14.7635,1.24878 -21.44746,23.29451 -9.0625,31.875 10.60373,9.1098 30.2852,0.50584 29.21875,-13.9375 -0.0943,-10.37199 -9.63721,-19.33866 -20.15625,-17.9375 z"
           style="fill:#ffff00;fill-opacity:1;stroke:none" />
        <path
           id="path4519"
           d="m -322.70849,423.68577 c -7.73482,0.8931 -8.25179,15.09689 0.34375,14.96875 6.12238,0.72039 11.5338,-7.19563 6.75,-11.9375 -1.67951,-2.16363 -4.38827,-3.37579 -7.09375,-3.03125 z"
           style="fill:#000000;fill-opacity:1;stroke:none" />
      </g>
      <g
         transform="translate(449.64164,-112.74871)"
         id="g4521">
        <path
           sodipodi:type="arc"
           style="fill:#0000ff;fill-opacity:1;stroke:none"
           id="path4523"
           sodipodi:cx="-454.52219"
           sodipodi:cy="311.20438"
           sodipodi:rx="21.838903"
           sodipodi:ry="21.838903"
           d="m -432.68328,311.20438 c 0,12.06129 -9.77761,21.8389 -21.83891,21.8389 -12.06129,0 -21.8389,-9.77761 -21.8389,-21.8389 0,-12.0613 9.77761,-21.83891 21.8389,-21.83891 12.0613,0 21.83891,9.77761 21.83891,21.83891 z"
           transform="translate(95.071099,91.013026)" />
        <path
           style="fill:#1a1a1a;fill-opacity:1;stroke:none"
           d="m -360.46015,382.41928 c -14.38645,-0.0111 -23.99615,18.07118 -15.96875,30.03125 6.82423,12.6574 27.1112,12.60714 34,0 8.27897,-13.13493 -2.46286,-31.21093 -18.03125,-30.03125 z"
           id="path4525" />
        <path
           style="fill:#0000ff;fill-opacity:1;stroke:none"
           d="m -361.68905,384.3376 c -14.7635,1.24878 -21.44746,23.29451 -9.0625,31.875 10.60373,9.1098 30.2852,0.50584 29.21875,-13.9375 -0.0943,-10.37199 -9.63721,-19.33866 -20.15625,-17.9375 z"
           id="path4527" />
        <path
           style="fill:#000000;fill-opacity:1;stroke:none"
           d="m -361.0953,395.0876 c -7.73482,0.8931 -8.25179,15.09689 0.34375,14.96875 6.12238,0.72039 11.5338,-7.19563 6.75,-11.9375 -1.67951,-2.16363 -4.38827,-3.37579 -7.09375,-3.03125 z"
           id="path4529" />
      </g>
      <g
         transform="translate(449.64164,30.838437)"
         id="g4531">
        <path
           transform="translate(95.071099,91.013026)"
           d="m -432.68328,311.20438 c 0,12.06129 -9.77761,21.8389 -21.83891,21.8389 -12.06129,0 -21.8389,-9.77761 -21.8389,-21.8389 0,-12.0613 9.77761,-21.83891 21.8389,-21.83891 12.0613,0 21.83891,9.77761 21.83891,21.83891 z"
           sodipodi:ry="21.838903"
           sodipodi:rx="21.838903"
           sodipodi:cy="311.20438"
           sodipodi:cx="-454.52219"
           id="path4533"
           style="fill:#008000;fill-opacity:1;stroke:none"
           sodipodi:type="arc" />
        <path
           id="path4535"
           d="m -360.46015,382.41928 c -14.38645,-0.0111 -23.99615,18.07118 -15.96875,30.03125 6.82423,12.6574 27.1112,12.60714 34,0 8.27897,-13.13493 -2.46286,-31.21093 -18.03125,-30.03125 z"
           style="fill:#1a1a1a;fill-opacity:1;stroke:none" />
        <path
           id="path4537"
           d="m -361.68905,384.3376 c -14.7635,1.24878 -21.44746,23.29451 -9.0625,31.875 10.60373,9.1098 30.2852,0.50584 29.21875,-13.9375 -0.0943,-10.37199 -9.63721,-19.33866 -20.15625,-17.9375 z"
           style="fill:#008000;fill-opacity:1;stroke:none" />
        <path
           id="path4539"
           d="m -361.0953,395.0876 c -7.73482,0.8931 -8.25179,15.09689 0.34375,14.96875 6.12238,0.72039 11.5338,-7.19563 6.75,-11.9375 -1.67951,-2.16363 -4.38827,-3.37579 -7.09375,-3.03125 z"
           style="fill:#000000;fill-opacity:1;stroke:none" />
      </g>
    </g>
    <g
       id="g4541"
       transform="matrix(0.15037947,0,0,0.15037947,17.381269,-25.675968)">
      <g
         id="g4543"
         transform="translate(423.23383,-209.54838)">
        <path
           transform="translate(121.4789,116.01918)"
           d="m -432.68328,311.20438 c 0,12.06129 -9.77761,21.8389 -21.83891,21.8389 -12.06129,0 -21.8389,-9.77761 -21.8389,-21.8389 0,-12.0613 9.77761,-21.83891 21.8389,-21.83891 12.0613,0 21.83891,9.77761 21.83891,21.83891 z"
           sodipodi:ry="21.838903"
           sodipodi:rx="21.838903"
           sodipodi:cy="311.20438"
           sodipodi:cx="-454.52219"
           id="path4545"
           style="fill:#df1a1a;fill-opacity:1;stroke:none"
           sodipodi:type="arc" />
        <path
           id="path4547"
           d="m -334.05235,407.42543 c -14.38645,-0.0111 -23.99615,18.07118 -15.96875,30.03125 6.82423,12.6574 27.1112,12.60714 34,0 8.27897,-13.13493 -2.46286,-31.21093 -18.03125,-30.03125 z"
           style="fill:#1a1a1a;fill-opacity:1;stroke:none" />
        <path
           id="path4549"
           d="m -335.28125,409.34375 c -14.7635,1.24878 -21.44746,23.29451 -9.0625,31.875 10.60373,9.1098 30.2852,0.50584 29.21875,-13.9375 -0.0943,-10.37199 -9.63721,-19.33866 -20.15625,-17.9375 z"
           style="fill:#ff0000;fill-opacity:1;stroke:none" />
        <path
           id="path4551"
           d="m -334.6875,420.09375 c -7.73482,0.8931 -8.25179,15.09689 0.34375,14.96875 6.12238,0.72039 11.5338,-7.19563 6.75,-11.9375 -1.67951,-2.16363 -4.38827,-3.37579 -7.09375,-3.03125 z"
           style="fill:#000000;fill-opacity:1;stroke:none" />
      </g>
      <g
         id="g4553"
         transform="translate(411.25482,-69.553302)">
        <path
           sodipodi:type="arc"
           style="fill:#ffff00;fill-opacity:1;stroke:none"
           id="path4555"
           sodipodi:cx="-454.52219"
           sodipodi:cy="311.20438"
           sodipodi:rx="21.838903"
           sodipodi:ry="21.838903"
           d="m -432.68328,311.20438 c 0,12.06129 -9.77761,21.8389 -21.83891,21.8389 -12.06129,0 -21.8389,-9.77761 -21.8389,-21.8389 0,-12.0613 9.77761,-21.83891 21.8389,-21.83891 12.0613,0 21.83891,9.77761 21.83891,21.83891 z"
           transform="translate(133.45791,119.6112)" />
        <path
           style="fill:#1a1a1a;fill-opacity:1;stroke:none"
           d="m -322.07334,411.01745 c -14.38645,-0.0111 -23.99615,18.07118 -15.96875,30.03125 6.82423,12.6574 27.1112,12.60714 34,0 8.27897,-13.13493 -2.46286,-31.21093 -18.03125,-30.03125 z"
           id="path4557" />
        <path
           style="fill:#ffff00;fill-opacity:1;stroke:none"
           d="m -323.30224,412.93577 c -14.7635,1.24878 -21.44746,23.29451 -9.0625,31.875 10.60373,9.1098 30.2852,0.50584 29.21875,-13.9375 -0.0943,-10.37199 -9.63721,-19.33866 -20.15625,-17.9375 z"
           id="path4559" />
        <path
           style="fill:#000000;fill-opacity:1;stroke:none"
           d="m -322.70849,423.68577 c -7.73482,0.8931 -8.25179,15.09689 0.34375,14.96875 6.12238,0.72039 11.5338,-7.19563 6.75,-11.9375 -1.67951,-2.16363 -4.38827,-3.37579 -7.09375,-3.03125 z"
           id="path4561" />
      </g>
      <g
         id="g4563"
         transform="translate(449.64164,-112.74871)">
        <path
           transform="translate(95.071099,91.013026)"
           d="m -432.68328,311.20438 c 0,12.06129 -9.77761,21.8389 -21.83891,21.8389 -12.06129,0 -21.8389,-9.77761 -21.8389,-21.8389 0,-12.0613 9.77761,-21.83891 21.8389,-21.83891 12.0613,0 21.83891,9.77761 21.83891,21.83891 z"
           sodipodi:ry="21.838903"
           sodipodi:rx="21.838903"
           sodipodi:cy="311.20438"
           sodipodi:cx="-454.52219"
           id="path4565"
           style="fill:#0000ff;fill-opacity:1;stroke:none"
           sodipodi:type="arc" />
        <path
           id="path4567"
           d="m -360.46015,382.41928 c -14.38645,-0.0111 -23.99615,18.07118 -15.96875,30.03125 6.82423,12.6574 27.1112,12.60714 34,0 8.27897,-13.13493 -2.46286,-31.21093 -18.03125,-30.03125 z"
           style="fill:#1a1a1a;fill-opacity:1;stroke:none" />
        <path
           id="path4569"
           d="m -361.68905,384.3376 c -14.7635,1.24878 -21.44746,23.29451 -9.0625,31.875 10.60373,9.1098 30.2852,0.50584 29.21875,-13.9375 -0.0943,-10.37199 -9.63721,-19.33866 -20.15625,-17.9375 z"
           style="fill:#0000ff;fill-opacity:1;stroke:none" />
        <path
           id="path4571"
           d="m -361.0953,395.0876 c -7.73482,0.8931 -8.25179,15.09689 0.34375,14.96875 6.12238,0.72039 11.5338,-7.19563 6.75,-11.9375 -1.67951,-2.16363 -4.38827,-3.37579 -7.09375,-3.03125 z"
           style="fill:#000000;fill-opacity:1;stroke:none" />
      </g>
      <g
         id="g4573"
         transform="translate(449.64164,30.838437)">
        <path
           sodipodi:type="arc"
           style="fill:#008000;fill-opacity:1;stroke:none"
           id="path4575"
           sodipodi:cx="-454.52219"
           sodipodi:cy="311.20438"
           sodipodi:rx="21.838903"
           sodipodi:ry="21.838903"
           d="m -432.68328,311.20438 c 0,12.06129 -9.77761,21.8389 -21.83891,21.8389 -12.06129,0 -21.8389,-9.77761 -21.8389,-21.8389 0,-12.0613 9.77761,-21.83891 21.8389,-21.83891 12.0613,0 21.83891,9.77761 21.83891,21.83891 z"
           transform="translate(95.071099,91.013026)" />
        <path
           style="fill:#1a1a1a;fill-opacity:1;stroke:none"
           d="m -360.46015,382.41928 c -14.38645,-0.0111 -23.99615,18.07118 -15.96875,30.03125 6.82423,12.6574 27.1112,12.60714 34,0 8.27897,-13.13493 -2.46286,-31.21093 -18.03125,-30.03125 z"
           id="path4577" />
        <path
           style="fill:#008000;fill-opacity:1;stroke:none"
           d="m -361.68905,384.3376 c -14.7635,1.24878 -21.44746,23.29451 -9.0625,31.875 10.60373,9.1098 30.2852,0.50584 29.21875,-13.9375 -0.0943,-10.37199 -9.63721,-19.33866 -20.15625,-17.9375 z"
           id="path4579" />
        <path
           style="fill:#000000;fill-opacity:1;stroke:none"
           d="m -361.0953,395.0876 c -7.73482,0.8931 -8.25179,15.09689 0.34375,14.96875 6.12238,0.72039 11.5338,-7.19563 6.75,-11.9375 -1.67951,-2.16363 -4.38827,-3.37579 -7.09375,-3.03125 z"
           id="path4581" />
      </g>
    </g>
  </g>
</svg>
