<svg xmlns="http://www.w3.org/2000/svg"
   xmlns:xlink="http://www.w3.org/1999/xlink"
   version="1.1"
   id="amfm" width="100%" height="100%"  viewBox="-6 -6 406 342">
<desc>
XCircuit Version 3.7
File "amfm.ps" Page 1
</desc>
<g stroke="black">
<path d="M304,64 L304,112 368,112 368,64 z" fill="none" stroke-width="2" stroke-linejoin="bevel" stroke-linecap="round" stroke="#000000" />
<g transform="matrix(   1    0   -0    1 336 192)" fill="#000000" >
<text stroke="none" font-family="Helvetica" font-size="40" ><tspan x="-26" y="0">A2</tspan>
</text></g>
<path d="M304,160 L304,208 368,208 368,160 z" fill="none" stroke-width="2" stroke-linejoin="bevel" stroke-linecap="round" stroke="#000000" />
<g transform="matrix(   1    0   -0    1 336  96)" fill="#000000" >
<text stroke="none" font-family="Helvetica" font-size="40" ><tspan x="-21" y="0">A1</tspan>
</text></g>
<path d="M16,16 L16,112 208,112 208,16 z" fill="none" stroke-width="2" stroke-linejoin="bevel" stroke-linecap="round" stroke="#000000" />
<g transform="matrix(   1    0   -0    1 336 288)" fill="#000000" >
<text stroke="none" font-family="Helvetica" font-size="40" ><tspan x="-43" y="0">GND</tspan>
</text></g>
<path d="M0,0 L0,336 400,336 400,0 z" fill="none" stroke-width="2" stroke-linejoin="bevel" stroke-linecap="round" stroke="#000000" />
<g transform="matrix(   1    0   -0    1 112  96)" fill="#000000" >
<text stroke="none" font-family="Helvetica" font-size="40" ><tspan x="-91" y="0">AM output</tspan>
</text></g>
<path d="M16,144 L16,224 224,224 224,144 z" fill="none" stroke-width="2" stroke-linejoin="bevel" stroke-linecap="round" stroke="#000000" />
<g transform="matrix(   1    0   -0    1 112 208)" fill="#000000" >
<text stroke="none" font-family="Helvetica" font-size="40" ><tspan x="-53" y="0">Signal</tspan>
</text></g>
<path d="M208,80 C209,80 272,112 304,80 " fill="none" stroke-width="2" stroke-linejoin="bevel" stroke-linecap="round" stroke="#000000" />
<g transform="matrix(   1    0   -0    1  96 288)" fill="#000000" >
<text stroke="none" font-family="Helvetica" font-size="40" ><tspan x="-43" y="0">GND</tspan>
</text></g>
<path d="M48,256 L48,304 144,304 144,256 z" fill="none" stroke-width="2" stroke-linejoin="bevel" stroke-linecap="round" stroke="#000000" />
<path d="M288,256 L288,304 384,304 384,256 z" fill="none" stroke-width="2" stroke-linejoin="bevel" stroke-linecap="round" stroke="#000000" />
<path d="M144,272 C145,272 240,240 288,272 " fill="none" stroke-width="2" stroke-linejoin="bevel" stroke-linecap="round" stroke="#000000" />
<g transform="matrix(   1    0   -0    1  32  48)" fill="#000000" >
<text stroke="none" font-family="Helvetica" font-size="40" ><tspan x="0" y="0">External</tspan>
</text></g>
<g transform="matrix(   1    0   -0    1  32 176)" fill="#000000" >
<text stroke="none" font-family="Helvetica" font-size="40" ><tspan x="0" y="0">Modulating</tspan>
</text></g>
<path d="M224,192 C225,192 304,208 304,176 " fill="none" stroke-width="2" stroke-linejoin="bevel" stroke-linecap="round" stroke="#000000" />
</g>
</svg>
