M48
;DRILL file {Pcbnew (2013-mar-13)-testing} date Fri 22 Nov 2013 01:15:23 PM IST
;FORMAT={-:-/ absolute / inch / decimal}
FMAT,2
INCH,TZ
T1C0.024
T2C0.028
T3C0.032
T4C0.032
T5C0.039
T6C0.040
T7C0.044
T8C0.091
T9C0.157
%
G90
G05
M72
T1
X2.0413Y-2.8366
X2.0984Y-1.935
X2.1152Y-1.8819
X2.1447Y-2.8248
X2.1585Y-3.1161
X2.1988Y-3.7175
X2.2205Y-3.4596
X2.2382Y-1.1624
X2.25Y-2.5404
X2.2569Y-2.0906
X2.2933Y-3.4783
X2.2992Y-3.2579
X2.3022Y-1.8819
X2.3248Y-1.9321
X2.3494Y-3.0197
X2.3917Y-2.5915
X2.3937Y-2.5384
X2.3967Y-2.2421
X2.3976Y-2.3406
X2.4055Y-2.6496
X2.4065Y-1.437
X2.4094Y-1.9902
X2.4114Y-2.0679
X2.4488Y-3.123
X2.5069Y-3.3159
X2.5098Y-2.1467
X2.5148Y-3.5285
X2.561Y-1.2874
X2.5866Y-3.3484
X2.6191Y-2.1969
X2.625Y-2.5669
X2.6407Y-1.9921
X2.7825Y-2.44
X2.7854Y-1.9911
X2.7854Y-2.0433
X2.7854Y-2.376
X2.8179Y-2.6043
X2.8268Y-2.2864
X2.9065Y-2.3376
X2.9862Y-2.3268
X3.0266Y-3.1417
X3.0531Y-1.128
X3.128Y-1.3051
X3.1299Y-2.6407
X3.1447Y-2.3356
X3.1496Y-2.1073
X3.2539Y-3.3848
X3.3337Y-3.3209
X3.3494Y-2.2392
X3.3494Y-2.3189
X3.4498Y-2.7884
X3.4508Y-3.0315
X3.499Y-2.9419
X3.627Y-2.0108
X3.628Y-2.2913
X3.6703Y-3.0974
T2
X2.186Y-1.0728
X2.6171Y-3.7441
X2.6319Y-1.7913
X3.4321Y-1.936
X3.6289Y-2.0098
X3.7411Y-3.7156
X3.813Y-1.2982
T3
X1.9193Y-1.3911
X1.9193Y-1.5911
X2.1004Y-2.3911
X2.1004Y-2.5911
T4
X1.9675Y-3.6921
X1.9675Y-3.7921
X2.1488Y-3.8396
X2.2488Y-3.8396
X2.2506Y-2.7874
X2.3506Y-2.7874
X2.4419Y-3.6656
X2.4419Y-3.7656
X2.4506Y-2.7874
X2.5506Y-2.7874
X2.6215Y-3.5866
X2.6506Y-2.7874
X2.7215Y-3.5866
X2.772Y-3.7043
X2.772Y-4.0043
X2.8215Y-3.5866
X2.872Y-3.7043
X2.872Y-4.0043
X2.972Y-3.7043
X2.972Y-4.0043
X3.0663Y-3.5856
X3.072Y-3.7043
X3.072Y-4.0043
X3.1663Y-3.5856
X3.1693Y-1.6313
X3.1693Y-1.7313
X3.1693Y-1.8313
X3.172Y-3.7043
X3.172Y-4.0043
X3.2663Y-3.5856
X3.272Y-3.7043
X3.272Y-4.0043
X3.372Y-3.7043
X3.372Y-4.0043
X3.373Y-1.1281
X3.373Y-1.2281
X3.4065Y-1.4215
X3.4065Y-1.5215
X3.472Y-3.7043
X3.472Y-4.0043
X3.6004Y-1.6045
X3.6004Y-1.7045
X3.6122Y-1.2551
X3.6122Y-1.3551
T5
X2.8049Y-1.4843
X2.9049Y-1.4843
X2.9849Y-1.4843
X3.0849Y-1.4843
T6
X2.4972Y-1.0679
X2.5972Y-1.0679
T7
X1.8553Y-1.8356
X1.8553Y-2.0325
X1.8553Y-2.2293
X1.8553Y-2.4262
X1.8553Y-2.623
X1.8553Y-2.8199
X1.8553Y-3.0167
X1.8553Y-3.2136
X1.8553Y-3.4104
X3.876Y-1.8356
X3.876Y-2.0325
X3.876Y-2.2293
X3.876Y-2.4262
X3.876Y-2.623
X3.876Y-2.8199
X3.876Y-3.0167
X3.876Y-3.2136
X3.876Y-3.4104
T8
X2.6849Y-1.3793
X3.2249Y-1.3793
T9
X1.9055Y-1.1299
X1.9055Y-4.1142
X3.8268Y-1.1299
X3.8268Y-4.1142
T0
M30
