<?xml version="1.0" encoding="UTF-8" standalone="no"?>
<svg
   xmlns:dc="http://purl.org/dc/elements/1.1/"
   xmlns:cc="http://creativecommons.org/ns#"
   xmlns:rdf="http://www.w3.org/1999/02/22-rdf-syntax-ns#"
   xmlns:svg="http://www.w3.org/2000/svg"
   xmlns="http://www.w3.org/2000/svg"
   xmlns:xlink="http://www.w3.org/1999/xlink"
   xmlns:sodipodi="http://sodipodi.sourceforge.net/DTD/sodipodi-0.dtd"
   xmlns:inkscape="http://www.inkscape.org/namespaces/inkscape"
   viewBox="0 0 225 150"
   width="1350"
   height="900"
   version="1.1"
   id="svg34"
   sodipodi:docname="Flag_of_India_KD.svg"
   inkscape:version="0.92.4 (5da689c313, 2019-01-14)">
  <metadata
     id="metadata40">
    <rdf:RDF>
      <cc:Work
         rdf:about="">
        <dc:format>image/svg+xml</dc:format>
        <dc:type
           rdf:resource="http://purl.org/dc/dcmitype/StillImage" />
        <dc:title />
      </cc:Work>
    </rdf:RDF>
  </metadata>
  <defs
     id="defs38" />
  <sodipodi:namedview
     pagecolor="#ffffff"
     bordercolor="#666666"
     borderopacity="1"
     objecttolerance="10"
     gridtolerance="10"
     guidetolerance="10"
     inkscape:pageopacity="0"
     inkscape:pageshadow="2"
     inkscape:window-width="1511"
     inkscape:window-height="848"
     id="namedview36"
     showgrid="false"
     inkscape:zoom="0.18541911"
     inkscape:cx="-679.45269"
     inkscape:cy="1297.316"
     inkscape:window-x="0"
     inkscape:window-y="0"
     inkscape:window-maximized="0"
     inkscape:current-layer="text849" />
  <rect
     width="225"
     height="150"
     fill="#f93"
     id="rect2" />
  <rect
     width="225"
     height="100"
     y="50"
     fill="#fff"
     id="rect4" />
  <rect
     width="225"
     height="50"
     y="100"
     fill="#128807"
     id="rect6" />
  <g
     transform="translate(112.5,75)"
     id="g32">
    <circle
       r="20"
       fill="#008"
       id="circle8" />
    <circle
       r="17.5"
       fill="#fff"
       id="circle10" />
    <circle
       r="3.5"
       fill="#008"
       id="circle12" />
    <g
       id="d">
      <g
         id="c">
        <g
           id="b">
          <g
             id="a">
            <circle
               r="0.875"
               fill="#008"
               transform="rotate(7.5) translate(17.5)"
               id="circle14" />
            <path
               fill="#008"
               d="M 0,17.5 0.6,7 C 0.6,7 0,2 0,2 0,2 -0.6,7 -0.6,7 L 0,17.5 z"
               id="path16" />
          </g>
          <use
             xlink:href="#a"
             transform="rotate(15)"
             id="use19" />
        </g>
        <use
           xlink:href="#b"
           transform="rotate(30)"
           id="use22" />
      </g>
      <use
         xlink:href="#c"
         transform="rotate(60)"
         id="use25" />
    </g>
    <use
       xlink:href="#d"
       transform="rotate(120)"
       id="use28" />
    <use
       xlink:href="#d"
       transform="rotate(-120)"
       id="use30" />
  </g>
  <g
     aria-label="EN"
     style="font-style:normal;font-variant:normal;font-weight:normal;font-stretch:normal;font-size:4px;line-height:12.02519798px;font-family:Arimo;-inkscape-font-specification:'Arimo, Normal';font-variant-ligatures:normal;font-variant-caps:normal;font-variant-numeric:normal;font-feature-settings:normal;text-align:start;letter-spacing:0px;word-spacing:0px;writing-mode:lr-tb;text-anchor:start;fill:#000000;fill-opacity:1;stroke:none;stroke-width:0.16666667px;stroke-linecap:butt;stroke-linejoin:miter;stroke-opacity:1"
     id="text849">
    <g
       aria-label="ಕನ್ನಡ "
       style="font-style:normal;font-variant:normal;font-weight:normal;font-stretch:normal;font-size:2.66666675px;line-height:12.02519798px;font-family:Arimo;-inkscape-font-specification:'Arimo, Normal';font-variant-ligatures:normal;font-variant-caps:normal;font-variant-numeric:normal;font-feature-settings:normal;text-align:start;letter-spacing:0px;word-spacing:0px;writing-mode:lr-tb;text-anchor:start;fill:#000000;fill-opacity:1;stroke:none;stroke-width:0.16666667px;stroke-linecap:butt;stroke-linejoin:miter;stroke-opacity:1"
       id="text854"
       transform="matrix(3.640527,0,0,3.640527,478.69041,533.01815)">
      <path
         d="m -123.65499,-117.90034 q -1.728,0 -3.072,-0.704 -1.312,-0.704 -2.048,-1.888 -0.736,-1.216 -0.736,-2.688 0,-1.504 0.672,-2.624 0.672,-1.152 1.792,-1.888 -0.704,0.032 -1.376,0.064 -0.672,0 -1.664,0 h -0.864 l 0.128,-2.144 h 6.144 q 0.416,-0.352 0.64,-0.768 0.256,-0.416 0.256,-1.024 0,-0.416 -0.096,-0.768 -0.096,-0.352 -0.256,-0.608 h -6.848 l 0.192,-2.784 h 8.672 q 1.6,0 2.368,-0.16 0.768,-0.192 1.216,-0.576 0.736,-0.64 0.736,-1.856 0,-1.856 -1.76,-3.712 l 1.152,-0.864 q 1.088,1.152 1.664,2.496 0.608,1.344 0.608,2.816 0,0.864 -0.224,1.728 -0.224,0.832 -0.928,1.536 -0.608,0.608 -1.664,0.992 -1.024,0.384 -3.296,0.384 h -0.096 q 0.32,0.768 0.32,1.472 0,0.48 -0.128,0.928 -0.096,0.416 -0.256,0.768 h 6.112 v 2.144 h -0.672 q -1.12,0 -1.856,0 -0.704,-0.032 -1.408,-0.064 1.152,0.736 1.824,1.888 0.672,1.12 0.672,2.624 0,1.472 -0.768,2.688 -0.736,1.184 -2.08,1.888 -1.312,0.704 -3.072,0.704 z m 0,-2.88 q 2.08,0 2.976,-0.96 0.928,-0.992 0.928,-2.336 0,-1.632 -1.088,-2.592 -1.056,-0.992 -2.784,-0.992 -1.856,0 -2.88,0.992 -0.992,0.992 -0.992,2.592 0,1.472 0.992,2.4 0.992,0.896 2.848,0.896 z"
         style="font-style:normal;font-variant:normal;font-weight:normal;font-stretch:normal;font-size:32px;font-family:Arimo;-inkscape-font-specification:'Arimo, Normal';font-variant-ligatures:normal;font-variant-caps:normal;font-variant-numeric:normal;font-feature-settings:normal;text-align:start;writing-mode:lr-tb;text-anchor:start;stroke-width:0.16666667px"
         id="path856"
         inkscape:connector-curvature="0" />
      <path
         d="m -109.37899,-116.55634 q -0.672,0 -1.44,-0.768 -0.736,-0.768 -1.28,-2.208 -0.512,-1.44 -0.512,-3.424 0,-2.528 1.088,-3.872 1.12,-1.376 2.72,-1.376 1.024,0 1.76,0.48 0.736,0.448 1.504,1.44 0.768,0.96 1.824,2.496 1.024,1.44 1.824,2.176 0.8,0.736 2.176001,0.736 1.76,0 2.496,-1.12 0.768,-1.152 0.768,-2.816 0,-2.336 -1.024,-4.16 -1.024,-1.856 -2.848001,-2.912 -1.824,-1.056 -4.256,-1.056 h -7.968 l 0.224,-2.784 h 12.096 q 1.600001,0 2.368001,-0.16 0.768,-0.192 1.216,-0.576 0.736,-0.576 0.736,-1.856 0,-1.856 -1.76,-3.712 l 1.152,-0.864 q 1.088,1.152 1.664,2.496 0.608,1.344 0.608,2.816 0,0.864 -0.224,1.728 -0.192,0.864 -0.928,1.536 -0.544,0.544 -1.408,0.928 -0.864,0.352 -2.624,0.416 1.76,0.928 2.912,2.368 1.152,1.44 1.696,3.136 0.576,1.696 0.576,3.328 0,0.96 -0.224,2.048 -0.192,1.088 -0.704,2.08 -0.512,0.96 -1.472,1.568 -0.928,0.608 -2.432,0.608 -1.408001,0 -2.368001,-0.576 -0.96,-0.608 -1.696,-1.568 -0.704,-0.992 -1.472,-2.144 -0.928,-1.44 -1.856,-2.272 -0.896,-0.864 -2.144,-0.864 -1.152,0 -1.856,0.704 -0.672,0.672 -0.672,1.984 0,1.28 0.704,2.432 0.736,1.152 2.368,1.6 0,0.384 -0.096,0.832 -0.064,0.48 -0.352,0.8 -0.288,0.352 -0.864,0.352 z"
         style="font-style:normal;font-variant:normal;font-weight:normal;font-stretch:normal;font-size:32px;font-family:Arimo;-inkscape-font-specification:'Arimo, Normal';font-variant-ligatures:normal;font-variant-caps:normal;font-variant-numeric:normal;font-feature-settings:normal;text-align:start;writing-mode:lr-tb;text-anchor:start;stroke-width:0.16666667px"
         id="path858"
         inkscape:connector-curvature="0" />
      <path
         d="m -89.486489,-105.26034 q -1.216,0 -2.144,-0.736 -0.928,-0.704 -1.76,-1.76 -0.832,0.576 -1.824,0.864 -1.024,0.32 -2.176,0.32 -2.336,0 -3.808001,-1.184 -1.504,-1.184 -1.504,-3.136 0,-1.44 0.96,-2.4 0.96,-0.928 2.656001,-0.928 1.28,0 2.24,0.576 0.96,0.576 1.76,1.44 0.8,0.864 1.504,1.76 0.96,-0.672 1.504,-1.696 0.544,-0.992 0.544,-2.368 0,-1.376 -0.736,-2.432 -0.736,-1.056 -1.984,-1.536 -0.128,-0.288 -0.128,-0.736 0,-1.056 0.896,-1.056 0.832,0 1.6,0.864 0.768,0.864 1.248,2.208 0.48,1.376 0.48,2.88 0,3.328 -2.016,5.536 0.544,0.512 1.12,0.832 0.608,0.352 1.28,0.352 0.736,0 1.28,-0.448 0.64,0.576 0.64,1.376 0,0.672 -0.448,1.024 -0.448,0.384 -1.184,0.384 z m -11.744001,-6.08 q 0,0.896 0.896,1.472 0.896001,0.576 2.464001,0.576 1.664,0 2.976,-0.48 -0.928,-1.248 -1.952,-2.176 -1.024,-0.928 -2.432,-0.928 -0.928001,0 -1.440001,0.416 -0.512,0.448 -0.512,1.12 z"
         style="font-style:normal;font-variant:normal;font-weight:normal;font-stretch:normal;font-size:32px;font-family:Arimo;-inkscape-font-specification:'Arimo, Normal';font-variant-ligatures:normal;font-variant-caps:normal;font-variant-numeric:normal;font-feature-settings:normal;text-align:start;writing-mode:lr-tb;text-anchor:start;stroke-width:0.16666667px"
         id="path860"
         inkscape:connector-curvature="0" />
      <path
         d="m -85.422489,-117.83634 q -1.888,0 -3.104,-0.928 -1.184,-0.96 -1.728,-2.464 -0.544,-1.504 -0.544,-3.104 0,-2.944 1.44,-5.216 1.44,-2.304 3.84,-3.392 h -5.216 l 0.224,-2.784 h 14.624 q 1.6,0 2.368,-0.16 0.768,-0.192 1.216,-0.576 0.736,-0.64 0.736,-1.856 0,-1.856 -1.76,-3.712 l 1.152,-0.864 q 1.088,1.152 1.664,2.496 0.608,1.344 0.608,2.816 0,0.864 -0.224,1.728 -0.192,0.864 -0.928,1.536 -0.512,0.48 -1.248,0.832 -0.736,0.352 -2.144,0.48 1.408,0.672 1.952,1.76 0.576,1.056 0.64,2.112 0.928,0.928 1.44,2.272 0.512,1.344 0.512,2.688 0,3.104 -1.568,4.736 -1.536,1.6 -4,1.6 -2.24,0 -3.392,-1.184 -1.12,-1.216 -1.76,-3.2 -0.416,1.952 -1.664,3.168 -1.248,1.216 -3.136,1.216 z m 0.32,-3.04 q 1.28,0 2.016,-0.48 0.768,-0.48 1.184,-1.312 0.448,-0.864 0.736,-1.952 h 1.088 q 0.48,1.728 1.408,2.752 0.96,0.992 2.88,0.992 1.792,0 2.88,-0.928 1.088,-0.96 1.088,-2.944 0,-0.608 -0.128,-1.216 -0.128,-0.64 -0.416,-1.216 -0.416,1.024 -1.376,1.792 -0.928,0.736 -2.496,0.736 -1.472,0 -2.464,-0.832 -0.96,-0.832 -0.96,-2.208 0,-1.344 0.928,-2.144 0.96,-0.832 2.56,-0.832 1.472,0 2.592,0.544 -0.32,-1.408 -1.76,-2.112 -1.408,-0.736 -3.648,-0.736 h -1.632 q -2.464,0 -4.256,1.088 -1.792,1.088 -2.752,2.88 -0.96,1.76 -0.96,3.84 0,2.048 0.896,3.168 0.928,1.12 2.592,1.12 z m 7.104,-7.104 q 0,1.248 1.824,1.248 1.088,0 1.76,-0.448 0.704,-0.48 0.864,-1.44 -0.448,-0.352 -1.056,-0.544 -0.576,-0.192 -1.344,-0.192 -0.896,0 -1.472,0.32 -0.576,0.288 -0.576,1.056 z"
         style="font-style:normal;font-variant:normal;font-weight:normal;font-stretch:normal;font-size:32px;font-family:Arimo;-inkscape-font-specification:'Arimo, Normal';font-variant-ligatures:normal;font-variant-caps:normal;font-variant-numeric:normal;font-feature-settings:normal;text-align:start;writing-mode:lr-tb;text-anchor:start;stroke-width:0.16666667px"
         id="path862"
         inkscape:connector-curvature="0" />
    </g>
  </g>
</svg>
