<?xml version="1.0" encoding="UTF-8" standalone="no"?>
<!-- Created with Inkscape (http://www.inkscape.org/) -->

<svg
   width="26.36544mm"
   height="19.398281mm"
   viewBox="0 0 26.36544 19.398281"
   version="1.1"
   id="svg55968"
   inkscape:version="1.1.2 (1:1.1+202202050950+0a00cf5339)"
   sodipodi:docname="SINEFIT.svg"
   xmlns:inkscape="http://www.inkscape.org/namespaces/inkscape"
   xmlns:sodipodi="http://sodipodi.sourceforge.net/DTD/sodipodi-0.dtd"
   xmlns:xlink="http://www.w3.org/1999/xlink"
   xmlns="http://www.w3.org/2000/svg"
   xmlns:svg="http://www.w3.org/2000/svg"
   xmlns:rdf="http://www.w3.org/1999/02/22-rdf-syntax-ns#"
   xmlns:cc="http://creativecommons.org/ns#"
   xmlns:dc="http://purl.org/dc/elements/1.1/">
  <sodipodi:namedview
     id="namedview55970"
     pagecolor="#ffffff"
     bordercolor="#666666"
     borderopacity="1.0"
     inkscape:pageshadow="2"
     inkscape:pageopacity="0.0"
     inkscape:pagecheckerboard="0"
     inkscape:document-units="mm"
     showgrid="false"
     fit-margin-top="0"
     fit-margin-left="0"
     fit-margin-right="0"
     fit-margin-bottom="0"
     inkscape:zoom="4.4869201"
     inkscape:cx="21.284087"
     inkscape:cy="14.820857"
     inkscape:window-width="1551"
     inkscape:window-height="752"
     inkscape:window-x="354"
     inkscape:window-y="114"
     inkscape:window-maximized="0"
     inkscape:current-layer="g1028" />
  <defs
     id="defs55965">
    <marker
       style="overflow:visible"
       id="DotS-4-2-9"
       refX="0"
       refY="0"
       orient="auto"
       inkscape:stockid="DotS"
       inkscape:isstock="true">
      <path
         transform="matrix(0.2,0,0,0.2,1.48,0.2)"
         style="fill:context-stroke;fill-rule:evenodd;stroke:context-stroke;stroke-width:1pt"
         d="m -2.5,-1 c 0,2.76 -2.24,5 -5,5 -2.76,0 -5,-2.24 -5,-5 0,-2.76 2.24,-5 5,-5 2.76,0 5,2.24 5,5 z"
         id="path26004-3-5-3" />
    </marker>
    <marker
       style="overflow:visible"
       id="Arrow1Send-0-4-6"
       refX="0"
       refY="0"
       orient="auto"
       inkscape:stockid="Arrow1Send"
       inkscape:isstock="true">
      <path
         transform="matrix(-0.2,0,0,-0.2,-1.2,0)"
         style="fill:context-stroke;fill-rule:evenodd;stroke:context-stroke;stroke-width:1pt"
         d="M 0,0 5,-5 -12.5,0 5,5 Z"
         id="path25952-3-0-8" />
    </marker>
    <marker
       style="overflow:visible"
       id="DotS-4-2"
       refX="0"
       refY="0"
       orient="auto"
       inkscape:stockid="DotS"
       inkscape:isstock="true">
      <path
         transform="matrix(0.2,0,0,0.2,1.48,0.2)"
         style="fill:context-stroke;fill-rule:evenodd;stroke:context-stroke;stroke-width:1pt"
         d="m -2.5,-1 c 0,2.76 -2.24,5 -5,5 -2.76,0 -5,-2.24 -5,-5 0,-2.76 2.24,-5 5,-5 2.76,0 5,2.24 5,5 z"
         id="path26004-3-5" />
    </marker>
    <marker
       style="overflow:visible"
       id="Arrow1Send-0-4"
       refX="0"
       refY="0"
       orient="auto"
       inkscape:stockid="Arrow1Send"
       inkscape:isstock="true">
      <path
         transform="matrix(-0.2,0,0,-0.2,-1.2,0)"
         style="fill:context-stroke;fill-rule:evenodd;stroke:context-stroke;stroke-width:1pt"
         d="M 0,0 5,-5 -12.5,0 5,5 Z"
         id="path25952-3-0" />
    </marker>
    <linearGradient
       inkscape:collect="always"
       xlink:href="#linearGradient17354"
       id="linearGradient18434"
       x1="124.38175"
       y1="416.33481"
       x2="224.38174"
       y2="416.33481"
       gradientUnits="userSpaceOnUse"
       gradientTransform="matrix(0.73317265,0,0,0.9964891,242.8067,-608.69757)" />
    <linearGradient
       inkscape:collect="always"
       id="linearGradient17354">
      <stop
         style="stop-color:#ffff00;stop-opacity:1;"
         offset="0"
         id="stop17350" />
      <stop
         style="stop-color:#800000;stop-opacity:1"
         offset="1"
         id="stop17352" />
    </linearGradient>
    <marker
       style="overflow:visible"
       id="DotS-4"
       refX="0"
       refY="0"
       orient="auto"
       inkscape:stockid="DotS"
       inkscape:isstock="true">
      <path
         transform="matrix(0.2,0,0,0.2,1.48,0.2)"
         style="fill:context-stroke;fill-rule:evenodd;stroke:context-stroke;stroke-width:1pt"
         d="m -2.5,-1 c 0,2.76 -2.24,5 -5,5 -2.76,0 -5,-2.24 -5,-5 0,-2.76 2.24,-5 5,-5 2.76,0 5,2.24 5,5 z"
         id="path26004-3" />
    </marker>
    <marker
       style="overflow:visible"
       id="Arrow1Send-0"
       refX="0"
       refY="0"
       orient="auto"
       inkscape:stockid="Arrow1Send"
       inkscape:isstock="true">
      <path
         transform="matrix(-0.2,0,0,-0.2,-1.2,0)"
         style="fill:context-stroke;fill-rule:evenodd;stroke:context-stroke;stroke-width:1pt"
         d="M 0,0 5,-5 -12.5,0 5,5 Z"
         id="path25952-3" />
    </marker>
  </defs>
  <g
     inkscape:label="Layer 1"
     inkscape:groupmode="layer"
     id="layer1"
     transform="translate(-69.434846,-209.2631)">
    <g
       id="g1028-5-0"
       transform="matrix(0.26458333,0,0,0.26458333,50.060486,131.92169)">
      <g
         id="g1028"
         transform="translate(-70.77407,-41.68601)">
        <rect
           style="fill:url(#linearGradient18434);fill-opacity:1;fill-rule:evenodd;stroke:none;stroke-width:3.41901"
           id="rect18298"
           width="73.316338"
           height="99.648911"
           x="334"
           y="-243.64891"
           transform="rotate(90)"
           ry="10.413457" />
        <text
           font-size="40"
           id="text92-6"
           style="font-size:11.021px;font-family:Helvetica;fill:#000000;stroke:none;stroke-width:0.275525"
           x="148.55775"
           y="345.46457"><tspan
             x="148.55775"
             y="345.46457"
             id="tspan90-4"
             style="stroke-width:0.275525">SINE FIT</tspan></text>
        <text
           font-size="40"
           id="text92-6-8"
           style="font-size:8px;font-family:Helvetica;fill:#000000;stroke:none;stroke-width:0.199161"
           x="148.61885"
           y="355.22861"><tspan
             x="148.61885"
             y="355.22861"
             id="tspan90-4-5"
             style="font-size:8px;stroke-width:0.199161">y=A*sin(2*pi*f*x+phase)</tspan></text>
      </g>
    </g>
  </g>
  <metadata
     id="metadata886">
    <rdf:RDF>
      <cc:Work
         rdf:about="">
        <dc:description>type=ANALYSIS
units=</dc:description>
      </cc:Work>
    </rdf:RDF>
  </metadata>
</svg>
