<?xml version="1.0" encoding="UTF-8" standalone="no"?>
<!-- Created with Inkscape (http://www.inkscape.org/) -->

<svg
   width="33.133904mm"
   height="15.060153mm"
   viewBox="0 0 33.133903 15.060153"
   version="1.1"
   id="svg55968"
   inkscape:version="1.2.2 (1:1.2.2+202212051550+b0a8486541)"
   sodipodi:docname="VARIABLE.svg"
   xmlns:inkscape="http://www.inkscape.org/namespaces/inkscape"
   xmlns:sodipodi="http://sodipodi.sourceforge.net/DTD/sodipodi-0.dtd"
   xmlns:xlink="http://www.w3.org/1999/xlink"
   xmlns="http://www.w3.org/2000/svg"
   xmlns:svg="http://www.w3.org/2000/svg"
   xmlns:rdf="http://www.w3.org/1999/02/22-rdf-syntax-ns#"
   xmlns:cc="http://creativecommons.org/ns#"
   xmlns:dc="http://purl.org/dc/elements/1.1/">
  <sodipodi:namedview
     id="namedview55970"
     pagecolor="#ffffff"
     bordercolor="#666666"
     borderopacity="1.0"
     inkscape:pageshadow="2"
     inkscape:pageopacity="0.0"
     inkscape:pagecheckerboard="0"
     inkscape:document-units="mm"
     showgrid="false"
     fit-margin-top="0"
     fit-margin-left="0"
     fit-margin-right="0"
     fit-margin-bottom="0"
     inkscape:zoom="2.1760175"
     inkscape:cx="45.495958"
     inkscape:cy="21.828869"
     inkscape:window-width="1551"
     inkscape:window-height="800"
     inkscape:window-x="249"
     inkscape:window-y="195"
     inkscape:window-maximized="0"
     inkscape:current-layer="g1028-5-0-2"
     inkscape:showpageshadow="2"
     inkscape:deskcolor="#d1d1d1" />
  <defs
     id="defs55965">
    <marker
       style="overflow:visible"
       id="DotS-4-2-9"
       refX="0"
       refY="0"
       orient="auto"
       inkscape:stockid="DotS"
       inkscape:isstock="true">
      <path
         transform="matrix(0.2,0,0,0.2,1.48,0.2)"
         style="fill:context-stroke;fill-rule:evenodd;stroke:context-stroke;stroke-width:1pt"
         d="m -2.5,-1 c 0,2.76 -2.24,5 -5,5 -2.76,0 -5,-2.24 -5,-5 0,-2.76 2.24,-5 5,-5 2.76,0 5,2.24 5,5 z"
         id="path26004-3-5-3" />
    </marker>
    <marker
       style="overflow:visible"
       id="Arrow1Send-0-4-6"
       refX="0"
       refY="0"
       orient="auto"
       inkscape:stockid="Arrow1Send"
       inkscape:isstock="true">
      <path
         transform="matrix(-0.2,0,0,-0.2,-1.2,0)"
         style="fill:context-stroke;fill-rule:evenodd;stroke:context-stroke;stroke-width:1pt"
         d="M 0,0 5,-5 -12.5,0 5,5 Z"
         id="path25952-3-0-8" />
    </marker>
    <marker
       style="overflow:visible"
       id="DotS-4-2"
       refX="0"
       refY="0"
       orient="auto"
       inkscape:stockid="DotS"
       inkscape:isstock="true">
      <path
         transform="matrix(0.2,0,0,0.2,1.48,0.2)"
         style="fill:context-stroke;fill-rule:evenodd;stroke:context-stroke;stroke-width:1pt"
         d="m -2.5,-1 c 0,2.76 -2.24,5 -5,5 -2.76,0 -5,-2.24 -5,-5 0,-2.76 2.24,-5 5,-5 2.76,0 5,2.24 5,5 z"
         id="path26004-3-5" />
    </marker>
    <marker
       style="overflow:visible"
       id="Arrow1Send-0-4"
       refX="0"
       refY="0"
       orient="auto"
       inkscape:stockid="Arrow1Send"
       inkscape:isstock="true">
      <path
         transform="matrix(-0.2,0,0,-0.2,-1.2,0)"
         style="fill:context-stroke;fill-rule:evenodd;stroke:context-stroke;stroke-width:1pt"
         d="M 0,0 5,-5 -12.5,0 5,5 Z"
         id="path25952-3-0" />
    </marker>
    <marker
       style="overflow:visible"
       id="DotS-4"
       refX="0"
       refY="0"
       orient="auto"
       inkscape:stockid="DotS"
       inkscape:isstock="true">
      <path
         transform="matrix(0.2,0,0,0.2,1.48,0.2)"
         style="fill:context-stroke;fill-rule:evenodd;stroke:context-stroke;stroke-width:1pt"
         d="m -2.5,-1 c 0,2.76 -2.24,5 -5,5 -2.76,0 -5,-2.24 -5,-5 0,-2.76 2.24,-5 5,-5 2.76,0 5,2.24 5,5 z"
         id="path26004-3" />
    </marker>
    <marker
       style="overflow:visible"
       id="Arrow1Send-0"
       refX="0"
       refY="0"
       orient="auto"
       inkscape:stockid="Arrow1Send"
       inkscape:isstock="true">
      <path
         transform="matrix(-0.2,0,0,-0.2,-1.2,0)"
         style="fill:context-stroke;fill-rule:evenodd;stroke:context-stroke;stroke-width:1pt"
         d="M 0,0 5,-5 -12.5,0 5,5 Z"
         id="path25952-3" />
    </marker>
    <linearGradient
       inkscape:collect="always"
       xlink:href="#linearGradient32904"
       id="linearGradient30159"
       gradientUnits="userSpaceOnUse"
       gradientTransform="matrix(0.56920264,0,0,1.252305,306.28131,-727.99343)"
       x1="124.38175"
       y1="416.33481"
       x2="224.38174"
       y2="416.33481" />
    <linearGradient
       inkscape:collect="always"
       id="linearGradient32904">
      <stop
         style="stop-color:#ff53f2;stop-opacity:0.23472999;"
         offset="0"
         id="stop32900" />
      <stop
         style="stop-color:#36bdc4;stop-opacity:0.11581653;"
         offset="1"
         id="stop32902" />
    </linearGradient>
  </defs>
  <g
     inkscape:label="Layer 1"
     inkscape:groupmode="layer"
     id="layer1"
     transform="translate(-71.583194,-221.36721)">
    <g
       id="g1028-5-0"
       transform="matrix(0.26458333,0,0,0.26458333,50.060486,131.92169)">
      <g
         id="g1028-5-0-2"
         transform="translate(-62.65433,-39.017945)">
        <rect
           style="fill:url(#linearGradient30159);fill-opacity:1;fill-rule:evenodd;stroke:#00b0aa;stroke-width:1.13385828;stroke-dasharray:none;stroke-opacity:0.2121442"
           id="rect18298-9-2-8"
           width="56.920265"
           height="125.2305"
           x="377.07974"
           y="-269.2305"
           transform="rotate(90)"
           ry="13.08677">
          <desc
             id="desc1129">w=100
h=20</desc>
        </rect>
      </g>
    </g>
  </g>
  <metadata
     id="metadata887">
    <rdf:RDF>
      <cc:Work
         rdf:about="">
        <dc:description>type=VARIABLE
name=R1</dc:description>
      </cc:Work>
    </rdf:RDF>
  </metadata>
</svg>
