<svg xmlns="http://www.w3.org/2000/svg"
   xmlns:xlink="http://www.w3.org/1999/xlink"
   version="1.1"
   id="light-tranmission" width="100%" height="100%"  viewBox="-6 -6 662 86">
<desc>
XCircuit Version 3.7
File "opto-electric.ps" Page 1
</desc>
<g stroke="black">
<g transform="matrix(   1    0   -0    1  16  64)" fill="#000000" >
<text stroke="none" font-family="Helvetica" font-size="40" ><tspan x="0" y="0">SQ1</tspan>
</text></g>
<g transform="matrix(   1    0   -0    1 240  64)" fill="#000000" >
<text stroke="none" font-family="Helvetica" font-size="40" ><tspan x="0" y="0">GND</tspan>
</text></g>
<path d="M144,14 L176,32 144,50 z" fill="#000000" stroke="none" />
<path d="M112,32 L144,32 " fill="none" stroke-width="2" stroke-linejoin="bevel" stroke-linecap="round" stroke="#000000" />
<path d="M208,32 L176,32 " fill="none" stroke-width="2" stroke-linejoin="bevel" stroke-linecap="round" stroke="#000000" />
<path d="M176,14 L176,50 " fill="none" stroke-width="2" stroke-linejoin="bevel" stroke-linecap="round" stroke="#000000" />
<path d="M0,16 L0,80 112,80 112,16 z" fill="none" stroke-width="2" stroke-linejoin="bevel" stroke-linecap="round" stroke="#000000" />
<path d="M224,16 L224,80 336,80 336,16 z" fill="none" stroke-width="2" stroke-linejoin="bevel" stroke-linecap="round" stroke="#000000" />
<path d="M208,32 L224,32 " fill="none" stroke-width="2" stroke-linejoin="bevel" stroke-linecap="round" stroke="#000000" />
<g transform="matrix(   1    0   -0    1 128  80)" fill="#000000" >
<text stroke="none" font-family="Helvetica" font-size="40" ><tspan x="0" y="0">LED</tspan>
</text></g>
<path d="M448,16 L448,0 " fill="none" stroke-width="2" stroke-linejoin="bevel" stroke-linecap="round" stroke="#000000" />
<path d="M496,16 L400,16 " fill="none" stroke-width="2" stroke-linejoin="bevel" stroke-linecap="round" stroke="#000000" />
<path d="M496,64 L470,16 " fill="none" stroke-width="2" stroke-linejoin="bevel" stroke-linecap="round" stroke="#000000" />
<path d="M496,64 L512,64 " fill="none" stroke-width="2" stroke-linejoin="bevel" stroke-linecap="round" stroke="#000000" />
<path d="M400,64 L426,16 " fill="none" stroke-width="2" stroke-linejoin="bevel" stroke-linecap="round" stroke="#000000" />
<path d="M400,64 L384,64 " fill="none" stroke-width="2" stroke-linejoin="bevel" stroke-linecap="round" stroke="#000000" />
<path d="M407,36 C406,47 405,50 400,64 C410,53 412,50 421,44 C415,42 411,40 407,36 " fill="#000000" stroke="none" />
<path d="M384,64 L336,64 " fill="none" stroke-width="2" stroke-linejoin="bevel" stroke-linecap="round" stroke="#000000" />
<path d="M544,16 L544,80 656,80 656,16 z" fill="none" stroke-width="2" stroke-linejoin="bevel" stroke-linecap="round" stroke="#000000" />
<g transform="matrix(   1    0   -0    1 560  64)" fill="#000000" >
<text stroke="none" font-family="Helvetica" font-size="40" ><tspan x="0" y="0">SEN</tspan>
</text></g>
<path d="M512,64 L544,64 " fill="none" stroke-width="2" stroke-linejoin="bevel" stroke-linecap="round" stroke="#000000" />
</g>
</svg>
