<?xml version="1.0" encoding="UTF-8" standalone="no"?>
<!-- Created with Inkscape (http://www.inkscape.org/) -->

<svg
   xmlns:dc="http://purl.org/dc/elements/1.1/"
   xmlns:cc="http://creativecommons.org/ns#"
   xmlns:rdf="http://www.w3.org/1999/02/22-rdf-syntax-ns#"
   xmlns:svg="http://www.w3.org/2000/svg"
   xmlns="http://www.w3.org/2000/svg"
   xmlns:xlink="http://www.w3.org/1999/xlink"
   xmlns:sodipodi="http://sodipodi.sourceforge.net/DTD/sodipodi-0.dtd"
   xmlns:inkscape="http://www.inkscape.org/namespaces/inkscape"
   width="1018.7751"
   height="1018.923"
   id="svg2"
   version="1.1"
   inkscape:version="0.47 r22583"
   sodipodi:docname="logo.svg"
   inkscape:export-filename="/var/www/docs/phoenix/logo10-1.svg.png"
   inkscape:export-xdpi="28.269243"
   inkscape:export-ydpi="28.269243">
  <defs
     id="defs4">
    <linearGradient
       id="linearGradient3919">
      <stop
         style="stop-color:#96cbe1;stop-opacity:1;"
         offset="0"
         id="stop3921" />
      <stop
         id="stop3929"
         offset="0.93442625"
         style="stop-color:#61a4c0;stop-opacity:1;" />
      <stop
         style="stop-color:#2d7e9f;stop-opacity:1;"
         offset="1"
         id="stop3923" />
    </linearGradient>
    <inkscape:perspective
       sodipodi:type="inkscape:persp3d"
       inkscape:vp_x="0 : 526.18109 : 1"
       inkscape:vp_y="0 : 1000 : 0"
       inkscape:vp_z="744.09448 : 526.18109 : 1"
       inkscape:persp3d-origin="372.04724 : 350.78739 : 1"
       id="perspective10" />
    <inkscape:perspective
       id="perspective2944"
       inkscape:persp3d-origin="0.5 : 0.33333333 : 1"
       inkscape:vp_z="1 : 0.5 : 1"
       inkscape:vp_y="0 : 1000 : 0"
       inkscape:vp_x="0 : 0.5 : 1"
       sodipodi:type="inkscape:persp3d" />
    <inkscape:perspective
       id="perspective3000"
       inkscape:persp3d-origin="0.5 : 0.33333333 : 1"
       inkscape:vp_z="1 : 0.5 : 1"
       inkscape:vp_y="0 : 1000 : 0"
       inkscape:vp_x="0 : 0.5 : 1"
       sodipodi:type="inkscape:persp3d" />
    <inkscape:perspective
       id="perspective3025"
       inkscape:persp3d-origin="0.5 : 0.33333333 : 1"
       inkscape:vp_z="1 : 0.5 : 1"
       inkscape:vp_y="0 : 1000 : 0"
       inkscape:vp_x="0 : 0.5 : 1"
       sodipodi:type="inkscape:persp3d" />
    <inkscape:perspective
       id="perspective3048"
       inkscape:persp3d-origin="0.5 : 0.33333333 : 1"
       inkscape:vp_z="1 : 0.5 : 1"
       inkscape:vp_y="0 : 1000 : 0"
       inkscape:vp_x="0 : 0.5 : 1"
       sodipodi:type="inkscape:persp3d" />
    <inkscape:perspective
       id="perspective3070"
       inkscape:persp3d-origin="0.5 : 0.33333333 : 1"
       inkscape:vp_z="1 : 0.5 : 1"
       inkscape:vp_y="0 : 1000 : 0"
       inkscape:vp_x="0 : 0.5 : 1"
       sodipodi:type="inkscape:persp3d" />
    <filter
       inkscape:collect="always"
       id="filter3897"
       x="-0.082665171"
       width="1.1653303"
       y="-0.21530652"
       height="1.430613">
      <feGaussianBlur
         inkscape:collect="always"
         stdDeviation="24.221841"
         id="feGaussianBlur3899" />
    </filter>
    <filter
       inkscape:collect="always"
       id="filter3901"
       x="-0.13256418"
       width="1.2651284"
       y="-0.30380194"
       height="1.6076039">
      <feGaussianBlur
         inkscape:collect="always"
         stdDeviation="24.221841"
         id="feGaussianBlur3903" />
    </filter>
    <filter
       inkscape:collect="always"
       id="filter3905"
       x="-0.25604931"
       width="1.5120986"
       y="-0.49341003"
       height="1.9868201">
      <feGaussianBlur
         inkscape:collect="always"
         stdDeviation="24.221841"
         id="feGaussianBlur3907" />
    </filter>
    <filter
       inkscape:collect="always"
       id="filter3909"
       x="-0.093455691"
       width="1.1869114"
       y="-0.237512"
       height="1.475024">
      <feGaussianBlur
         inkscape:collect="always"
         stdDeviation="24.221841"
         id="feGaussianBlur3911" />
    </filter>
    <radialGradient
       inkscape:collect="always"
       xlink:href="#linearGradient3919"
       id="radialGradient3925"
       cx="377.04283"
       cy="541.70502"
       fx="377.04283"
       fy="541.70502"
       r="509.38752"
       gradientTransform="matrix(1, 0, 0, 1.00015, 0, -0.0786646)"
       gradientUnits="userSpaceOnUse" />
  </defs>
  <sodipodi:namedview
     id="base"
     pagecolor="#ffffff"
     bordercolor="#666666"
     borderopacity="1.0"
     inkscape:pageopacity="0.0"
     inkscape:pageshadow="2"
     inkscape:zoom="0.35"
     inkscape:cx="210.78861"
     inkscape:cy="477.44449"
     inkscape:document-units="px"
     inkscape:current-layer="layer1"
     showgrid="false"
     inkscape:window-width="1142"
     inkscape:window-height="874"
     inkscape:window-x="373"
     inkscape:window-y="32"
     inkscape:window-maximized="0" />
  <metadata
     id="metadata7">
    <rdf:RDF>
      <cc:Work
         rdf:about="">
        <dc:format>image/svg+xml</dc:format>
        <dc:type
           rdf:resource="http://purl.org/dc/dcmitype/StillImage" />
        <dc:title />
      </cc:Work>
    </rdf:RDF>
  </metadata>
  <g
     inkscape:label="Calque 1"
     inkscape:groupmode="layer"
     id="layer1"
     transform="translate(134.386, -28.4963)">
    <path
       id="path2960-0"
       d="m 332.54103,1050.2149 c -41.37651,-4.1037 -76.28554,-11.2214 -112.5,-22.9379 C 38.968243,968.69418 -94.671257,813.794 -125.87966,626.32367 c -4.6661,-28.02936 -5.7479,-41.01945 -6.2877,-75.5 -0.4033,-25.76467 -0.1559,-37.16579 1.1283,-52 10.5333,-121.66953 61.903003,-232.02054 148.039403,-318.01409 77.4907,-77.36231 175.938087,-126.967865 284.540687,-143.374125 46.93981,-7.09105 105.93133,-6.90678 154,0.48105 92.41833,14.20408 176.81184,52.628171 251.00004,114.279535 15.1527,12.59213 47.9336,45.4441 60.9491,61.08139 69.3632,83.33509 109.1072,180.11143 118.1026,287.5784 1.6391,19.58259 0.7241,81.63418 -1.4593,98.96784 -8.1247,64.4976 -24.3299,118.33727 -52.0715,173 -25.3966,50.04199 -53.9162,89.04341 -95.4574,130.54081 -43.37,43.3244 -91.6683,77.1027 -145.38954,101.68082 -55.44172,25.3653 -109.00871,39.5297 -171.174,45.2623 -12.93047,1.1924 -75.20786,1.1264 -87.5,-0.093 l 0,3e-4 z"
       style="fill:url(#radialGradient3925);fill-opacity:1"
       sodipodi:nodetypes="cssssssssssssssscc" />
    <g
       id="g2840"
       transform="matrix(1.1504804,0,0,1.1504804,-101.74504,87.967194)">
      <g
         transform="translate(1214.29,154.286)"
         id="g3913">
        <path
           id="path2958-6"
           d="m -621.15696,351.81795 c -7.696,-1.97596 -16.0375,-5.04835 -20.5,-7.55075 -8.5088,-4.77142 -24.5186,-15.74087 -36,-24.66615 -6.325,-4.91686 -13.3,-10.32719 -15.5,-12.02294 -2.2,-1.69576 -4.225,-3.35343 -4.5,-3.68372 -0.275,-0.3303 -3.875,-3.38012 -8,-6.77739 -10.4969,-8.6451 -14.7675,-12.2334 -17.9971,-15.12208 -1.5372,-1.375 -4.9263,-4.3 -7.5311,-6.5 -2.6049,-2.2 -6.17546,-5.35 -7.93461,-7 -1.75915,-1.65 -5.5849,-5.025 -8.50168,-7.5 -2.91677,-2.475 -6.75786,-5.85 -8.53575,-7.5 -1.77789,-1.65 -5.56189,-5.025 -8.4089,-7.5 -2.84701,-2.475 -6.43593,-5.625 -7.97538,-7 -1.53945,-1.375 -4.94948,-4.3 -7.57784,-6.5 -2.62836,-2.2 -5.67273,-4.83567 -6.76526,-5.85704 -4.85653,-4.54022 -18.01943,-14.70633 -24.34891,-18.80542 -3.80788,-2.46606 -13.89843,-9.597 -22.42343,-15.84654 -40.20754,-29.4755 -69.37841,-47.07567 -101.32408,-61.13361 -14.04993,-6.18279 -37.85421,-13.76389 -48.04261,-15.30044 -2.12668,-0.32073 -4.22798,-0.80644 -4.66955,-1.07935 -0.44159,-0.27291 -3.42659,-0.75647 -6.63329,-1.07457 -3.2068,-0.31811 -7.18045,-0.75631 -8.83045,-0.97378 -1.65,-0.21746 -5.25,-0.64561 -8,-0.95144 -2.75,-0.30583 -6.8,-0.75782 -9,-1.00443 -8.1309,-0.91143 -24.4418,-2.30233 -35.5,-3.02725 -4.125,-0.27041 -29.1,-0.71834 -55.5,-0.9954 -26.4,-0.27706 -56.3644,-0.61895 -66.5876,-0.75974 l -18.5874,-0.256 -9.0597,-5.967489 c -15.8044,-10.41027 -22.2232,-14.9456 -22.2446,-15.7175 -0.018,-0.66267 214.4554,-1.57242 230.97925,-0.97977 19.91587,0.71432 40.20813,2.32186 60.00003,4.75315 2.475,0.30404 6.3,0.76337 8.5,1.02074 2.2,0.25737 5.125,0.66749 6.5,0.91137 2.83538,0.50291 12.99549,2.18798 17.5,2.90241 1.65,0.26169 6.15,1.15085 10,1.9759 3.85,0.82506 8.35,1.72265 10,1.99465 10.93405,1.80247 41.52516,10.247389 61,16.839539 32.65753,11.05442 64.98015,26.45325 91.02726,43.36632 1.665,1.08113 20.34,14.54416 41.5,29.91784 21.16,15.37369 66.3727,48.17113 100.4727,72.8832 34.1,24.71207 62.9862,45.8836 64.1914,47.04785 3.0523,2.94839 3.3523,2.6189 -15.6914,17.23455 -8.2016,6.29464 -21.791,14.49179 -31.3351,18.90144 -16.6687,7.70141 -38.2039,11.8613 -48.1649,9.30384 z"
           style="opacity:0.79919679;fill:#000000;fill-opacity:1;filter:url(#filter3897)"
           sodipodi:nodetypes="cssssssssssssssssssssssssscccsssssssssssssssc" />
        <path
           id="path2952-9"
           d="m -845.33709,474.55131 c -20.76154,-3.74492 -36.41193,-13.73702 -62.53095,-39.9233 -9.64202,-9.66685 -22.45876,-22.97609 -28.48163,-29.57609 -13.35115,-14.63047 -15.35289,-16.5928 -27.98742,-27.43632 -42.78691,-36.72168 -83.55401,-58.66197 -120.84511,-65.0372 -12.0329,-2.05712 -47.3982,-4.00954 -72.8268,-4.02056 l -13.672,-0.006 -17.913,-11.2924 c -14.8294,-9.34848 -17.6771,-11.51273 -16.5428,-12.57232 1.0028,-0.93673 3.7068,-1.12385 10.0849,-0.69786 4.7931,0.32012 38.4148,1.04924 74.7148,1.62025 72.1367,1.13474 77.0757,1.51587 101.6052,7.84053 32.98575,8.50502 72.5161,24.54859 96.61214,39.21047 19.27191,11.72659 155.28267,109.66509 155.28267,111.81588 0,1.19284 -5.14582,5.62319 -13.5,11.62295 -9.19418,6.60302 -25.25425,14.58412 -34,16.89637 -7.36943,1.94838 -23.25563,2.77213 -30,1.5556 z"
           style="opacity:0.79919679;fill:#000000;fill-opacity:1;filter:url(#filter3901)"
           sodipodi:nodetypes="csssscccssssssssc" />
        <path
           id="path2954-2-1"
           d="m -523.47016,282.54624 c -3.5668,-2.44268 -18.185,-12.91489 -32.485,-23.27158 -14.3,-10.35668 -32.2007,-23.31746 -39.7794,-28.80171 -15.9436,-11.5375 -19.0123,-14.80502 -25.2546,-26.89122 -4.292,-8.31023 -12.466,-30.93271 -12.466,-34.50131 0,-0.96629 3.5088,1.75978 8.75,6.79813 13.1948,12.68405 24.8915,21.11121 36.7533,26.47967 6.6998,3.03225 11.2835,3.37644 28.4967,2.13981 19.8052,-1.42283 79.4187,-1.97928 83.8621,-0.78279 5.2523,1.41429 7.1419,4.2908 7.6879,11.70335 0.2363,3.20858 0.6864,7.03232 1.0003,8.49721 1.1163,5.21058 -6.6026,4.34424 -9.4981,-1.06602 -1.358,-2.53742 -8.8897,-6.09741 -12.9,-6.09741 -4.7329,0 -9.2688,2.2299 -12.8632,6.32371 -3.0894,3.51863 -5.5352,9.61774 -4.8125,12.00089 0.1961,0.64647 0.6305,2.42425 0.9654,3.95061 0.9461,4.31213 7.1757,10.54474 11.7785,11.78413 8.1069,2.18295 15.1931,-1.00181 20.328,-9.13594 3.0536,-4.83725 7.4567,-5.83363 24.368,-5.51426 14.8508,0.28046 20.6948,1.99711 30.4172,8.93487 9.0025,6.42402 12.0184,11.1929 12.5031,19.77043 0.5775,10.22182 0.3174,10.4969 -6.6173,6.99631 -9.8393,-4.96687 -16.1101,-6.33191 -26.4969,-5.76791 -20.1575,1.09455 -38.0227,5.95748 -54.6832,14.8849 -7.8925,4.22915 -10.5471,5.14719 -16.0151,5.53842 -6.4271,0.45985 -6.6802,0.38274 -13.0392,-3.97229 z"
           style="opacity:0.79919679;fill:#000000;fill-opacity:1;filter:url(#filter3905)"
           sodipodi:nodetypes="cssssssssssssssssssssssssc" />
        <path
           style="opacity:0.79919679;fill:#000000;fill-opacity:1;fill-rule:nonzero;stroke:none;filter:url(#filter3909)"
           d="m -1103.4014,178.82446 c -60.3721,0.15195 -136.0938,1.05079 -136.0938,2.0625 0,0.37215 3.7126,2.57678 8.25,4.90625 4.5375,2.32947 12.4078,6.41579 17.5,9.0625 5.0923,2.6467 9.4092,4.65329 9.5938,4.46875 0.4819,-0.48195 80.3264,-0.20804 91.6563,0.3125 13.0337,0.59882 14.6889,0.8061 29.5,3.875 32.0308,6.63688 70.9529,23.60273 115.2812,50.25 26.31675,15.81991 65.61734,43.0767 75.96875,52.6875 1.94153,1.80262 5.06029,4.56513 6.9375,6.15625 3.52028,2.98378 8.48988,7.31567 15.40625,13.40625 2.186,1.925 5.46758,4.77237 7.3125,6.34375 1.84491,1.57138 4.99779,4.38388 7,6.25 2.00221,1.86612 3.98084,3.40287 4.375,3.40625 0.39417,0.003 3.19375,2.30124 6.21875,5.09375 3.025,2.79251 6.01166,5.38338 6.65625,5.75 0.64459,0.36661 3.11959,2.32249 5.5,4.375 2.38041,2.0525 10.16928,8.3002 17.3125,13.875 28.87514,22.53506 48.50365,35.63254 66.03125,44.0625 8.12438,3.90746 21.27309,8.09289 22.68749,7.21875 0.4269,-0.26384 1.5644,-0.0284 2.5313,0.53125 1.726,0.9991 15.777,0.79174 25.625,-0.375 7.7605,-0.91943 27.9099,-8.08465 39.7187,-14.125 11.9715,-6.12359 19.9552,-11.20885 33.1875,-21.1875 6.9876,-5.26947 8.5091,-6.87151 7.5,-7.84375 -0.6963,-0.67081 -24.875,-14.01448 -53.75,-29.65625 -93.1442,-50.45683 -158.54447,-87.02301 -177.99999,-99.53125 -28.31283,-18.20275 -79.17961,-43.06359 -107,-52.28125 -3.025,-1.00227 -9.55,-3.2212 -14.5,-4.9375 -10.64947,-3.69247 -36.89995,-10.53432 -43.99995,-11.46875 -2.75,-0.36193 -6.575,-0.86295 -8.5,-1.125 -1.925,-0.26205 -5.3,-0.67673 -7.5,-0.90625 -5.4672,-0.57036 -36.183,-0.74742 -72.4063,-0.65625 z"
           id="rect2985-4"
           sodipodi:nodetypes="csssssssssssssssssssssssssssssssc" />
      </g>
      <path
         sodipodi:nodetypes="cssssssssssssssssssssssssscccsssssssssssssssc"
         style="fill:#f39e37"
         d="m 623.89446,497.27107 c -7.69606,-1.97596 -16.03749,-5.04835 -20.5,-7.55075 -8.50881,-4.77142 -24.51863,-15.74087 -36,-24.66615 -6.325,-4.91686 -13.3,-10.32719 -15.5,-12.02294 -2.2,-1.69576 -4.225,-3.35343 -4.5,-3.68372 -0.275,-0.3303 -3.875,-3.38012 -8,-6.77739 -10.49698,-8.6451 -14.76749,-12.2334 -17.99709,-15.12208 -1.53728,-1.375 -4.92631,-4.3 -7.53118,-6.5 -2.60487,-2.2 -6.17543,-5.35 -7.93458,-7 -1.75915,-1.65 -5.5849,-5.025 -8.50168,-7.5 -2.91677,-2.475 -6.75786,-5.85 -8.53575,-7.5 -1.77789,-1.65 -5.56189,-5.025 -8.4089,-7.5 -2.84701,-2.475 -6.43593,-5.625 -7.97538,-7 -1.53945,-1.375 -4.94948,-4.3 -7.57784,-6.5 -2.62836,-2.2 -5.67273,-4.83567 -6.76526,-5.85704 -4.85653,-4.54022 -18.01943,-14.70633 -24.34891,-18.80542 -3.80788,-2.46606 -13.89843,-9.597 -22.42343,-15.84654 -40.20754,-29.4755 -69.37841,-47.07567 -101.32408,-61.13361 -14.04993,-6.18279 -37.85421,-13.76389 -48.04261,-15.30044 -2.12668,-0.32073 -4.22798,-0.80644 -4.66955,-1.07935 -0.44159,-0.27291 -3.42659,-0.75647 -6.63329,-1.07457 -3.2068,-0.31811 -7.1805,-0.75631 -8.8305,-0.97378 -1.65,-0.21746 -5.25,-0.64561 -8,-0.95144 -2.75,-0.30583 -6.8,-0.75782 -9,-1.00443 -8.1309,-0.91143 -24.4418,-2.30233 -35.5,-3.02725 -4.125,-0.27041 -29.1,-0.71834 -55.5,-0.9954 -26.4,-0.27706 -56.364305,-0.61895 -66.587505,-0.75974 l -18.5874,-0.256 -9.0597,-5.96749 c -15.8044,-10.41027 -22.2232,-14.9456 -22.2446,-15.7175 -0.018,-0.66267 214.455305,-1.57242 230.979205,-0.97977 19.91587,0.71432 40.20813,2.32186 60.00003,4.75315 2.475,0.30404 6.3,0.76337 8.5,1.02074 2.2,0.25737 5.125,0.66749 6.5,0.91137 2.83538,0.50291 12.99549,2.18798 17.5,2.90241 1.65,0.26169 6.15,1.15085 10,1.9759 3.85,0.82506 8.35,1.72265 10,1.99465 10.93405,1.80247 41.52516,10.24739 61,16.83954 32.65753,11.05442 64.98015,26.45325 91.02728,43.36632 1.665,1.08113 20.34,14.54416 41.5,29.91784 21.15999,15.37369 66.37272,48.17113 100.47272,72.8832 34.1,24.71207 62.98612,45.8836 64.19137,47.04785 3.05225,2.94839 3.35225,2.6189 -15.69137,17.23455 -8.20166,6.29464 -21.79106,14.49179 -31.33515,18.90144 -16.66871,7.70141 -38.20392,11.8613 -48.16485,9.30384 z"
         id="path2958" />
      <path
         sodipodi:nodetypes="csssscccssssssssc"
         style="fill:#6b8c45"
         d="m 399.71429,620.00443 c -20.76154,-3.74492 -36.41193,-13.73702 -62.53095,-39.9233 -9.64202,-9.66685 -22.45876,-22.97609 -28.48163,-29.57609 -13.35115,-14.63047 -15.35289,-16.5928 -27.98742,-27.43632 -42.78693,-36.72168 -83.55401,-58.66197 -120.84512,-65.0372 -12.03288,-2.05712 -47.39824,-4.00954 -72.826831,-4.02056 l -13.67195,-0.006 -17.913,-11.2924 c -14.82937,-9.34848 -17.67713,-11.51273 -16.54283,-12.57232 1.00277,-0.93673 3.70686,-1.12385 10.08494,-0.69786 4.79313,0.32012 38.41479,1.04924 74.714791,1.62025 72.13667,1.13474 77.07571,1.51587 101.60517,7.84053 32.98577,8.50502 72.51612,24.54859 96.61216,39.21047 19.27191,11.72659 155.28267,109.66509 155.28267,111.81588 0,1.19284 -5.14582,5.62319 -13.5,11.62295 -9.19418,6.60302 -25.25425,14.58412 -34,16.89637 -7.36943,1.94838 -23.25563,2.77213 -30,1.5556 z"
         id="path2952" />
      <path
         sodipodi:nodetypes="cssssssssssssssssssssssssc"
         style="fill:#7e29fd"
         d="m 721.58124,427.99936 c -3.5668,-2.44268 -18.185,-12.91489 -32.485,-23.27158 -14.3,-10.35668 -32.2007,-23.31746 -39.7794,-28.80171 -15.9436,-11.5375 -19.0123,-14.80502 -25.2546,-26.89122 -4.292,-8.31023 -12.466,-30.93271 -12.466,-34.50131 0,-0.96629 3.5088,1.75978 8.75,6.79813 13.1948,12.68405 24.8915,21.11121 36.7533,26.47967 6.6998,3.03225 11.2835,3.37644 28.4967,2.13981 19.8052,-1.42283 79.4187,-1.97928 83.8621,-0.78279 5.2523,1.41429 7.1419,4.2908 7.6879,11.70335 0.2363,3.20858 0.6864,7.03232 1.0003,8.49721 1.1163,5.21058 -6.6026,4.34424 -9.4981,-1.06602 -1.358,-2.53742 -8.8897,-6.09741 -12.9,-6.09741 -4.7329,0 -9.2688,2.2299 -12.8632,6.32371 -3.0894,3.51863 -5.5352,9.61774 -4.8125,12.00089 0.1961,0.64647 0.6305,2.42425 0.9654,3.95061 0.9461,4.31213 7.1757,10.54474 11.7785,11.78413 8.1069,2.18295 15.1931,-1.00181 20.328,-9.13594 3.0536,-4.83725 7.4567,-5.83363 24.368,-5.51426 14.8508,0.28046 20.6948,1.99711 30.4172,8.93487 9.0025,6.42402 12.0184,11.1929 12.5031,19.77043 0.5775,10.22182 0.3174,10.4969 -6.6173,6.99631 -9.8393,-4.96687 -16.1101,-6.33191 -26.4969,-5.76791 -20.1575,1.09455 -38.0227,5.95748 -54.6832,14.8849 -7.8925,4.22915 -10.5471,5.14719 -16.0151,5.53842 -6.4271,0.45985 -6.6802,0.38274 -13.0392,-3.97229 z"
         id="path2954-2" />
      <path
         sodipodi:nodetypes="csssssssssssssssssssssssssssssssc"
         id="rect2985"
         d="m 141.64998,324.27758 c -60.372126,0.15195 -136.0937957,1.05079 -136.0937957,2.0625 0,0.37215 3.7126,2.57678 8.2499997,4.90625 4.5375,2.32947 12.4078,6.41579 17.5,9.0625 5.0923,2.6467 9.4092,4.65329 9.5938,4.46875 0.4819,-0.48195 80.326346,-0.20804 91.656246,0.3125 13.0337,0.59882 14.6889,0.8061 29.5,3.875 32.03081,6.63688 70.95299,23.60273 115.28125,50.25 26.31675,15.81991 65.61734,43.0767 75.96875,52.6875 1.94153,1.80262 5.06029,4.56513 6.9375,6.15625 3.52028,2.98378 8.48988,7.31567 15.40625,13.40625 2.186,1.925 5.46758,4.77237 7.3125,6.34375 1.84491,1.57138 4.99779,4.38388 7,6.25 2.00221,1.86612 3.98084,3.40287 4.375,3.40625 0.39417,0.003 3.19375,2.30124 6.21875,5.09375 3.025,2.79251 6.01166,5.38338 6.65625,5.75 0.64459,0.36661 3.11959,2.32249 5.5,4.375 2.38041,2.0525 10.16928,8.3002 17.3125,13.875 28.87514,22.53506 48.50365,35.63254 66.03125,44.0625 8.12438,3.90746 21.27311,8.09289 22.6875,7.21875 0.4269,-0.26384 1.56439,-0.0284 2.53125,0.53125 1.72604,0.9991 15.777,0.79174 25.625,-0.375 7.76052,-0.91943 27.90996,-8.08465 39.71875,-14.125 11.97153,-6.12359 19.95524,-11.20885 33.1875,-21.1875 6.98762,-5.26947 8.50913,-6.87151 7.5,-7.84375 -0.69628,-0.67081 -24.875,-14.01448 -53.75,-29.65625 -93.14421,-50.45683 -158.54448,-87.02301 -178,-99.53125 -28.31283,-18.20275 -79.17961,-43.06359 -107,-52.28125 -3.025,-1.00227 -9.55,-3.2212 -14.5,-4.9375 -10.64947,-3.69247 -36.89997,-10.53432 -44,-11.46875 -2.75,-0.36193 -6.575,-0.86295 -8.5,-1.125 -1.925,-0.26205 -5.3,-0.67673 -7.5,-0.90625 -5.46712,-0.57036 -36.18297,-0.74742 -72.40625,-0.65625 z"
         style="fill:#000000;fill-opacity:1;fill-rule:nonzero;stroke:none" />
    </g>
  </g>
</svg>
