<?xml version="1.0" encoding="iso-8859-1"?>
<!-- Generator: Adobe Illustrator 19.0.0, SVG Export Plug-In . SVG Version: 6.00 Build 0)  -->
<svg version="1.1" id="Layer_1" xmlns="http://www.w3.org/2000/svg" xmlns:xlink="http://www.w3.org/1999/xlink" x="0px" y="0px"
	 viewBox="0 0 484.8 484.8" style="enable-background:new 0 0 484.8 484.8;" xml:space="preserve">
<circle style="fill:#0D9B79;" cx="242.4" cy="242.4" r="242.4"/>
<path style="fill:#056B5C;" d="M0,242.4C0,376,108,484,242.4,484C376,484,484,376,484,242.4"/>
<polygon style="fill:#EBFFF6;" points="394.4,202.4 282.4,202.4 282.4,90.4 202.4,90.4 202.4,202.4 90.4,202.4 90.4,282.4 
	202.4,282.4 202.4,394.4 282.4,394.4 282.4,282.4 394.4,282.4 "/>
<polygon style="fill:#D6EAE0;" points="282.4,200.8 200.8,282.4 202.4,282.4 202.4,394.4 282.4,394.4 282.4,282.4 394.4,282.4 
	394.4,202.4 282.4,202.4 "/>
<g>
</g>
<g>
</g>
<g>
</g>
<g>
</g>
<g>
</g>
<g>
</g>
<g>
</g>
<g>
</g>
<g>
</g>
<g>
</g>
<g>
</g>
<g>
</g>
<g>
</g>
<g>
</g>
<g>
</g>
</svg>
