<?xml version="1.0" encoding="iso-8859-1"?>
<svg version="1.1" id="Layer_1" xmlns="http://www.w3.org/2000/svg" xmlns:xlink="http://www.w3.org/1999/xlink" x="0px" y="0px"
	 viewBox="0 0 329.795 329.795" style="enable-background:new 0 0 329.795 329.795;" xml:space="preserve">
<g>
	<circle style="fill:#FF9392;" cx="164.897" cy="138.295" r="130.795"/>
	<path style="fill:#C7E9F4;" d="M164.897,269.089c-51.27,0-95.642-29.504-117.085-72.455v94.661h234.169v-94.661
		C260.539,239.585,216.167,269.089,164.897,269.089z"/>
	<circle style="fill:#FFFFFF;" cx="164.897" cy="138.295" r="101"/>
	<circle style="fill:#F59D00;" cx="164.897" cy="138.295" r="16.381"/>
	<path style="fill:#51B3DA;" d="M271.982,322.295H57.813c-5.523,0-10-4.477-10-10v-21h234.169v21
		C281.982,317.818,277.505,322.295,271.982,322.295z"/>
	<g>
		<path style="fill:#13829B;" d="M303.192,138.295C303.192,62.039,241.153,0,164.897,0S26.603,62.039,26.603,138.295
			c0,21.488,4.927,41.847,13.71,60.007c0,11.499,0,99.836,0,113.993c0,9.649,7.851,17.5,17.5,17.5h214.17
			c9.649,0,17.5-7.851,17.5-17.5c0-14.157,0-102.494,0-113.993C298.265,180.142,303.192,159.783,303.192,138.295z M274.482,222.66
			v61.135H55.313V222.66c26.153,33.942,66.503,53.929,109.585,53.929C207.897,276.589,248.277,256.667,274.482,222.66z M164.897,15
			c67.985,0,123.295,55.31,123.295,123.295c0,68.085-55.422,123.294-123.295,123.294c-67.805,0-123.294-55.143-123.294-123.294
			C41.603,70.31,96.912,15,164.897,15z M274.482,312.295c0,1.379-1.121,2.5-2.5,2.5H57.813c-1.378,0-2.5-1.121-2.5-2.5v-13.5h219.17
			V312.295z"/>
		<path style="fill:#13829B;" d="M164.897,162.176c10.548,0,19.515-6.877,22.668-16.381h18.332c4.143,0,7.5-3.357,7.5-7.5
			c0-4.143-3.357-7.5-7.5-7.5h-18.332c-2.37-7.144-8.024-12.798-15.168-15.168V81.816c0-4.143-3.357-7.5-7.5-7.5
			c-4.142,0-7.5,3.357-7.5,7.5v33.811c-9.504,3.153-16.381,12.119-16.381,22.668C141.016,151.463,151.729,162.176,164.897,162.176z
			 M164.897,129.414c4.896,0,8.881,3.984,8.881,8.881c0,4.896-3.984,8.881-8.881,8.881c-4.897,0-8.881-3.984-8.881-8.881
			C156.016,133.398,160,129.414,164.897,129.414z"/>
		<path style="fill:#13829B;" d="M164.897,246.795c59.46,0,108.5-48.244,108.5-108.5c0-59.827-48.696-108.5-108.5-108.5
			c-59.826,0-108.5,48.695-108.5,108.5C56.397,198.121,105.093,246.795,164.897,246.795z M85.024,130.795H71.699
			c1.607-20.153,9.634-38.523,22.027-53.065l9.39,9.39c2.93,2.929,7.677,2.928,10.606,0c2.929-2.93,2.929-7.678,0-10.607
			l-9.389-9.389c14.542-12.393,32.912-20.42,53.065-22.027v13.326c0,4.143,3.358,7.5,7.5,7.5c4.143,0,7.5-3.357,7.5-7.5V45.096
			c20.153,1.607,38.522,9.634,53.064,22.027l-9.389,9.389c-2.929,2.93-2.929,7.678,0,10.607c2.931,2.929,7.678,2.928,10.607,0
			l9.389-9.389c12.393,14.542,20.42,32.912,22.027,53.064H244.77c-4.143,0-7.5,3.357-7.5,7.5c0,4.143,3.357,7.5,7.5,7.5h13.326
			c-1.607,20.153-9.634,38.522-22.027,53.064l-9.389-9.389c-2.93-2.928-7.678-2.928-10.607,0c-2.929,2.93-2.929,7.678,0,10.607
			l9.389,9.389c-14.542,12.393-32.912,20.42-53.064,22.027v-13.326c0-4.143-3.357-7.5-7.5-7.5c-4.142,0-7.5,3.357-7.5,7.5v13.326
			c-20.153-1.607-38.523-9.634-53.065-22.027l9.389-9.389c2.929-2.93,2.929-7.678,0-10.607c-2.929-2.928-7.678-2.928-10.606,0
			l-9.39,9.39c-12.393-14.542-20.42-32.912-22.027-53.064h13.326c4.142,0,7.5-3.357,7.5-7.5
			C92.524,134.152,89.166,130.795,85.024,130.795z"/>
		<circle style="fill:#13829B;" cx="258.614" cy="267.927" r="9.368"/>
	</g>
</g>
<g>
</g>
<g>
</g>
<g>
</g>
<g>
</g>
<g>
</g>
<g>
</g>
<g>
</g>
<g>
</g>
<g>
</g>
<g>
</g>
<g>
</g>
<g>
</g>
<g>
</g>
<g>
</g>
<g>
</g>
</svg>
