<?xml version="1.0" encoding="UTF-8" standalone="no"?>
<!-- Created with Inkscape (http://www.inkscape.org/) -->

<svg
   version="1.2"
   width="100"
   height="100"
   id="svg2"
   sodipodi:docname="stepper_motor.svg"
   inkscape:version="1.1.2 (0a00cf5339, 2022-02-04)"
   inkscape:export-filename="/home/jithin/AndroidStudioProjects/kuttypyplus_mp/app/src/main/assets/blockly/media/stepper_motor_shaft.png"
   inkscape:export-xdpi="96"
   inkscape:export-ydpi="96"
   xmlns:inkscape="http://www.inkscape.org/namespaces/inkscape"
   xmlns:sodipodi="http://sodipodi.sourceforge.net/DTD/sodipodi-0.dtd"
   xmlns="http://www.w3.org/2000/svg"
   xmlns:svg="http://www.w3.org/2000/svg">
  <sodipodi:namedview
     id="namedview48"
     pagecolor="#ffffff"
     bordercolor="#666666"
     borderopacity="1.0"
     inkscape:pageshadow="2"
     inkscape:pageopacity="0.0"
     inkscape:pagecheckerboard="0"
     showgrid="false"
     inkscape:zoom="5.6916783"
     inkscape:cx="54.201939"
     inkscape:cy="45.944269"
     inkscape:window-width="1866"
     inkscape:window-height="1016"
     inkscape:window-x="54"
     inkscape:window-y="27"
     inkscape:window-maximized="1"
     inkscape:current-layer="svg2" />
  <defs
     id="defs4">
    <marker
       refX="0"
       refY="0"
       orient="auto"
       id="Arrow2Lstart"
       style="overflow:visible">
      <path
         d="M 8.7185878,4.0337352 -2.2072895,0.01601326 8.7185884,-4.0017078 c -1.7454984,2.3720609 -1.7354408,5.6174519 -6e-7,8.035443 z"
         transform="matrix(1.1,0,0,1.1,1.1,0)"
         id="path3740"
         style="font-size:12px;fill-rule:evenodd;stroke-width:0.625;stroke-linejoin:round" />
    </marker>
    <marker
       refX="0"
       refY="0"
       orient="auto"
       id="Arrow1Lend"
       style="overflow:visible">
      <path
         d="M 0,0 5,-5 -12.5,0 5,5 Z"
         transform="matrix(-0.8,0,0,-0.8,-10,0)"
         id="path3725"
         style="fill-rule:evenodd;stroke:#000000;stroke-width:1pt;marker-start:none" />
    </marker>
    <inkscape:path-effect
       effect="spiro"
       id="path-effect2933"
       is_visible="true"
       lpeversion="0" />
    <inkscape:path-effect
       effect="spiro"
       id="path-effect2930"
       is_visible="true"
       lpeversion="0" />
    <inkscape:path-effect
       effect="skeletal"
       id="path-effect3674"
       is_visible="true"
       lpeversion="0"
       pattern="M 0,0 H 1"
       copytype="single_stretched"
       prop_scale="1"
       scale_y_rel="false"
       spacing="0"
       normal_offset="0"
       tang_offset="0"
       prop_units="false"
       vertical_pattern="false"
       hide_knot="false"
       fuse_tolerance="0" />
    <inkscape:path-effect
       effect="spiro"
       id="path-effect3672"
       is_visible="true"
       lpeversion="0" />
    <inkscape:path-effect
       effect="spiro"
       id="path-effect3668"
       is_visible="true"
       lpeversion="0" />
    <inkscape:path-effect
       effect="skeletal"
       id="path-effect3664"
       is_visible="true"
       lpeversion="0"
       pattern="M 0,0 H 1"
       copytype="single_stretched"
       prop_scale="1"
       scale_y_rel="false"
       spacing="0"
       normal_offset="0"
       tang_offset="0"
       prop_units="false"
       vertical_pattern="false"
       hide_knot="false"
       fuse_tolerance="0" />
    <inkscape:path-effect
       effect="spiro"
       id="path-effect3662"
       is_visible="true"
       lpeversion="0" />
    <inkscape:path-effect
       effect="skeletal"
       id="path-effect3658"
       is_visible="true"
       lpeversion="0"
       pattern="M 0,0 H 1"
       copytype="single_stretched"
       prop_scale="1"
       scale_y_rel="false"
       spacing="0"
       normal_offset="0"
       tang_offset="0"
       prop_units="false"
       vertical_pattern="false"
       hide_knot="false"
       fuse_tolerance="0" />
    <inkscape:path-effect
       effect="spiro"
       id="path-effect3656"
       is_visible="true"
       lpeversion="0" />
    <inkscape:path-effect
       effect="skeletal"
       id="path-effect3648"
       is_visible="true"
       lpeversion="0"
       pattern="M 0,0 H 1"
       copytype="single_stretched"
       prop_scale="1"
       scale_y_rel="false"
       spacing="0"
       normal_offset="0"
       tang_offset="0"
       prop_units="false"
       vertical_pattern="false"
       hide_knot="false"
       fuse_tolerance="0" />
    <inkscape:path-effect
       effect="spiro"
       id="path-effect3646"
       is_visible="true"
       lpeversion="0" />
    <inkscape:path-effect
       effect="skeletal"
       id="path-effect3642"
       is_visible="true"
       lpeversion="0"
       pattern="M 0,0 H 1"
       copytype="single_stretched"
       prop_scale="1"
       scale_y_rel="false"
       spacing="0"
       normal_offset="0"
       tang_offset="0"
       prop_units="false"
       vertical_pattern="false"
       hide_knot="false"
       fuse_tolerance="0" />
  </defs>
  <rect
     style="fill:#ffffff;fill-opacity:0.982751;fill-rule:evenodd;stroke:#000000;stroke-width:1.5358;stroke-opacity:0.517647;stop-color:#000000"
     id="rect889"
     width="97.740997"
     height="97.337723"
     x="1.2327762"
     y="1.3912469"
     ry="15.357969" />
  <g
     id="g3703">
    <path
       d="m 74.442166,32.783782 c 0.350533,-1.669314 1.450615,-3.169755 2.937201,-4.006145 1.486582,-0.836392 3.340091,-0.99772 4.948819,-0.430737 1.64796,0.580809 2.986153,1.798605 4.537172,2.60325 0.775296,0.402209 1.60155,0.709563 2.456475,0.888335 h 2e-6 c 0.854938,0.178772 1.892364,-0.24956 2.604418,0.256268 l 3.432775,2.438572"
       id="path2915"
       style="fill:none;stroke:#d45500;stroke-width:0.748258;stroke-miterlimit:4;stroke-dasharray:none"
       sodipodi:nodetypes="cssssssc" />
    <path
       d="m 23.071534,62.44263 -7.785462,4.611054 c -0.862701,0.510948 -1.725529,1.061697 -2.363532,1.835177 l -3e-6,4e-6 c -0.637878,0.773331 -1.030118,1.747359 -1.103942,2.747096 v 6e-6 c -0.07386,1.000141 0.155157,2.004826 0.529538,2.935191 0.374447,0.930533 0.883117,1.799959 1.384641,2.668623 l 9.758712,16.902585 c 0.377276,0.653465 0.807605,1.30202 1.426651,1.733458 0.61921,0.431551 1.380629,0.630013 2.134927,0.656328 0.754778,0.02633 1.5059,-0.0924 2.256462,-0.176273 0.750428,-0.08385 1.506117,-0.114651 2.261214,-0.114651 h 5.306279"
       id="path2913"
       style="fill:none;stroke:#d45500;stroke-width:0.748258;stroke-miterlimit:4;stroke-dasharray:none"
       sodipodi:nodetypes="cssssssscssssc" />
    <path
       d="m 46.679087,81.669529 0.100559,9.047935 c 0.01116,1.002595 0.05669,2.025198 0.407543,2.964467 0.350784,0.939086 0.9982,1.765792 1.82709,2.329599 0.82922,0.564029 1.813808,0.86804 2.806719,1.009001 0.993089,0.140988 2.000369,0.135177 3.003416,0.135177 h 11.823942"
       id="path3654"
       style="fill:none;stroke:#d45500;stroke-width:0.748258;stroke-miterlimit:4;stroke-dasharray:none"
       sodipodi:nodetypes="ccssssc" />
    <path
       d="m 46.679087,22.351832 0.100559,-9.047935 c 0.01116,-1.002595 0.05669,-2.025198 0.407543,-2.964466 0.350784,-0.9390869 0.9982,-1.7657938 1.82709,-2.3295997 0.82922,-0.564029 1.813808,-0.8680397 2.806719,-1.0090013 0.993089,-0.1409878 2.000369,-0.135177 3.003416,-0.135177 h 36.804817"
       id="path3644"
       style="fill:none;stroke:#d45500;stroke-width:0.748258;stroke-miterlimit:4;stroke-dasharray:none" />
    <path
       d="m 51.50972,16.11446 c -19.771363,0 -35.802991,16.031629 -35.802991,35.802991 0,19.771363 16.031628,35.794191 35.802991,35.794191 19.771362,0 35.79419,-16.022828 35.79419,-35.794191 0,-19.771362 -16.022828,-35.802991 -35.79419,-35.802991 z m 3.449194,7.426327 c 7.671393,0.922875 14.400065,4.885631 18.961769,10.646748 l -4.945017,2.850866 3.625173,6.28246 5.068204,-2.930055 c 1.555353,3.525962 2.419716,7.424834 2.419716,11.526645 0,3.790498 -0.737197,7.40804 -2.076556,10.71714 l -5.411364,-3.123632 -3.625173,6.273661 5.481755,3.167628 C 69.896066,75.086101 62.934617,79.326459 54.958914,80.285315 v -2.261173 -0.0094 -4.135046 h -7.250348 v 6.370456 C 39.816573,79.202541 32.9421,74.935046 28.44763,68.811459 l 5.235385,-3.026844 -3.625173,-6.273662 -5.120998,2.956452 C 23.639891,59.203464 22.92188,55.643423 22.92188,51.917446 c 0,-4.037171 0.839329,-7.876502 2.349324,-11.359465 l 4.786638,2.762875 3.625173,-6.282461 -4.698647,-2.718881 c 4.495705,-5.748588 11.137728,-9.735862 18.724198,-10.743536 v 5.367369 h 7.250348 v -5.402565 z"
       id="path2830"
       style="fill:#b3b3b3;stroke:#000000;stroke-width:0.748258;stroke-linecap:round;stroke-linejoin:miter;stroke-miterlimit:4;stroke-dasharray:none;stroke-dashoffset:0;stroke-opacity:1" />
    <path
       d="m 46.284446,24.18064 c -8.31e-4,0.0154 -0.0014,0.03088 -0.0014,0.04647 0,0.311721 0.17336,0.57828 0.404752,0.747913 0.229207,0.16803 0.521482,0.25952 0.835902,0.25517 0.003,-4.2e-5 0.0058,5.9e-5 0.0088,0 l 3.3964,-0.0088 h 0.0088 4.267498 c 0.160397,0 0.296763,0.04454 0.378356,0.105588 0.08159,0.06104 0.105586,0.116924 0.105586,0.158382 0,0.04145 -0.02399,0.08854 -0.105586,0.149583 -0.05951,0.04452 -0.14815,0.08495 -0.254,0.103566 l 0.0017,0.753563 c 0.262976,-0.02177 0.504388,-0.111617 0.701121,-0.258801 0.227771,-0.170403 0.404753,-0.436191 0.404753,-0.747911 0,-0.31172 -0.176982,-0.586304 -0.404753,-0.756711 -0.227769,-0.170408 -0.51543,-0.25517 -0.827101,-0.25517 h -4.276298 l -3.40514,0.0088 h -0.0088 c -0.166777,0.0032 -0.306041,-0.04612 -0.387154,-0.105588 -0.08111,-0.05946 -0.09679,-0.108126 -0.09679,-0.149583 0,-0.04146 0.02399,-0.09734 0.105587,-0.15838 0.02027,-0.01518 0.04395,-0.02987 0.07052,-0.04339 -0.20087,0.0283 -0.427523,0.0741 -0.922723,0.155306 z m 1.052241,1.393475 c -0.242655,0.02652 -0.465189,0.108234 -0.648801,0.245605 -0.227771,0.170407 -0.404752,0.44499 -0.404752,0.756711 0,0.31172 0.173361,0.578279 0.404752,0.747911 0.229207,0.168032 0.521482,0.259521 0.835902,0.255171 0.003,-4.3e-5 0.0058,5.9e-5 0.0088,0 l 3.3964,-0.0088 h 0.0088 4.267498 c 0.160397,0 0.296763,0.05334 0.378356,0.114386 0.08159,0.06104 0.105588,0.108124 0.105588,0.149583 0,0.04146 -0.02419,0.08826 -0.105588,0.149581 -0.05924,0.04464 -0.147367,0.09172 -0.2526,0.10332 l 0.0023,0.753643 c 0.262204,-0.02205 0.502902,-0.111818 0.69914,-0.258632 0.227771,-0.170404 0.404752,-0.436193 0.404752,-0.747912 0,-0.31172 -0.176981,-0.577505 -0.404752,-0.747913 -0.227771,-0.170407 -0.51543,-0.263968 -0.827103,-0.263968 h -4.276306 l -3.4052,0.0088 h -0.0088 c -0.166777,0.0032 -0.306041,-0.04612 -0.387154,-0.105588 -0.08111,-0.05946 -0.09679,-0.108128 -0.09679,-0.149582 0,-0.04146 0.02399,-0.09734 0.105586,-0.158382 0.04908,-0.03672 0.117986,-0.06747 0.200017,-0.08614 z m 7.996759,50.097212 c 0.09098,0.002 0.204403,-0.01332 0.250194,0.02092 0.08159,0.06104 0.105588,0.108124 0.105588,0.149582 0,0.04146 -0.02399,0.09734 -0.105588,0.158381 -0.08159,0.06104 -0.217958,0.114387 -0.378356,0.114387 h -4.267497 -0.0088 l -3.405214,-0.0176 -0.20112,-0.0038 c -0.314381,-0.0059 -0.405587,0.09092 -0.634782,0.25894 -0.231391,0.169633 -0.404753,0.444992 -0.404753,0.756712 0,0.31172 0.176982,0.577505 0.404753,0.747912 0.147743,0.110535 0.451819,0.319871 0.647254,0.368267 l 8.32e-4,-0.94667 c -0.07875,5.54e-4 -0.161781,0.0081 -0.199304,-0.01994 -0.08159,-0.06104 -0.105588,-0.108124 -0.105588,-0.149581 0,-0.04145 0.01568,-0.09012 0.09679,-0.149583 0.08111,-0.05946 0.220378,-0.108823 0.387155,-0.105588 h 0.0088 l 3.405201,0.0088 h 4.276297 c 0.311672,0 0.599332,-0.09356 0.827102,-0.263969 0.227771,-0.170407 0.404753,-0.44499 0.404753,-0.756711 0,-0.31172 -0.176982,-0.577507 -0.404753,-0.747911 -0.196202,-0.146786 -0.436842,-0.236556 -0.698987,-0.258623 l 1.2e-5,0.836049 z m -0.0067,2.348884 c 0.09187,0.0068 0.209919,-0.01375 0.256831,0.02137 0.08159,0.06104 0.105588,0.116927 0.105588,0.158382 0,0.04146 -0.02399,0.08854 -0.105588,0.149583 -0.08159,0.06104 -0.217958,0.114386 -0.378356,0.114386 h -4.267499 -0.0088 l -3.3964,-0.0088 h -0.0088 c -0.314437,0 -0.606707,0.07835 -0.835902,0.24637 -0.231391,0.169634 -0.404752,0.444992 -0.404752,0.756712 0,0.06437 0.0076,0.12679 0.02154,0.186808 0.161816,0.06559 0.754415,0.153282 1.011687,0.163666 -0.07197,-0.09508 -0.144731,-0.174715 -0.17972,-0.200892 -0.08159,-0.06104 -0.105586,-0.108124 -0.105586,-0.149582 0,-0.04145 0.01568,-0.09012 0.09679,-0.149583 0.08111,-0.05946 0.220377,-0.108822 0.387154,-0.105587 h 0.0088 l 3.405201,0.0088 h 4.276296 c 0.311673,0 0.599332,-0.09356 0.827103,-0.263968 0.227771,-0.170408 0.404752,-0.436193 0.404752,-0.747913 0,-0.31172 -0.176981,-0.586307 -0.404752,-0.756711 -0.195394,-0.14618 -0.43486,-0.235818 -0.695751,-0.258345 l -0.0099,0.835307 z"
       id="path3685"
       style="color:#000000;font-style:normal;font-variant:normal;font-weight:normal;font-stretch:normal;font-size:medium;line-height:normal;font-family:'Bitstream Vera Sans';-inkscape-font-specification:'Bitstream Vera Sans';text-indent:0;text-align:start;text-decoration:none;text-decoration-line:none;letter-spacing:normal;word-spacing:normal;text-transform:none;writing-mode:lr-tb;direction:ltr;text-anchor:start;display:inline;overflow:visible;visibility:visible;fill:#ff6600;fill-opacity:1;stroke:none;stroke-width:0.748258;marker:none;enable-background:accumulate" />
    <path
       d="m 72.66105,33.356419 c -0.01382,0.0069 -0.02745,0.01422 -0.04094,0.02202 -0.269958,0.155854 -0.414124,0.439274 -0.445335,0.724482 -0.03092,0.282514 0.03598,0.581378 0.196976,0.851496 0.0014,0.0024 0.0028,0.0051 0.0045,0.0075 l 1.705808,2.936979 0.0045,0.0075 2.133751,3.69576 c 0.08019,0.138909 0.109815,0.279277 0.09773,0.380462 -0.01199,0.10118 -0.04846,0.149901 -0.08438,0.170624 -0.0359,0.02072 -0.08866,0.02349 -0.182327,-0.01666 -0.06831,-0.02928 -0.147646,-0.08582 -0.21669,-0.168187 l -0.651761,0.378244 c 0.150348,0.216862 0.348856,0.381004 0.574687,0.477789 0.261459,0.11205 0.580132,0.132429 0.850086,-0.02343 0.269958,-0.155854 0.419266,-0.446421 0.452958,-0.728881 0.03369,-0.282459 -0.03673,-0.573959 -0.192567,-0.843875 l -2.138148,-3.703382 -1.710178,-2.944548 -0.0045,-0.0075 c -0.08619,-0.14281 -0.113086,-0.288099 -0.102135,-0.388079 0.01097,-0.09998 0.04525,-0.137893 0.08115,-0.158617 0.0359,-0.02072 0.09628,-0.0279 0.189946,0.01219 0.02328,0.01 0.04785,0.02312 0.07284,0.03937 -0.124951,-0.159816 -0.277937,-0.333193 -0.595862,-0.721447 z m -0.680664,1.608002 c -0.144293,-0.196874 -0.326326,-0.348746 -0.5371,-0.439075 -0.261463,-0.11205 -0.587751,-0.128039 -0.857709,0.02782 -0.269954,0.155854 -0.414121,0.439274 -0.445335,0.724482 -0.0309,0.282514 0.03598,0.581377 0.196976,0.851496 0.0014,0.0024 0.0028,0.0051 0.0045,0.0075 l 1.705808,2.93698 0.0045,0.0075 2.133751,3.69576 c 0.08019,0.138909 0.102176,0.283676 0.09011,0.38486 -0.01199,0.10118 -0.04084,0.145492 -0.07676,0.166236 -0.0359,0.02072 -0.08852,0.02316 -0.182328,-0.01666 -0.06829,-0.02899 -0.153111,-0.08176 -0.215776,-0.167089 l -0.651549,0.378771 c 0.150185,0.216052 0.348287,0.379617 0.573551,0.476158 0.261462,0.11205 0.58013,0.132428 0.850088,-0.02343 0.269958,-0.155854 0.411643,-0.442025 0.445335,-0.72448 0.03369,-0.282459 -0.02912,-0.578362 -0.184948,-0.848278 l -2.138148,-3.70338 -1.710209,-2.944599 -0.0045,-0.0075 c -0.08619,-0.14281 -0.113065,-0.288099 -0.102135,-0.388079 0.01097,-0.09998 0.04525,-0.137893 0.08115,-0.158617 0.0359,-0.02072 0.09628,-0.0279 0.189966,0.01219 0.05634,0.02416 0.117414,0.06845 0.174607,0.130153 l 0.656234,-0.378875 z M 32.593308,66.938422 c 0.04378,0.07977 0.113736,0.170361 0.10697,0.227137 -0.01199,0.101181 -0.04084,0.145513 -0.07674,0.166237 -0.0359,0.02072 -0.09628,0.0279 -0.189947,-0.01219 -0.09366,-0.04015 -0.208039,-0.131554 -0.288237,-0.270472 l -2.133752,-3.695759 -0.0045,-0.0075 -1.687364,-2.9578 -0.0973,-0.17607 c -0.152075,-0.27522 -0.281531,-0.30579 -0.541639,-0.420267 -0.262603,-0.115586 -0.587751,-0.12804 -0.857709,0.02781 -0.269958,0.155854 -0.411642,0.442025 -0.445335,0.724484 -0.02184,0.183222 -0.0511,0.551223 0.0047,0.744674 l 0.820265,-0.472605 c -0.03986,-0.06792 -0.08793,-0.136044 -0.08239,-0.182571 0.01199,-0.10118 0.04084,-0.145512 0.07674,-0.166236 0.0359,-0.02072 0.08588,-0.03147 0.177939,0.0089 0.09206,0.04051 0.204431,0.13643 0.28502,0.282489 l 0.0045,0.0075 1.694989,2.953383 2.13815,3.703383 c 0.155834,0.269915 0.380692,0.472255 0.642155,0.584307 0.261463,0.11205 0.587751,0.128019 0.857709,-0.02781 0.269956,-0.155854 0.411645,-0.442023 0.445335,-0.724485 0.02901,-0.243305 -0.01361,-0.496593 -0.12552,-0.734649 l -0.724034,0.418035 z m -2.037515,1.168688 c 0.04009,0.08294 0.116865,0.174932 0.109917,0.23311 -0.01199,0.101181 -0.04846,0.149901 -0.08438,0.170625 -0.0359,0.02072 -0.08866,0.02349 -0.182348,-0.01666 -0.09366,-0.04015 -0.208039,-0.131575 -0.288237,-0.270474 l -2.133749,-3.69576 -0.0045,-0.0075 -1.690593,-2.945763 -0.0045,-0.0075 c -0.157216,-0.272309 -0.371206,-0.486246 -0.631316,-0.600726 -0.262601,-0.115565 -0.587749,-0.128039 -0.857707,0.02782 -0.05575,0.03218 -0.106036,0.06993 -0.151018,0.11205 0.0241,0.17294 0.244462,0.729984 0.364104,0.957981 0.04634,-0.109876 0.07893,-0.2127 0.08411,-0.256088 0.01199,-0.10118 0.04084,-0.145512 0.07674,-0.166236 0.0359,-0.02072 0.08588,-0.03147 0.177939,0.0089 0.09206,0.04051 0.204431,0.13643 0.285019,0.282491 l 0.0045,0.0075 1.694993,2.953381 2.138148,3.703383 c 0.155834,0.269915 0.380693,0.472255 0.642155,0.584307 0.261461,0.11205 0.58013,0.132428 0.850088,-0.02343 0.269956,-0.155854 0.419263,-0.446422 0.452954,-0.728881 0.02889,-0.242306 -0.01321,-0.494507 -0.124139,-0.731711 l -0.728325,0.409119 z"
       id="path2923"
       style="color:#000000;font-style:normal;font-variant:normal;font-weight:normal;font-stretch:normal;font-size:medium;line-height:normal;font-family:'Bitstream Vera Sans';-inkscape-font-specification:'Bitstream Vera Sans';text-indent:0;text-align:start;text-decoration:none;text-decoration-line:none;letter-spacing:normal;word-spacing:normal;text-transform:none;writing-mode:lr-tb;direction:ltr;text-anchor:start;display:inline;overflow:visible;visibility:visible;fill:#ff6600;fill-opacity:1;stroke:none;stroke-width:0.748258;marker:none;enable-background:accumulate" />
  </g>
  <flowRoot
     id="flowRoot5179"
     xml:space="preserve"
     style="font-style:normal;font-variant:normal;font-weight:normal;font-stretch:normal;font-size:48px;font-family:'Swis721 BlkEx BT';-inkscape-font-specification:'Swis721 BlkEx BT';fill:#000000;fill-opacity:1;stroke:none"
     transform="matrix(0.1385848,0,0,0.1385848,6.143788,-19.825961)"><flowRegion
       id="flowRegion5181"><rect
         width="1194.0002"
         height="563.6651"
         x="-155.56349"
         y="545.26562"
         id="rect5183" /></flowRegion><flowPara
       id="flowPara5185" /></flowRoot>
  <g
     id="g3590">
    <path
       d="M 47.708566,31.072702 V 47.781937 H 30.999331 v 7.259146 h 16.709235 v 16.709236 h 7.250348 V 55.041083 H 71.668148 V 47.781937 H 54.958914 V 31.072702 Z"
       id="rect3609"
       style="fill:#b3b3b3;stroke:#000000;stroke-width:0.748258;stroke-linecap:round;stroke-linejoin:miter;stroke-miterlimit:4;stroke-dasharray:none;stroke-dashoffset:0;stroke-opacity:1" />
    <path
       d="m 53.128679,51.566433 a 1.5643404,1.5643404 0 1 1 -3.128678,0 1.5643404,1.5643404 0 1 1 3.128678,0 z"
       id="path3638"
       style="fill:#000000;fill-opacity:1;fill-rule:nonzero;stroke:none;stroke-width:0.281567" />
    <rect
       style="fill:#ff0000;fill-opacity:0.982751;fill-rule:evenodd;stroke:#ffcc00;stroke-width:0.755906;stroke-opacity:0.517647;stop-color:#000000"
       id="rect3162"
       width="7.0479107"
       height="7.0479107"
       x="47.708565"
       y="31.072702"
       ry="3.5239553" />
    <rect
       style="fill:#0000ff;fill-opacity:0.982751;fill-rule:evenodd;stroke:#ffcc00;stroke-width:0.755906;stroke-opacity:0.517647;stop-color:#000000"
       id="rect3162-2"
       width="7.0479107"
       height="7.0479107"
       x="47.708565"
       y="64.051186"
       ry="3.5239553" />
  </g>
</svg>
