<?xml version="1.0" encoding="utf-8"?>
<!-- Generator: Adobe Illustrator 22.1.0, SVG Export Plug-In . SVG Version: 6.00 Build 0)  -->
<svg version="1.1" id="Layer_1" xmlns="http://www.w3.org/2000/svg" xmlns:xlink="http://www.w3.org/1999/xlink" x="0px" y="0px"
	 viewBox="0 0 466.2 395.6" style="enable-background:new 0 0 466.2 395.6;" xml:space="preserve">
<style type="text/css">
	.st0{fill:#418FDE;}
</style>
<title>UN Blue</title>
<path class="st0" d="M233.1,0c-26.5,0-51.5,6.3-73.7,17.5l1.8,3.5c21.4-10.8,45.2-16.7,69.9-17v29.7C211,34,191.9,38.9,175,47.3
	l1.8,3.5c16.7-8.3,35.2-12.8,54.3-13.1v26.9c-15,0.3-29.1,3.9-41.8,10.1l0,0c-9.5,4.6-18.1,10.7-25.6,17.9l-19-19.1
	c9.6-9.3,20.5-16.9,32.2-22.7l-1.8-3.5l0,0c-12.2,6.1-23.4,14-33.1,23.4l-21.1-21.1c12.1-11.8,25.7-21.4,40.4-28.8l-1.8-3.5
	c-32.1,16.1-58.2,42.4-74.1,74.6l0,0c-10.8,21.9-17,46.6-17,72.7c0,16,2.3,31.6,6.6,46.4l3.9-1c-4.1-14-6.3-28.6-6.5-43.5H102
	c0.2,12.4,2.1,24.6,5.6,36.2l3.9-1c-3.4-11.3-5.3-23.1-5.5-35.3h26.9c0.1,4,0.4,7.9,0.9,11.7c-1.9,0.2-3.6,0.8-3.6,0.8l-0.8,2.7
	c-1.8,0.3-3,3.4-3,3.4c-1.5,0.5-2.7,2.4-2.2,2.9s-0.8,0.7-0.8,0.7v3.7l-0.8,1.2l0.2,4c1,0,0.8,1.9,0.8,1.9c-1.7,0.2-1.3,2.4-1.3,2.4
	l-3.5,1.2l-0.7,1l-4.3-0.2l-1.2,1.2l0,0c-0.4-1.1-0.7-2.2-1.1-3.3l-3.9,1c0.1,0.4,0.2,0.8,0.4,1.2h-4.9l-0.3-0.8l-1.7-0.3l-0.2-1.9
	l-2.5,0.2l-0.5,1l-2.7,0.2c0.2,1.7-2.7,4.2-3,3.5s-2.2-2.5-1.3-2.9c0.8-0.3,3-0.7,3-0.7V201l-6.2-0.2l-0.7,1l-2.5,0.2v2.7l-1.2,0.3
	c-0.8,0.5,0.2,2.4,0.2,2.4c1.2,1.2-0.2,3-0.2,3c-1,1,0.8,2.9,0.8,2.9c1.3,0.3-0.8,1.3-0.8,1.3c0.3,1.7,1.3,2.2,1.3,2.2
	c-1,1.7,0.7,2.5,0.7,2.5l0.2,2.9l1.2,0.7v1.9l0.7,1.2h2.7l-0.1-4c-2.3-2.7,2-3.4,2.2-2.4s2,1.5,2,1.5c0.3,2.5,3.2,4,4,1.5
	s1.5-1,2,0.2s3.7,4.1,3.7,4.1h2.5l0.3,2.4c2.8-0.2,3.7,0.2,4.8,4c1.2,3.9,4.3,4.9,4.3,4.9l2.3-0.2c0-2,2.3,0.3,2.3,1.4
	c0,1,4.5,4.9,4.5,4.9l4.5,1l0.8,0.7c2.8,3.5,5.7,6.8,8.8,10.1l-21,21C99.4,258,86.2,234.9,78.9,210l-3.9,1
	c7.7,26.2,21.7,50.5,41.5,70.4c13.4,13.4,28.8,24.3,45.5,32.2l2-3.5c-15.8-7.5-30.3-17.6-43.2-30.2l21-21
	c10.9,10.6,23.4,19.1,36.8,25.2l2-3.5c-13.2-6-25.3-14.2-36-24.5l3.9-3.9c0.2,0.4,0.4,0.8,0.4,1.4c0.3,2.5,1.5,2,1.5,2l9.5-0.2
	l3.3-2.9l8.5-0.2c4.3-0.2,1.7-6.1,0.8-6.1c-0.5-0.4-0.6-1.2-0.5-2.1c6.8,5.2,14.1,9.5,21.8,12.8l2-3.5c-8.9-3.7-17.3-8.9-24.8-15.2
	l-4.5-4.2l20.9-20.9c6.8,6.4,14.6,11.2,23.1,14.2l0,0c2.3,0.8,4.7,1.5,7.1,2.1c-0.4,0.4-0.6,0.7-0.5,0.9c0.3,0.8-1.3,1.7-1.3,1.7
	l-1.5,0.5l-1,1.5l-2,0.7l-0.3,3.5l-1,0.7v1.5l-1.2,0.3v0.8l-1.7,0.2l1,2.5l1.3,0.7c2.3,0.3,1.3,3.2,1.3,3.2l1.3,0.2l0.7,1.9l1.3,2.7
	c0.5,2,2,1.5,2.7,1.4c0.7-0.2,1.3,2,1.3,2l6.6,0.2c0,0-0.3,0.7,0.8,1c0.6,0.2,3.2,0.4,5.5,0.4v3c-12.3-0.2-24.1-2.9-35.1-7.5l-2,3.5
	c11.6,4.9,24.1,7.8,37.1,8v26.9c-17.7-0.3-34.8-4.2-50.5-11.3l-2,3.5c16.3,7.4,34.1,11.5,52.5,11.8v29.7
	c-23.6-0.3-46.4-5.6-67.1-15.5l-2,3.5c21.9,10.5,46.1,16,71.1,16c26.2,0,51.5-6.1,74.3-17.6c15.4-7.8,29.7-18.1,42.3-30.6
	c13.2-13.2,23.9-28.3,31.8-44.6l0,0c10.7-22.1,16.4-46.6,16.4-71.9c0-21.5-4.1-42.4-12-61.8c-8.2-20.2-20.4-38.8-36.3-54.7
	c-16-16-34.6-28.2-55-36.4l0,0C275.3,4.1,254.5,0,233.1,0L233.1,0z M235.1,4c20.2,0.2,39.9,4.2,58.1,11.6l0,0
	c19.2,7.7,36.9,19.2,52.2,34.1l-17.8,17.8c-0.6,0.2-1.3,0.2-1.7,0c-1.2-0.5,0.5-1.7,0.5-1.7v-1.3l-1-1c0,0-2.8,0.3-3-0.2
	s-0.7-2.7-0.7-2.7l-0.2-2.9l-1.2-0.5l-0.2-1l-1.8,0.2v-2l-1-0.3l-1-0.5l-0.2-2l-3.7-0.2l-1.2-1.7l-1.3-2l-4.2-0.3l-1-1l-1.7-0.3
	l-1.2-0.5l-0.5,0.8l-3.2,0.2l-0.2,1c-1,0.5-3.7,0.5-5.8,0.5c-3.3-1.7-6.4-3.4-9.8-4.8l-1.4,3.7c2.8,1.1,5.1,2.5,7.8,3.9
	c-0.2,0.6-0.4,1-0.8,1c-0.8,0-0.5,2.2-0.5,2.2s2.2,0,2.8,0.2c0.7,0.2,0.7,1.9,0.7,1.9c2.5-0.2,3.5,3.2,3.2,4.1c-0.3,0.8,1,0.8,1,0.8
	s0,2.7-0.3,3.4s2.2,1.2,2.8,2.2c0.7,1-0.3,4.4-0.8,4.6s1.3,0.7,1.2,1.5c-0.2,0.8,0.5,0,0.7,1.4c0.2,1.3,0.5,4.2,0.5,4.2l2.3,0.2
	c0.3-2.2,4.6-2.3,5.3-2c2.8,1,5,5.4,5,6.4s-1.8,1.2-1.8,1.2l0.1,1.1l-5.8,5.8c-0.6-0.4-1.2-0.6-1.5-0.3c-0.8,0.5-0.5-3.5-0.5-3.5
	s1.5-1,2.2-0.5s-5.6-8.4-7-7.6c-1.3,0.8-4.3-0.8-4.2-2.4c0.2-1.5-6-6.6-6-6.6s-2-1.3-2.3-0.3s-1,1.7,0,2.2s0.8-0.8,2,0.3
	c1.2,1.2,3.3,2.7,2.5,3.7s-1.8,1.3-1.8,1.3l1.2,1.4h1.8l0.3,2.9c0,0,2,1,2.5,2.2c0.3,0.8,0.4,1.3,0.3,1.8c-3.7-2.8-7.6-5.4-11.6-7.7
	c0-0.3,0.1-0.6,0-0.9c-0.3-1.2,1.3-1.7,2.2-0.3l1.7-0.2l0.3-1.5l-2.3-1.9h-1.8c0,0-0.2,1.3-1.3,0.8c-1.2-0.5-0.5-0.3-1.5-0.5
	c-0.9-0.2-0.7,1.7-0.5,2.6c-2.6-1.3-5.2-2.5-7.9-3.6l0,0c-11.3-4.6-23.4-7.2-36-7.4V49.8c1.1,0,1.6-0.4,1.7-0.8
	c0.2-0.7,0.3-0.8,1.3-1s-0.2-2.2-1.2-2c-0.7,0.1-1.4-0.1-1.8-0.6v-7.7c16,0.2,31.4,3.4,45.8,9.3l1.4-3.7c-14.8-6-30.8-9.3-47.3-9.5
	L235.1,4L235.1,4z M262.9,11.1l-1.6,1l-1.1-0.7l-0.5,0.9l1.3,0.8l0.3,0.2l0.3-0.2l1.8-1.2L262.9,11.1L262.9,11.1z M270.5,15.1
	l-1.3,1.1l-0.8-0.9l-0.7,0.7l1.2,1.2l0.3,0.3l0.3-0.3l1.7-1.3L270.5,15.1L270.5,15.1z M110.2,16c-16.5,6.4-34.3,13-45,30
	c-6.3,9.9-7.2,21.7-12.1,31.9c9.2-8.6,19.8-15,27.6-25.2C90,40.4,98.1,26.6,110.2,16L110.2,16z M355.9,16
	c12.1,10.7,20.3,24.4,29.6,36.7c7.8,10.3,18.4,16.6,27.6,25.2c-4.9-10.3-5.9-22-12.1-31.9C390.2,29,372.5,22.4,355.9,16L355.9,16z
	 M258.5,18.1c-0.7,0.1-1.4,0.4-1.5,0.7c-0.2,0.7-1.2,0.8-1.2,0.8l-3.8,0.3c-0.3,1-2.3,1.7-2.5,1l0,0c-0.4-1.5-2.5,1.9-0.3,2.5
	c2.2,0.7,4.3,0,4.3,0l0.5-1l8.3,0.2c0.7-0.7,1-1.7,1-1.7s2-0.7,2.8-0.3c0.8,0.3,0.2-2.4-0.7-2c-0.8,0.3-2.5,0.2-2.5,0.2h-3
	C259.9,18.2,259.2,18,258.5,18.1L258.5,18.1z M244.2,21.5l-2.2,0.8l-2.3,1.5l-2.5,0.3l-1.3,1.5l5.3,0.5l1,1.7l3.8,0.3l2.5,2.5
	c2.2,0.7,2.7-0.3,1.3-1.5l0,0l-2.2-2.2V25l-0.7-0.7l-0.7-2.4L244.2,21.5L244.2,21.5z M65.6,38.5c-8.4,2.2-15.5,7.6-21.8,14.6
	c-13.2,14.7-12.1,36.3-10.3,55.6c0.5,6,0.2,11-0.4,17.1c4-8.2,10.5-16,18.3-21.8c17.2-13,36-29.8,36.3-51.8
	c-5.7,15.9-23,22.5-34.5,33.3c-6.1,5.7-10.8,12.6-13.5,19.8l-0.4-0.3c1.4-6.4,4.1-12.1,6-18.3C50.1,69.8,49.2,49.7,65.6,38.5
	L65.6,38.5z M400.6,38.5C416.9,49.7,416,69.8,421,86.7c1.8,6.1,4.5,11.9,6,18.3l-0.4,0.3c-2.7-7.2-7.4-14.1-13.5-19.8
	c-11.5-10.9-28.8-17.4-34.5-33.3c0.3,22.1,19.1,38.9,36.3,51.8c7.7,5.8,14.3,13.6,18.3,21.8c-0.7-6.1-1-11.2-0.4-17.1
	c1.8-19.3,2.9-40.9-10.3-55.6C416.1,46.1,409,40.6,400.6,38.5L400.6,38.5z M310.3,41.8c-1.3,0-3.3,0.9-3.1,1.9
	c0.2,0.8,0.8,1.7,2.2,2l2.5,0.8c0,0,3.1,3.7,3,1.9c-0.3-5.1-2.7-5.2-3.5-6.2C311.2,42,310.8,41.8,310.3,41.8L310.3,41.8z
	 M258.2,43.9l-0.7,1.5l0.9,0.4l0.7-1.5L258.2,43.9L258.2,43.9z M261.3,45.5c-0.1-0.1-1,1.2-1.7,1.6c0.8,0.4,1.9,1,1.9,1
	c1.3,0,2.2,1,2.2,1.5s1.8,0.3,1.8,0.3l0.2-1.2l-1.3-1.7l-1.2-0.8C263.2,46.3,261.3,46.1,261.3,45.5L261.3,45.5L261.3,45.5z
	 M259.6,47.1c-0.8-0.4-1.3-0.6-0.4,0C259.3,47.2,259.5,47.2,259.6,47.1z M254.1,46.6l-0.1,1l1.4,0.1l1,1.6l0.8-0.5l-1.2-1.9
	l-0.1-0.2h-0.2C255.7,46.8,254.1,46.6,254.1,46.6z M215.7,50.8c-0.9,0-1.7,0.2-1.7,0.5c0.2,0.8,1.5,1.9,1.5,1.9s2.5,0.2,2.7,0.7
	s1.8,0.7,2,0.2s0.8-1.5-0.7-1.5s-1.2-0.8-1.7-1.4C217.5,50.9,216.6,50.8,215.7,50.8L215.7,50.8z M348.2,52.5
	c14.9,15.2,26.3,32.9,34.1,52.1l0,0c7.4,18.3,11.4,38,11.6,58.2h-29.7c-0.2-16.2-3.4-31.9-9.2-46.5c-0.8-2.1-1.7-4.2-2.7-6.3
	c0.3-0.9,0.8-1.8,1.9-1.5c1.7,0.5,0.5-3.7,0.5-3.7s-2.3-1.7-2.2-2.5c0.2-0.8-2.3-2.5-2.2-3.2c0.2-0.7-2.2-2-2-2.7s-1.2-2.5-1.2-2.5
	l-2.5-2.4l-0.3-1.5l-2-0.2l-4-4.9l0.2-1.4l-1.2-0.2v-1.9l-1.2-0.7l-1.8-0.2l-3.7-4l-0.3-1.9h-1.8l0.3-2.9L348.2,52.5L348.2,52.5z
	 M257.9,52.5V54l1.8,0.2l-0.5-1.4L257.9,52.5L257.9,52.5z M118,52.5l21,21.1c-9.8,10.1-18,21.7-24.1,34.6
	c-8,16.6-12.6,35.1-12.9,54.7H72.3c0.3-24.3,6-47.7,16.4-68.9l0,0C96.1,78.9,105.9,64.9,118,52.5L118,52.5z M266,60.4
	c-0.2,0-0.3,0.1-0.3,0.2c0,0.5,0.7,0.5,1,1.5s0.2,2.7,1.7,3s1.8,0.7,2,1.3c0.2,0.7,2,0.8,2,0.8l1.3,0.7l4,3.4V70c0,0-0.2-1.3-1-1.3
	s-2.3-1-2-1.7s-2.8-1.3-2.8-1.3s-2.8-2.7-1.8-2.4s0.5-1.2,0.5-1.2s-2,0.3-2.5,0.2c-0.5-0.2-0.3-1.7-0.3-1.7S266.5,60.3,266,60.4
	L266,60.4z M174.6,61.6l-0.7,0.7l1,1l0.7-0.7L174.6,61.6L174.6,61.6z M30.7,68.6c-0.4-0.1-0.7,0.3-1,0.4c-11.4,14.6-19,30.5-19,50
	c0,24.1,13.9,41,15.6,63.6c3.6-23.6,23.4-40.4,33.7-61.3c4-8.1,6.5-17.3,7.6-26.2c-1.5,3.8-3.8,7.3-7,10.3
	c-13.4,12.7-29.1,25.1-32.1,43.1c-0.4,2.6-0.7,5.2-1.4,7.7c-0.6,0.3-0.6-0.4-0.8-0.6l1.7-22.2C29.6,111.8,18.1,87.7,30.7,68.6
	L30.7,68.6z M435.5,68.6c12.6,19.1,1.1,43.2,2.7,64.9l1.7,22.2c-0.2,0.2-0.2,0.8-0.8,0.6c-0.7-2.5-1-5.1-1.4-7.7
	c-3-17.9-18.8-30.4-32.1-43.1c-3.2-3-5.5-6.5-7-10.3c1.1,8.9,3.6,18.1,7.6,26.2c10.3,20.8,30.1,37.6,33.7,61.3
	c1.7-22.7,15.6-39.5,15.6-63.6c0-19.5-7.6-35.5-19-50C436.1,68.8,435.9,68.5,435.5,68.6L435.5,68.6z M231.1,68.6v29.7
	c-9.3,0.3-18.2,2.5-26.2,6.2l1.8,3.5l0,0c7.6-3.5,15.8-5.5,24.4-5.8v27c-3.5,0.2-6.9,0.9-10.1,2.1l0,0l-0.2-1.9l0.8-0.5l-1.3-0.5
	l-1,1.3l-0.3,1.5l-1.7,0.3v0.8h-1.2v1c-2.4,1.3-4.7,2.9-6.8,4.8L190.2,119c4.9-4.6,10.5-8.4,16.5-11.2l-1.8-3.5
	c-6.4,3-12.3,7-17.4,11.9l-21-21c7.4-7.1,15.7-12.8,24.7-17.2C203.4,72.2,217,68.8,231.1,68.6L231.1,68.6z M235.1,68.6
	c12,0.2,23.7,2.7,34.5,7.1c3,1.2,5.9,2.6,8.7,4.1c0.1,0.1,0.3,0.2,0.5,0.3c4.7,2.5,9.2,5.5,13.4,8.8l0,0c0.2,1.2,1.5,1.7,1.5,1.7
	l0.8,0.1c0.5,0.4,1.1,0.9,1.6,1.3v1.4c1.2-0.3,3,1.1,3.3,2.2l-20.7,20.7c-5.9-5.6-12.7-9.9-20-13c-7.4-3.1-15.4-4.8-23.7-5.1
	L235.1,68.6L235.1,68.6z M141.8,76.3l19.1,19.1c-7.7,8-14,17.3-18.8,27.4l0,0c-5.6,12.2-8.9,25.7-9.2,40H106
	c0.3-18.6,4.5-36.5,12.4-52.8C124.2,97.7,132.1,86.3,141.8,76.3L141.8,76.3z M311.6,89.1c2.3,1.4,4.1,4.5,3.8,5.1
	c-0.3,0.7,2,0.5,2,0.5c0.3-3,3.2-2,3.3-1c0.2,1,0.7,3.2,0.7,3.2l0.8,1.5l1.2,1.2l1.8-0.2l0.5,1l2.2,0.3c0,0,1.8,2,2,2.5
	s2.7,0.3,3.3,0.5c0.7,0.2,1.7,0.7,1.8,1.5c0.2,0.8,1.2,2.2,1.2,2.2s2,0.5,2.2,1.2s1,2.2,1,2.2l1.7,1.4l0.2,1.5l1.8,0.2l0.5,2l3-0.2
	l1.7-1.2c0.5-0.3,1-0.6,1.4-0.9c0.6,1.4,1.2,2.8,1.7,4.2c5.6,14.1,8.7,29.3,8.9,44.9h-26.9c-0.1-4.8-0.5-9.5-1.3-14.1
	c0.2-0.7,0.3-1.3,0-1.5c-0.5-0.5,0.5-2.9,0.5-2.9s0.7-1.4,0-2.7c-0.7-1.4,0.2-2.9,0.7-3.5l-1.3-0.7l-1.3-0.2l-1,0.2
	c-0.3-1.1-0.6-2.1-1-3.2l0,0l0.8,0.2v-1l-1.2-0.3c-0.2-0.7-0.5-1.4-0.7-2.1l-0.2-3.5l-1.2-0.8l0.3-1.3l-1.3-0.5l0.7-2.2l-1.2-2.4
	H323c-0.8-1.6-1.6-3.2-2.5-4.7c0.2-0.1,0.4-0.2,0.7-0.3c0.9-0.2,1.2-0.3,1.3-0.3l-0.2-1.8l-1.5-1l-0.5-2c0,0-1.8,0.3-1.7,1.3
	c0,0.2-0.1,0.4-0.3,0.5c-1.2-1.9-2.4-3.7-3.7-5.5c0-0.1,0.1-0.2,0.1-0.3c0.7-1.2,0.3-1.9-0.8-2.2c-1.2-0.3-1.2-0.3-1.5-1.7
	c-0.3-1.3-1.7-1.7-1.7-1.7l-0.5-2l-1.2,0.8c-0.7-0.8-1.3-1.5-2-2.3l0.6-1.9c-0.7-0.1-1-0.5-1.2-0.9L311.6,89.1L311.6,89.1z
	 M322.3,114.8L322.3,114.8C322.3,114.9,322.5,114.8,322.3,114.8z M204.8,93.1l-0.6,0.8l1,0.8l0.6-0.8L204.8,93.1z M201,93.8l0.2,1.9
	h2.5c1,0-0.8-1.2-0.8-1.2S200.8,94.7,201,93.8L201,93.8z M311.5,94.1l-1,0.1l0.2,1.5l1-0.1L311.5,94.1L311.5,94.1z M163.6,98.2
	l21,21c-4.4,4.6-8.1,9.9-11,15.6c-0.7,0-1.4,0.1-1.6,0.7c-0.5,1.3-2.7,1-2.7,1l-0.3,0.7l-1.7,0.3l-0.3,1l-2,0.3l5-0.2
	c1.3-0.2-0.5,2.9-1.3,2.7l-2.3,0.2l-0.8,0.8h-2.2l-1,1.4l-3.2-0.2c0,0-1.8,1.5-1.7,2c0.2,0.5-0.3,2-0.8,2s-1.5,1.5-1.2,2
	s-1,2.2-1,2.2l-0.3,1.7l-1,0.3v4.6l-2,1.3v2l-0.9,1h-13.5c0.3-13.4,3.3-26.3,8.7-38.1C150,115,156.1,106,163.6,98.2L163.6,98.2z
	 M302.2,98.5c0.7,0.7,0.6,0.9,1.6,1.6c0.3,0.2,0.6,0.4,0.9,0.4c0.5,0.6,1.1,1.2,1.6,1.8l-0.4,0.5c0,1.9,0.9,1.4,1.8,1.2
	c0.3,0.3,0.5,0.7,0.8,1c0.1,1.1,0.1,2.7,1.9,2.5c0,0,0,0,0.1,0c2.1,2.9,4.1,5.9,5.9,8.9l0.1,0.2l0,0c0.3,0.5,0.6,1,0.8,1.5
	c-0.4,0.3-0.6,0.7-0.6,0.7l-2.7,0.3v2.7l-1.3,0.5l0.2,1.7l1.8-0.2c0,0,0,2,0.5,1.2s4.7,0.2,4.3,2.2c-0.1,0.8,4.2,3,3.7,5.7
	c0.3,0.1,0.6,0.2,0.8,0.3c0.8,2.3,1.5,4.7,2.1,7l-0.3,0.6c0,0,0.3,0.2,0.6,0.5c0.5,2.1,1,4.2,1.3,6.3c-0.1,1.8-0.5,3.6-1.5,4.1
	c-2,1.2,0.2,0.5,0.2,0.5l-0.3,3.7c0.5,1.7,1.3,0.8,1.8,0c0.3-0.4,0.5-0.7,0.8-1c0.3,2.5,0.4,5.1,0.5,7.7h-20.1
	c0.1-0.1,0.3-0.5,0.3-0.5l0.8-2.4l2.8-0.8l0.3-2.2l-1.5-0.2c0,0,1.7-3,2.5-3s6.3,0,6.8-0.3s1.5-3,1.5-3.5s1.3-0.7,1.8-0.8
	c0.5-0.2,1.7-1.5,2-2.2s-0.8-4.9-1.5-4.2s-2.2,1-2.2,1l-0.5,1.9l-0.8,0.7c0,0,0.2,0.5,0,1.7s-1.7,1.9-1.7,1.9l-0.7,0.8
	c0,0-4,0.2-4.5,0c-1.5-0.7-0.5-2.7,0.5-2.5s-0.2-2.9-0.2-2.9l1.3-0.2c0,0,0.2-3,0.7-3s-0.2-1-0.8-1.5c-0.7-0.5-1.5-2.2-2.2-2
	s-3.3,0-3.3,0l-0.5,1l-1.8,0.3c0,0,0.2,1.3-0.2,1.7c-1,1.2-4.8,3.7-3.2-0.5l0.5-1v-1.5l-3-0.2c0,0-1.5-0.5-1.5-1.2s-0.2-1.5-0.2-1.5
	l-3.5-3.9l-4.2-0.5l-0.3-0.8l-2.5-0.3c-0.4-0.2-0.7-0.3-1.1-0.4c-1.2-1.9-2.4-3.7-3.8-5.4c0-0.1-0.1-0.3-0.1-0.4
	c-0.1-0.6-2-3.2-3-3.3c-0.4-0.4-0.7-0.8-1.1-1.2L302.2,98.5L302.2,98.5z M318.5,100.6c-0.2,0-0.4,0.2-0.4,0.5c0,0.7,0.8,1,0.5,1.9
	c-0.3,0.8,0.3,1.5,1,1.5s1.2,0.3,1.8,0.7c0.7,0.3,1.2,0.8,1.7,1.5l1.7-0.5c0,0,0.2-1.7-0.5-1.2s-1.2-1.2-1.8-1
	c-0.7,0.2-1-0.7-1.7-1.5s-0.5-1-1.3-1.5C319.1,100.7,318.8,100.5,318.5,100.6L318.5,100.6z M235.1,102.3c7.7,0.2,15.2,1.9,22.2,4.8
	c6.8,2.9,13.1,6.9,18.6,12.1l-1.1,1.1c-0.5-0.5-2.3-0.9-2.3-1.5c0-0.7-1.7-1.5-1.5-0.5s-1.2,1.5-1.5,1.2s-1.3,1-1.3,1
	c0,0.5-0.3,1.2,0.7,1.4c1,0.2,2.8-0.7,3,0.3c0.1,0.3,0.1,0.6,0.2,0.9l-6.6,6.6c-0.9,0-1.7-0.1-1.7-0.1c-0.5,1.5-2.8-0.2-2.2-1.2
	c0.7-1,0.7-1.7,0.7-1.7l-0.8-0.2l-1,1.9c-2.3,0-3,1.3-2.5,2.2c0.5,0.8-0.7-0.2-1,1s0.2,1.2,1.2,1.7s-0.5,0.5,0.2,1.3
	c0.4,0.5,1.4,0.4,1.7,0.5l-1.3,1.3c-1.1,0.4-2.5,0.1-2.5,0.1c0,0.3-0.2,0.6-0.5,0.7c-2.7-2.2-5.6-4-8.8-5.3c0.5-0.4,1.4-0.4,1.8-1.5
	c0.7-1.9,1-4.9,1-4.9s-2.7-0.2-2.8,0.7c-0.2,0.8-1.8,1.3-1.8,1.3s-1.3,0.5-0.8,1.2c0.5,0.7-1,1-1,1s0.1,0.5,0.1,0.9
	c-2.6-0.8-5.4-1.3-8.2-1.4L235.1,102.3L235.1,102.3z M323.5,108l-2,0.2c0.5,0.7,1.5,1.2,1.5,1.9c0,0.7-0.3,1.2,0.7,1.3
	c1,0.2,1.7-0.2,2,0.7c0.3,0.8,0.3,2.2,0.2,2.9c-0.2,0.7,0.2,1.7,1,1.7s1,0.2,1,0.7s1-1.9,1-1.9c-0.8-0.7-1.5-2.2-1.5-2.2
	s-0.8-2.4-0.8-2.7c0-0.3-1.2-0.7-1.7-0.8C324.3,109.5,323.5,108,323.5,108L323.5,108z M307.7,108.7l-1.7,0.2l0.1,1l1.7-0.2
	L307.7,108.7L307.7,108.7z M308.7,109.9v0.8h1v-0.8H308.7z M307.4,111.5c0,0-1,1.3-3,0.7c0,0-0.3,3.2-1.3,3.9h-2.3
	c0,0,0.5,0.8,1,1.4c0.5,0.5,1.7,1.5,0.5,2.2s0.2,0.5,0.2,0.5s-0.2,3.5-1.7,3s-2,1.9-2,2.5c0,0.7,5.9,0.9,5,0
	c-0.5-0.5,0.7-1.7,0.7-1.7s4,0.3,4.8,0.3s1.5-0.2,1-1s-2-0.7-2-0.7s-2,0.5-3.8-0.5s0.3-1.3,0.7-1.3c0.3,0,1.8-1.2,1.2-2
	c-0.7-0.8,0-2.4,0-1.7c0,0.7,1.8,1,2.2,0.5c0.3-0.5,0-2-0.8-2.5s1.5-0.8,0.8-1.7C307.7,112.6,307.4,111.5,307.4,111.5L307.4,111.5z
	 M310.7,116.6v1.2h1v-1.2H310.7z M312.9,117.2l-0.5,1l0.9,0.5l0.5-1L312.9,117.2L312.9,117.2z M329.1,118.6c-0.4,0.1,0.3,2-0.1,2.3
	c-0.5,0.3-0.8,1-1.3,1.5s1,1.2,1,1.7s0.3,3,0.3,3s1.2,0.5,1.3,1.2c0.2,0.7,0,2,0.5,2.2s1.5,0.8,1.2,1.5s-0.3,2-0.3,2l0.7,1.5
	l1.3,0.8c0,0,0.5-4-0.3-4.2s-0.5-2.5-0.5-2.5s0.8-3.2-0.5-3.2s-0.3-1.7-1.2-2.2c-0.8-0.5-0.3-2.9-0.7-3.5c-0.3-0.7-0.3-1.5-1.2-2
	C329.2,118.6,329.1,118.5,329.1,118.6L329.1,118.6z M288.7,121.8L287,122l0.1,1l1.7-0.2L288.7,121.8L288.7,121.8z M263.5,121.9
	c-0.5,0-1,0.1-1,0.1l-2.7,0.3l-0.2,1.2l1.8,0.2c0,0,0.8,0.7,0.8,1.2s1.2,1,1.8,1c0.7,0,2.5-1.3,2.5-1.3s0.8-2.4,0.2-2.2
	c-0.7,0.2-2,1.2-2.2,0.2C264.6,122,264,121.9,263.5,121.9L263.5,121.9z M187.4,122l16.3,16.3l-1.6-0.1c-0.7,1.5-2.3-0.2-2.3-0.2
	c-0.3-1-2.7,0-2.7,0c0,1.9-3.2-0.8-3.2-0.8l-5.8-4.2c-3.3-3-8.3,0.8-8.5,1.7c0.1,1.3-1,1.3-2.1,1.1
	C180.2,130.8,183.5,126.2,187.4,122L187.4,122z M252.9,122.4l-1,0.2l0.3,1.5l1-0.2L252.9,122.4L252.9,122.4z M258.3,122.7l-3.7,0.2
	v1l3.7-0.2V122.7z M227.1,123v1h1.3v-1H227.1z M235.6,123.2l-0.1,1l1.2,0.2l0.1-1L235.6,123.2L235.6,123.2z M237.8,123.7l-0.1,1
	l1.2,0.2l0.1-1L237.8,123.7L237.8,123.7z M224.3,124l-0.1,1l1.2,0.2l0.1-1L224.3,124z M251.7,124.1l-0.5,0.2l0.3,1l0.5-0.2
	L251.7,124.1z M292,124.5l-0.5,1.2l0.9,0.4l0.5-1.2L292,124.5z M279.6,124.7c0,0,1,0.2,1.8,0.4c0.8,1,1.6,2,2.3,3l-2.1-0.3l-1.3-0.2
	l-2.5-0.2c-2.5,1.7-3,3.7-3,3.7c-1.1,2.2-3.6-0.1-3.6-1.7l4.4-4.4c0.3,0,0.5,0,0.8,0C277.4,125,279.6,124.7,279.6,124.7L279.6,124.7
	z M240,125v1h1.3v-1C241.4,125,240,125,240,125z M223.2,125.2l-0.2,1l1.3,0.3l0.2-1C224.6,125.6,223.2,125.2,223.2,125.2z
	 M222.8,126.6l-1,0.2l0.2,1l1-0.2L222.8,126.6z M242.5,126.6h-1v1.2h1V126.6L242.5,126.6z M294.8,127.1c-0.6,0-1.4,0.1-1.8,0.2
	c-0.8,0.2-0.7,0.8,0,1.7l2-0.3c0,0,1.5-0.7,1.2-1.2C296.1,127.1,295.5,127.1,294.8,127.1L294.8,127.1z M283.7,128.1
	c0.6,0.9,1.2,1.8,1.8,2.6c-0.2,0.4-0.3,1-0.1,1.6c0.5,2.5,1.3,3.5-0.3,3.5c-1.7,0-2-1.3-2-1.3s-1.3-0.5-1.3,0.2s-0.5,2,0,2.7
	s-0.7,1.7-1.2,1.2s-1.8-2-1.5-2.5s-2.3-3.7,0.3-4.2c2.7-0.5-0.2-2,0.8-2.4l1.3-0.7h1.3L283.7,128.1L283.7,128.1z M6.3,128.7
	c-2.7,5.6-3.7,11.9-5.1,18c-3,15.8,0,32.5,4.3,47.1c5.4,18.2,23.1,31.1,32.2,47.8l1.2,1c-1.3-9-2-18.8,0.6-27.4
	c3.9-13.8,8.8-27.2,11.3-41.5c2-11.1,4.3-23.6,3-34.3c-1.5,5.8-3,11.5-6.2,16.5c-12.1,18.7-24.5,40.7-16,64.5
	c-0.2,0.3-0.5,0.6-0.8,0.4c-3.4-7.9-4.2-16.8-6.4-25.2C18.5,173.2,1.3,154.5,6.3,128.7L6.3,128.7z M459.9,128.7
	c5,25.8-12.1,44.5-18,66.8c-2.2,8.4-3,17.4-6.4,25.2c-0.3,0.2-0.6-0.2-0.8-0.4c8.5-23.8-3.9-45.7-16-64.5
	c-3.2-4.9-4.7-10.7-6.2-16.5c-1.3,10.8,1,23.2,3,34.3c2.6,14.3,7.4,27.7,11.3,41.5c2.6,8.6,1.9,18.3,0.6,27.4l1.2-1
	c9-16.6,26.8-29.6,32.2-47.8c4.3-14.5,7.3-31.3,4.3-47.1C463.6,140.7,462.5,134.3,459.9,128.7L459.9,128.7z M232.8,133.1l0.3,4
	l-1.8-0.6h-1.2l-0.5-1l-1-0.2v3.7l1,0.8l0.8,0.8l1.7,0.2l0.3,2l4.2,0.2l0.5,0.8l2.5,0.2l4.8,4.9l-0.3,1.5l-0.8,0.5
	c0.3,1.2-2.2,0.5-2.2,0.5v1l1.2,0.2l1.2,0.7l1.7-2.9c1.8-1.2,2.7,0.5,2.8,1.5c0.2,1-0.8,0.8-0.8,0.8v2.4l1,0.3
	c1.7,2-0.7,3.2-0.7,3.2l-0.5,1.7c-0.5,1.5-2.3,1.2-2.3,1.2l-0.7,1l-2,0.5l3.9,0.5c0.4-1.4,1.4-1.7,1.9-1s0.5,1.9,0.5,1.9l1,0.2
	l-0.2,1.9l1,0.3v5.4l1.2,1.3c2-0.8,2,0.5,1,1.2s-0.3,3.7-0.3,3.7l-0.8,0.8v1.4l-1,0.7v1.9c-1.7-0.8-3.7-0.5-4.2,0
	c-1.5-1-4.7-0.7-4.7,0.2c1,1.3-1.2,1.7-1.2,1.7l-1.2,1.3c0.8,1.7-0.8,1.9-0.8,1.9v3.2l-2,1.9l0.1,3c-1,0.1-2.1,0.2-3.1,0.2
	c-7.8,0-15.1-2.8-20.9-7.9c0.1-0.1,0.2-0.1,0.3-0.3c0.8-1.3,2.2-1.5,2.2-1.5l0.5-1.2l4.5,0.2c0.3-1.9,2.5-1.2,2.5-0.3
	c0,0.8,1.7,0.2,1.7,0.2l1.2-1.9h1.8l0.2-2l0.8-0.5v-3c2.7-0.8,2.3-3.4,2.3-3.4l0.7-0.8l-0.3-1.2c-1.3-0.5-0.7-1.7,0.2-1.4
	c0.8,0.3-1.2-1.5-1.2-1.5c-1,0.8-1.8-1-1.8-1h-2.5v-2.4l-0.3-2.2l-2.5-1.2l-1.8,1.7l-0.3,2.4v1.5l-1.7,0.3l-0.3,4.6l-1.3,0.5
	l0.2,1.7l-1.8,0.5l-1.8,0.5l-0.7,2l-1.3,0.8l-0.7,2l-0.8,4.8c-2.3-2.5-4.3-5.2-5.7-8.2c0.3-1.2,0.3-2.3,0.3-2.3c-1.5-0.7-0.7-3,1-1
	s-1-4.1-1-4.1l-1.3-1.2l-1.7-0.2c-0.3-1.6-0.4-3.3-0.4-5c0-0.7,0-1.4,0.1-2.1c0.5-0.5,1-0.2,1-0.2l1,0.8l1.5,1.2l0.2,1l-1,0.5
	l-0.2,1.4l0.5,1.9h1.3c0.5-2.7,4-2.7,5-1l1-2.4c-2.3-1.2,0-3,0.6-2.2c0.7,0.8,2.2-2.2,2.2-2.2s1.2,1.5,0-0.5s0.8-3,0.8-3
	c-0.3-2,2.2-1.7,2.2-1.7l0.2-2.7l-2.3-0.2c-0.5,2.4-2.5,0.3-1.5-0.2s2-1.5,2-1.5V150l1-0.3l0.2-1.7h2.5l2.2-1l0.5-0.8l2.3-0.2l3.3-3
	l-0.3-1.3c-2,0,0-1.5,0-1.5l0.3-2.5h-1.8l-0.3-3.6C228.1,133.4,230.4,133.1,232.8,133.1L232.8,133.1z M334,142.9l-0.2,1.3l1,0.1
	l0.2-1.4L334,142.9L334,142.9z M333.4,147.4l-0.5,1l0.9,0.5l0.5-1L333.4,147.4z M160.9,154.1c1.6-0.1,2.7,0.8,2.7,0.8l2.3-0.2
	c0.6,0.4,1,0.8,1.2,1.3c-0.2,1.6-0.4,3.1-0.4,4.7c-0.2,0.4-0.4,0.7-0.4,0.7c-0.2,0.3-0.3,0.8-0.4,1.3h-6.3v-0.1l-1.8-0.2
	c-2-1.2-1-5.6-1-5.6C158.2,154.9,159.7,154.2,160.9,154.1L160.9,154.1z M218.6,157.3l-0.3,0.8h-0.8l-0.2,1.4h1l0.2,1l-0.7,0.7
	l-0.3,0.8l-1.3,0.3l-3,2.9l-0.2,1.3l-0.8,1.2l-1,2.5l-3.5,0.2l-0.7,3l0.5,2.5l3,1.2l0.3-1.7l1-0.5l0.2-1.7l0.7-1.2l1-1.2l0.3-1.4
	l1.7-1l2-0.3l0.8-1l0.3-2l0.1-1.5l0.7-1l2-0.8v-3.2h-1l-0.2-1.2L218.6,157.3L218.6,157.3z M322.9,158.3l-0.2,1l1.8,0.3l0.2-1
	L322.9,158.3z M318.8,159.7l-0.5,0.3l-1.2,0.7L316,160l-0.5,0.8l1.3,0.8l0.3,0.2l0.2-0.1l1-0.6l0.1,0.3l0.9-0.4l-0.3-0.8
	L318.8,159.7L318.8,159.7z M333.3,166.8h26.9c-0.3,18.5-4.5,36-11.9,51.8l0,0c-6,12.9-14.1,24.6-23.9,34.7l-0.7-0.7
	c-0.1-1.9-0.2-4.3-0.2-4.3l-0.8-0.8l-0.2-4.2c0.7-2.2-3.2-5.4-3.5-4.7s-2.5,0.2-2.5,0.8c0,0.7-1.3,4-0.7,5.2c0,0.1,0,0.1,0.1,0.2
	l-10.5-10.5c8.2-8.5,14.6-18.1,19.3-28.6C330,193.5,333,180.4,333.3,166.8L333.3,166.8z M364.2,166.8h29.7c-0.3,24.3-6,47.3-16,67.9
	l0,0c-7.6,15.7-17.7,30-29.7,42.3l-21-21c10.3-10.6,18.5-22.6,24.6-35.6l0,0C359.6,203.8,363.9,185.6,364.2,166.8L364.2,166.8z
	 M306,166.8h23.3c-0.3,13.1-3.2,25.6-8.2,36.9c-4.5,10.2-10.8,19.5-18.4,27.5c-0.3-3.4-1.1-7.1-1.1-7.1l-1.3-0.7l0.3-4.1h-1.8
	l-3,3.9l-0.3,1.1l-1.7-1.7l0.9-0.9l-0.2-2l1.2-1V217l1-0.3l0.2-3.7l0.8-0.2v-8.1l-2.5-2.4c-0.2,0.8-2.8,0.8-2.8,0.8
	s-0.7,1.2-1.2,1.2s0.7,1.5,0.3,2.5c-0.3,1-1.7,1-1.7,1l-2.5,0.7l-0.7,0.8H284l-0.2-1.5c0.3-0.3,0.5-0.7,0.8-1l2.1-0.6l1.7-0.8
	l0.8-1.7c0.2-1.7,2.2-1.5,2.2-1.5s3.8-3.2,4-4.7s1.5-5.7,3.8-5.7h4.3c1.7-0.7,1.2-2.9,1.2-2.9l2.2-0.3l0.3,1.2c0,0,3,0.3,3.3-0.2
	s1-1.7,1.8-1.2s3.5-1.2,3.5-1.2c0.2-1.2,4.3-0.7,4.3-0.7l0.5-1.5c0,0-2.8-3.9-3.3-3.9s-3.2-2.4-3.5-1.5c-2.7-0.7-2.5-4.4-2.5-4.4
	l-1-2.4c0-1.4-2.5-4.2-3-3.9C306.2,168.3,305.9,167.5,306,166.8L306,166.8z M136.9,166.8h11.7l0.1,0.9l-2.5,2.7l0.3,2.7l-1.5,0.5
	l-0.3,1.2l-0.7,3.5l1.7,0.2c0.8-0.3,0.7,2.2,0,2.5s-2.5,1-1.5,1.7s-2.7,0.5-2.7-0.5s-2-1.9-2.5-1.5c-0.3,0.2-0.7-0.3-1-0.8
	C137.4,175.6,137,171.2,136.9,166.8L136.9,166.8z M154.1,166.8h0.8c0.4,0.1,0.8,0.3,0.8,0.3l2.3,0.2l0.2-0.4h7.9l0.7,4.3l-2.2,1.9
	c-1.8,1-1.8,3.4,0.2,3.9c1.3,0.2,0.8,3.4-1.2,1.2c-3,0,1.7,2.7,0.3,2c3,1.5,2.3-1.3,2.3-1.3l1.5-1.2c0.6,3.3,1.5,6.6,2.6,9.7l0,0
	c3.1,8.6,7.9,16.4,14.2,23.2l-21,21c-1.4-1.4-2.7-2.9-3.9-4.4c0.3-1,0.9-2.1,0.9-2.1c2.2-1.4-0.5-3.5-0.5-3.5c0.3-2-1.2-4.4-1.2-4.4
	c-3-2-2.2-5.9-2.2-5.9v-2.7c-2.5-2.4,1-2.7,1-2.7c1.2-2-0.8-3.5-0.8-3.5l-0.2-2.2l-2.7-0.3l-0.3-7.9l-6-8.6
	c-1.2-0.3-0.3-2.4-0.3-2.4c1.5-0.8-0.3-2.9-0.3-2.9l-0.2-3.7l3.5-0.3l0.8-1.3h1.7l-0.2-4.4C153.1,167.2,153.6,166.9,154.1,166.8
	L154.1,166.8z M195.6,166.8h1.9c0.1,1.2,0.2,2.4,0.4,3.5l-1,0.3l-0.3-0.7l-0.5,1.9h-3l-0.2-2l1.8-0.5l0.7-1L195.6,166.8L195.6,166.8
	z M244.9,169.1c-0.3,0-0.6,0.2-0.8,0.8v2.2c0,0,2.3,3.7,3.2,4.2c0.8,0.5,2.2-0.6,1.3-1.2c-2.5-1.7-2.3-3.9-3-5.4
	C245.4,169.4,245.2,169.1,244.9,169.1L244.9,169.1z M158,170.6l0.2,1.2h0.8c1.3,2.4,0.2,8.1,0.2,8.1s-2,0.2-2.3-0.8
	s-1.2,2.2-0.5,2.7s3,0,3.2,1.9s1.5-1.2,1.5-1.2V171L158,170.6L158,170.6z M237.9,174l-3,2.2c1.5,0.2,1.7,1.7,1.8,2.4
	c0.4,1.5,0.3-2.4,1-2.2C238.4,176.5,237.9,174,237.9,174L237.9,174z M171.4,175.3c1.4,0.5,3,2.8,3,3.2c0,0.5,6.6,0.2,6.6,0.2
	c1.8,1.2,2.5,4.2,2.5,4.2c1.8-2.4,5.7-0.2,2.8,1.2c2.7,1.7,2.7,3.2,2.7,3.2c2.2-0.7,2.2,1,2.2,1.5s0.7-2.5,0.7-2.5
	c-2.5-1.9,3.3-2.5,1.7,0.8l-1,1.5l1.7,1.3l0.2,3.9c3.7-0.3,2.7-4.9,2.7-4.9l1.7-0.3c0-1.5,1.2-0.7,1.2-0.7c-0.8-4,0.8-5.7,1.8-6.3
	c1.3,2.5,2.9,4.8,4.8,6.9l-19.1,19.1c-5.9-6.3-10.3-13.5-13.2-21.4C173,182.7,172.1,179.1,171.4,175.3L171.4,175.3z M322,179.3
	c-1.4-0.1-3.1,0.9-2.6,1.6c1,1.3,2.7,0.7,3.3,0.8c0.7,0.2,1.3,0.5,0.7-1.5C323.2,179.6,322.6,179.3,322,179.3L322,179.3z
	 M163.9,181.6c-0.4,0-0.7,0.3-0.7,0.7l0,0c0,0.4,0.3,0.7,0.7,0.7s0.7-0.3,0.7-0.7C164.7,182,164.3,181.6,163.9,181.6L163.9,181.6z
	 M162.1,183.9l-2.5,1.7l-1.7-1v4l2.7,3.5l1-2.4l0.3-1.5l-1.2-0.5l0.2-2.5l1-0.2L162.1,183.9L162.1,183.9z M223.6,188.1l-1.5,0.2
	l0.2,2.4l1,0.8l1.8,0.5c0,0,2.5-0.7,2.7-2.7l-3.8-0.2L223.6,188.1L223.6,188.1z M244.6,189.4c1.4,0,1.1,3.4,1,4.5
	c-1,0.4-2,0.8-3,1.1v-3.7l1.7-1.9C244.4,189.4,244.5,189.4,244.6,189.4L244.6,189.4z M209.4,191.4c5.8,5.2,13,8.3,20.7,8.9v0.1
	c0,0-0.6,1.5,0.1,1.8c0.7,0.2,0.5,0.4,0.9,0.8l-0.4,0.9c-0.6-0.8-1,0.6-0.6,1s-0.9,0.1-0.9,0.6s-0.4,0.8,0,1
	c0.4,0.3-0.1,0.4-0.6,0.8c-0.5,0.4,2.1,0.5,2.1,0.5s-0.5-1,0.1-1c0.1,0,0.2,0,0.3,0v1.7c-0.2-0.1-0.4-0.1-0.7-0.2v1.2l-1.3,0.2
	l1.2,1.3l0.9,0.1v2.8v0.2c0,2.2-5.5,0.7-6,0.2l-0.2,3l-1,0.2l0.2,2l-0.2,2.9l1.8-0.3v1.2l4.5,0.2l0.9-0.9v3.1v0.2l-3,0.3l-1.3,0.7
	l-0.5-1h-1.3l-0.8,1.1c-3.9-0.6-7.8-1.5-11.5-2.8l0,0c-8.2-2.8-15.8-7.4-22.3-13.5L209.4,191.4L209.4,191.4z M50.9,193
	c2.2,14.7-3.6,27.7-4.9,41.7c-1.1,11.5,0.9,22.7,5.4,32.3c1.3,2.9,3.7,5.4,4.4,8.4c-4.3-3.9-7.4-8.8-10.3-13.6
	c-13.9-22.5-43-37.1-45-64.5c-1,12.2,0.1,25.1,4.1,35.9c5.6,15,16.5,26.6,29,36.4c12.9,10.2,28.3,18.1,40.1,27.1
	c-2.3-5.9-6.1-11.3-7.6-17.4C59,251.2,62.9,218.8,50.9,193L50.9,193z M415.3,193c-12,25.8-8.1,58.2-15,86.1
	c-1.5,6.2-5.3,11.6-7.6,17.4c11.8-9,27.2-16.9,40.1-27.1c12.5-9.8,23.3-21.4,29-36.4c4.1-10.8,5.1-23.7,4.1-35.9
	c-2,27.4-31.1,42-45,64.5c-3,4.8-6,9.8-10.3,13.6c0.7-2.9,3.1-5.5,4.4-8.4c4.5-9.7,6.5-20.8,5.4-32.3
	C418.9,220.7,413,207.7,415.3,193L415.3,193z M270.4,193.6c0.4,0,0.7,0.2,0.6,0.8c-0.5,1.5,0,2.2,0,2.2c2.2-2,4,0.2,3.8,0.7
	s1.2,1,2,0.5s1.8,1.5,1.5,2.5s-3.3,0.8-3.5-0.2s-0.7-0.7-1-0.2c-0.3,0.4-1.4,0.7-2.2,0.5l-0.7-0.7c0.1-0.2,0.2-0.4,0-0.6
	c-0.2-0.2-0.5-0.2-0.9-0.2l-1.5-1.5c0-1,0.3-2.4,0.2-2.8C268.6,194.1,269.7,193.6,270.4,193.6L270.4,193.6z M162.3,194.2l-1.2,0.2
	l-0.2,1.4l1.3,0.2L162.3,194.2L162.3,194.2z M370.1,195.7c-0.7,0-1.5,0.4-2,0.7l0.6,0.8c0.6-0.4,1.5-0.6,1.6-0.5c0,0,0,0,0-0.1
	l1-0.2c-0.1-0.3-0.2-0.6-0.5-0.7C370.5,195.7,370.3,195.7,370.1,195.7L370.1,195.7z M162.8,197.4c-0.4,0-0.7,0.3-0.7,0.7
	s0.3,0.7,0.7,0.7s0.7-0.3,0.7-0.7S163.1,197.4,162.8,197.4z M245.6,198.2c0,0.4,0.2,0.9,0.2,0.9l0.8,0.3l-1.5,1.2l-1.3,1.5l-1.7-0.5
	l-2-0.2l-0.7-1.2l-1.2-0.2l-0.2,2.4l-0.8,1l-2,2c2.1,0,0.7,1.1-0.3,1.6v-6.8c2.1-0.1,4.3-0.4,6.3-0.9c0.2,0.2,0.3,0.3,0.3,0.3h1.5
	l0.1-0.8C244.1,198.7,244.9,198.5,245.6,198.2L245.6,198.2z M163.9,200.9c-0.4,0-0.7,0.3-0.7,0.7l0,0c0,0.4,0.3,0.7,0.7,0.7
	s0.7-0.3,0.7-0.7C164.6,201.2,164.3,200.9,163.9,200.9L163.9,200.9z M226.7,201.4c-0.8,0-1.5,2.6-1.9,3.2c0,0,0.4,1.4,1.1,1.3
	c0.7-0.1,1.2-0.5,1.9-0.6c0.6-0.1,0.9-1.1,1.1-2.2c0.2-1-0.2-1.5-0.2-1.5s-0.6,1-1.6,0C227,201.5,226.9,201.4,226.7,201.4
	L226.7,201.4z M160.8,202.8l-1.4,0.2v1.2l1.4-0.2V202.8L160.8,202.8z M260.9,202.8h1.2l0.2,0.8l5.1,0.5h0.2c2,1.2,1,2.7,0.3,3
	s-1.8,0.3-1.8,0.3l-0.3,0.7l-4.3,0.3l-0.3,1.7c-2.2-0.3-3,2-2.5,3.2s0,2.2,0,2.2l1.8,0.8l2.3-0.7c0.3-1.7,1.8-2,3.2-3
	c1.3-1,3.5,1.9,2.8,3.2c-0.1,0.2-0.1,0.3-0.2,0.4c-2.5,1.7-5.2,3.3-8,4.7l0,0c-4.4,2.1-9,3.8-13.9,4.8c-0.1-0.1-0.2-0.1-0.2-0.1
	l-1.8-0.5l-0.2-2.5c-0.3-1.7-3.5-1.7-3.3-0.5s-5.9,0.5-6,0.5V218l1.7-1.8l3.8-0.8c0.3-1.7,2,0.3,2,0.3c1.7-0.2,2,1,2,1l2.2,0.3
	c1.8,0.5,0.7,0.7,0.8,1.4c0.2,1,1,0.7,1,0.7l0.3-2.2l1,0.2l-1-1.2l-1.8-0.8l-2-0.8c-1.3-1.9,0.3-1.5,1.7-1.3h2.2
	c0,0,2.5,3.4,2.5,4.2s1.2,1,1.2,1l1.5-0.2l0.5,1.2h1.5l0.5,1h3l0.2-1.5l-2.8-0.5l-0.2-1.7l-2-0.5c-0.7-2.9,0.5-3.7,1.3-2.4l1,0.2
	l-0.3-2.5l1.2-0.3l-0.3-3.5l-1-0.3V206l4.2,0.2C260.4,203.8,260.9,202.8,260.9,202.8L260.9,202.8z M381.2,210.5l-0.9,0.5
	c0.1,0.2,0.1,0.5,0.2,0.7c0,0.3,0.1,0.6,0.3,0.8c0.2,0.1,0.4,0.2,0.7,0.1l-0.2-1c0.1,0,0.2,0.1,0.2,0.2c0,0,0-0.1,0-0.2
	C381.4,211.3,381.4,210.9,381.2,210.5L381.2,210.5z M380.2,212.4l-1,0.2c0.3,1,0.6,2,0.6,2.1l0.9-0.4
	C380.8,214.3,380.4,213.3,380.2,212.4L380.2,212.4z M302.2,213.4v3.2h1.2v-3.2H302.2z M266.3,214.2L265,215l0.5,0.9l1.3-0.8
	L266.3,214.2z M374.6,216.5c-0.1,0.8,0.1,1.8,0.9,1.9l0.2-1l0,0c-0.1-0.1-0.2-0.5-0.1-0.9H374.6L374.6,216.5z M241.4,218.3v2V218.3z
	 M374.1,218.4c-0.3,0-0.7,0.3-1.1,0.6c-1,0.6-0.6,3.2,0,2.5c0.6-0.6,1.4,0,1.5-1.9C374.6,218.6,374.4,218.4,374.1,218.4L374.1,218.4
	z M270.7,219.7l3.9,2c0.5,0.7,2.7,0.5,2.7,0.5l0.7,0.8c0,0,1.3-0.2,2.2,0.8c0.8,1,5.2,0.2,5.2,0.2l1.2,1l1.8,0.7l3.1,0.1l1.9,1.9
	c-3,1.4-9.1,0.9-9.5,0.5c-0.5-0.5-4-2-4-2s-2.7-2.2-3.2-1.5s-2.8-0.8-2.8-0.3s-2.2-1.2-2.2-1.2l-3.3-1.2l2.5-0.5l-0.4-1.6
	C270.5,219.8,270.6,219.8,270.7,219.7L270.7,219.7z M246.7,220.2l-1.2,0.9l0.5,0.5l0.5,0.8l1.2-1.9L246.7,220.2L246.7,220.2z
	 M90.2,229.6v1.7h1.3v2.2h1l-0.2-2.5l-1.3-0.5v-0.8L90.2,229.6L90.2,229.6z M333,230.5l-0.1,1.5l1.6,0.1l0.1-1.4L333,230.5
	L333,230.5z M331.6,234l-0.3,1c0.1,0,0.2,0.1,0.3,0.2l0.2,0.9c-0.1,0.1-0.2,0.2-0.2,0.3l0.7,0.7c0.5-0.6,0.7-1.2,0.6-1.7
	C332.7,234.4,331.8,234.1,331.6,234L331.6,234z M331.3,235L331.3,235L331.3,235L331.3,235z M302.6,237l7.3,7.3
	c-0.3,1.2-1.5,1.9-2.1,1.5c-0.7-0.5,0.8,0.8,1.2,1.5c0.3,0.7,1.3,0.7,1.7,0c0.2-0.5,0.2-1.3,0.3-2l3.4,3.4c-0.4,0.9-0.9,1.7-0.7,2.3
	l0,0l1.5,0.7l0.2,2.9c1.1,1.1,3.6,1.1,5.6,0.8l0.7,0.7c-6.1,6-12.9,11.3-20.1,15.9v-1.6c3-2.2,3.2-6.1,0.3-6.4
	c-2.1-0.3-1.2-2.5,0.8-2.9l1.2-0.5V259l3.8-3.5v-2.7l-8.3-6.9c-1.7-0.6-1.8-2.7-1.2-4.7C299.6,239.8,301.1,238.5,302.6,237
	L302.6,237z M98.5,237.4l1.2,3l0.7,1.5l1.3,1.9l1.8,1.7l0.7-1.2l-1.2-2.5l-1.2-0.8l-0.8-2.4L98.5,237.4L98.5,237.4z M66,239.8
	C76.1,260,71.7,286,84.8,305c4.1,6,9.8,11.7,15.1,16.4l-0.2,0.2c-4.8-2.2-9.1-5.6-13.5-9.2c-22.9-19.1-57.4-21.5-71.1-52.6
	c3.7,22.8,21.8,43,41.4,55.8c18.6,12.2,42.4,10.8,63,17.6c-19.1-15.4-22-38.5-30.5-58.7C83.7,262.2,75.1,250.9,66,239.8L66,239.8z
	 M400.3,239.8c-9.2,11-17.8,22.3-23.1,34.9c-8.5,20.2-11.4,43.3-30.5,58.7c20.6-6.8,44.5-5.5,63-17.6c19.5-12.8,37.6-33,41.4-55.8
	c-13.7,31.1-48.2,33.5-71.1,52.6c-4.4,3.6-8.7,7-13.5,9.2l-0.2-0.2c5.3-4.8,11-10.5,15.1-16.4C394.5,286,390.2,260,400.3,239.8
	L400.3,239.8z M139.5,247.1c1.5,0,3.4,1.7,3.7,2.4c0.1,0.4,0.6,0.9,1.1,1.3l-2.5,2.5c-1.5-1.6-3-3.2-4.5-4.9h0.7
	C138.3,247.5,138.9,247.1,139.5,247.1L139.5,247.1z M238,256.5c1,0.1,2.1,0.3,2.8,0.8c1.8,1.3,4.3,0.5,4.3,0.5l1.8,2.2
	c-3.9,0.6-7.8,0.9-11.8,1v-4C235.7,256.6,236.8,256.4,238,256.5z M324.4,258.9l21,21c-11.7,11.4-25.1,21-39.9,28.5
	c-21.2,10.7-45.1,17-70.4,17.3V296c12.1-0.2,24-2,35.3-5.4l2.9,0.9l0.8,2.7l1.3-0.2l1-0.8l4-0.2l2-1.9l2.2-0.3l15.7-13.3
	C308.9,272.2,317,266,324.4,258.9L324.4,258.9z M248.9,263.8l0.3,0.8l2.8,0.8l2,0.5l0.7,2.9l1.5,0.2l0.5,1.9
	c1.8,1.3-0.5,4.2-0.5,4.2v3.7l1.3,0.7l-0.2,1.4l2.2,2.2l2.5,0.2l4.1,4.4c-9.9,2.7-20.3,4.2-31.1,4.4V265
	C239.8,264.9,244.4,264.5,248.9,263.8L248.9,263.8z M208.7,266.5l-1,0.8l-0.5,0.4l0.5,0.4l1.2,0.8l0.6-0.8l-0.6-0.5l0.5-0.4
	L208.7,266.5L208.7,266.5z M220.5,278.6l-0.4,0.9l1,0.5l-0.3,0.3l0.7,0.7l0.8-0.8l0.5-0.5l-0.6-0.3L220.5,278.6L220.5,278.6z
	 M136.4,287.1l1.3,2l0.2,1.5l1.7,0.5l0.7,1l1.2-0.7l-0.8-2.2l-2.2-1.9L136.4,287.1L136.4,287.1z M98.9,289
	c12.5,16.8,16,41.2,38.8,49.7c4,1.5,8.7,1.8,12.1,4c-4.4,0.7-8.2-0.7-12.3-1.6C108.2,335,72.3,343,50.3,318
	c8.3,16.4,25.5,29.3,42.1,34.7c25.6,8.4,52.3-1,76.3-6.9c3.5-0.9,7.7-0.6,10.9-1.8c-13.4-2.7-26.3-6.8-36.7-16.3
	C128,314.1,114.9,299.6,98.9,289L98.9,289z M367.3,289c-15.9,10.6-29.1,25.1-44,38.7c-10.4,9.5-23.3,13.5-36.7,16.3
	c3.2,1.2,7.4,0.9,10.9,1.8c24.1,6,50.7,15.4,76.3,6.9c16.5-5.5,33.7-18.4,42.1-34.7c-22,25-57.9,17-87.2,23.2
	c-4.1,0.9-7.9,2.2-12.3,1.6c3.5-2.2,8.1-2.5,12.1-4C351.3,330.2,354.8,305.8,367.3,289L367.3,289z M208.9,343.4
	c-22.5,0-42.7,10.9-62.4,19.1c-17.9,7.4-41.6,6-57.5-5c7.8,9.8,18.3,15.9,29.2,20c20.1,8,43.6,1.9,60.8-9.1
	c12.3-7.9,22.9-19.1,37.6-19.1c2.6,0,5.2,0.3,7.8,0.8c-20.6,8.3-39.4,22.8-54,36.8c2.7,3.1,6.2,6,9.5,8.6
	c16.3-16.9,34.8-35.1,53.3-42.7c18.5,7.5,37,25.8,53.3,42.7c3.3-2.7,6.8-5.5,9.5-8.6c-14.6-14-33.4-28.5-54-36.8
	c2.6-0.5,5.2-0.8,7.8-0.8c14.7,0,25.3,11.2,37.6,19.1c17.1,10.9,40.6,17.1,60.8,9.1c10.8-4.1,21.3-10.2,29.2-20
	c-15.8,10.9-39.6,12.4-57.5,5c-19.8-8.2-39.9-19.1-62.4-19.1c-8.2,0-16.3,1.4-24.2,3.8C225.2,344.7,217.1,343.4,208.9,343.4
	L208.9,343.4z"/>
</svg>
