<?xml version="1.0" encoding="UTF-8" standalone="no"?>
<!-- Created with Inkscape (http://www.inkscape.org/) -->

<svg
   xmlns:dc="http://purl.org/dc/elements/1.1/"
   xmlns:cc="http://creativecommons.org/ns#"
   xmlns:rdf="http://www.w3.org/1999/02/22-rdf-syntax-ns#"
   xmlns:svg="http://www.w3.org/2000/svg"
   xmlns="http://www.w3.org/2000/svg"
   xmlns:sodipodi="http://sodipodi.sourceforge.net/DTD/sodipodi-0.dtd"
   xmlns:inkscape="http://www.inkscape.org/namespaces/inkscape"
   width="13.346869mm"
   height="15.748mm"
   viewBox="0 0 47.292057 55.8"
   id="svg8519"
   version="1.1"
   inkscape:version="0.91 r13725"
   sodipodi:docname="reset.svg">
  <defs
     id="defs8521" />
  <sodipodi:namedview
     id="base"
     pagecolor="#ffffff"
     bordercolor="#666666"
     borderopacity="1.0"
     inkscape:pageopacity="0.0"
     inkscape:pageshadow="2"
     inkscape:zoom="0.35"
     inkscape:cx="-674.21112"
     inkscape:cy="150.75715"
     inkscape:document-units="px"
     inkscape:current-layer="layer1"
     showgrid="false"
     fit-margin-top="0"
     fit-margin-left="0"
     fit-margin-right="0"
     fit-margin-bottom="0"
     inkscape:window-width="1920"
     inkscape:window-height="1056"
     inkscape:window-x="0"
     inkscape:window-y="24"
     inkscape:window-maximized="1" />
  <metadata
     id="metadata8524">
    <rdf:RDF>
      <cc:Work
         rdf:about="">
        <dc:format>image/svg+xml</dc:format>
        <dc:type
           rdf:resource="http://purl.org/dc/dcmitype/StillImage" />
        <dc:title></dc:title>
      </cc:Work>
    </rdf:RDF>
  </metadata>
  <g
     inkscape:label="Layer 1"
     inkscape:groupmode="layer"
     id="layer1"
     transform="translate(-353.49683,-627.31935)">
    <g
       transform="translate(299.75898,107.11935)"
       id="g133">
      <g
         id="g135">
        <path
           inkscape:connector-curvature="0"
           class="st0"
           d="m 75.9,531.1 c 0,0.3 0.3,0.6 0.6,0.6 5.8,0.1 11.5,2.6 15.2,7 1.4,1.7 2.5,3.5 3.3,5.5 2.9,7.2 1.4,15.4 -4.3,21.5 l -0.1,0.1 c -11.1,10.3 -27.3,5.7 -32.4,-6.7 -0.5,-1.1 -1.7,-1.8 -2.8,-1.4 -1.3,0.4 -2,1.8 -1.5,3 2.5,6 7.1,10.8 13.1,13.3 3.1,1.3 6.3,2 9.6,2 6,0 12.1,-2.3 17.1,-6.9 l 0.1,-0.1 c 7.2,-7.5 9,-17.7 5.5,-26.6 -1,-2.5 -2.4,-4.8 -4.1,-6.8 -4.7,-5.4 -11.5,-8.6 -18.7,-8.6 -0.3,0 -0.6,0.3 -0.6,0.6 l 0,3.5 0,0 z"
           id="path137" />
      </g>
      <path
         inkscape:connector-curvature="0"
         class="st0"
         d="m 55.9,530 16.2,9.4 c 0.1,0.1 0.3,0 0.3,-0.2 l 0,-6.6 0,-7.1 0,-5.1 c 0,-0.1 -0.1,-0.2 -0.2,-0.2 l -16.3,9.4 c -0.1,0.2 -0.1,0.4 0,0.4 z"
         id="path139" />
    </g>
  </g>
</svg>
