<svg xmlns="http://www.w3.org/2000/svg"
   xmlns:xlink="http://www.w3.org/1999/xlink"
   version="1.1"
   id="fullwave" width="100%" height="100%"  viewBox="-6 -6 534 406">
<desc>
XCircuit Version 3.7
File "fullwave.ps" Page 1
</desc>
<g stroke="black">
<path d="M320,224 L348,224 " fill="none" stroke-width="2" stroke-linejoin="bevel" stroke-linecap="round" stroke="#000000" />
<path d="M448,224 L420,224 " fill="none" stroke-width="2" stroke-linejoin="bevel" stroke-linecap="round" stroke="#000000" />
<path d="M420,224 L414,210 402,238 390,210 378,238 366,210 354,238 348,224 " fill="none" stroke-width="2" stroke-linejoin="bevel" stroke-linecap="round" stroke="#000000" />
<path d="M144,336 L144,384 208,384 208,336 z" fill="none" stroke-width="2" stroke-linejoin="bevel" stroke-linecap="round" stroke="#000000" />
<g transform="matrix(   1    0   -0    1 336 288)" fill="#000000" >
<text stroke="none" font-family="Helvetica" font-size="40" ><tspan x="0" y="0">Rload</tspan>
</text></g>
<g transform="matrix(   1    0   -0    1 368  96)" fill="#000000" >
<text stroke="none" font-family="Helvetica" font-size="40" ><tspan x="0" y="0">Cfilter</tspan>
</text></g>
<ellipse cx="304" cy="224" rx="16" ry="16" fill="none" stroke-width="2" stroke-linejoin="bevel" stroke-linecap="round" stroke="#000000" />
<path d="M336,144 L394,144 " fill="none" stroke-width="2" stroke-linejoin="bevel" stroke-linecap="round" stroke="#000000" />
<path d="M464,144 L406,144 " fill="none" stroke-width="2" stroke-linejoin="bevel" stroke-linecap="round" stroke="#000000" />
<path d="M406,112 L406,176 " fill="none" stroke-width="2" stroke-linejoin="bevel" stroke-linecap="round" stroke="#000000" />
<path d="M394,112 L394,176 " fill="none" stroke-width="2" stroke-linejoin="bevel" stroke-linecap="round" stroke="#000000" />
<path d="M400,336 L400,384 496,384 496,336 z" fill="none" stroke-width="2" stroke-linejoin="bevel" stroke-linecap="round" stroke="#000000" />
<path d="M0,0 L0,400 528,400 528,0 z" fill="none" stroke-width="2" stroke-linejoin="bevel" stroke-linecap="round" stroke="#000000" />
<ellipse cx="464" cy="224" rx="16" ry="16" fill="none" stroke-width="2" stroke-linejoin="bevel" stroke-linecap="round" stroke="#000000" />
<ellipse cx="176" cy="224" rx="16" ry="16" fill="none" stroke-width="2" stroke-linejoin="bevel" stroke-linecap="round" stroke="#000000" />
<path d="M304,240 C305,240 256,304 304,336 " fill="none" stroke-width="2" stroke-linejoin="bevel" stroke-linecap="round" stroke="#000000" />
<path d="M224,206 L256,224 224,242 z" fill="#000000" stroke="none" />
<path d="M192,224 L224,224 " fill="none" stroke-width="2" stroke-linejoin="bevel" stroke-linecap="round" stroke="#000000" />
<path d="M288,224 L256,224 " fill="none" stroke-width="2" stroke-linejoin="bevel" stroke-linecap="round" stroke="#000000" />
<path d="M256,206 L256,242 " fill="none" stroke-width="2" stroke-linejoin="bevel" stroke-linecap="round" stroke="#000000" />
<path d="M32,336 L32,384 128,384 128,336 z" fill="none" stroke-width="2" stroke-linejoin="bevel" stroke-linecap="round" stroke="#000000" />
<path d="M464,240 C465,240 528,304 464,336 " fill="none" stroke-width="2" stroke-linejoin="bevel" stroke-linecap="round" stroke="#000000" />
<path d="M80,336 C112,288 48,256 160,224 " fill="none" stroke-width="2" stroke-linejoin="bevel" stroke-linecap="round" stroke="#000000" />
<path d="M176,336 C177,336 208,288 176,240 " fill="none" stroke-width="2" stroke-linejoin="bevel" stroke-linecap="round" stroke="#000000" />
<path d="M16,32 L16,96 112,96 112,32 z" fill="none" stroke-width="2" stroke-linejoin="bevel" stroke-linecap="round" stroke="#000000" />
<path d="M32,144 L32,192 96,192 96,144 z" fill="none" stroke-width="2" stroke-linejoin="bevel" stroke-linecap="round" stroke="#000000" />
<path d="M224,94 L256,112 224,130 z" fill="#000000" stroke="none" />
<path d="M192,112 L224,112 " fill="none" stroke-width="2" stroke-linejoin="bevel" stroke-linecap="round" stroke="#000000" />
<path d="M288,112 L256,112 " fill="none" stroke-width="2" stroke-linejoin="bevel" stroke-linecap="round" stroke="#000000" />
<path d="M256,94 L256,130 " fill="none" stroke-width="2" stroke-linejoin="bevel" stroke-linecap="round" stroke="#000000" />
<ellipse cx="176" cy="112" rx="16" ry="16" fill="none" stroke-width="2" stroke-linejoin="bevel" stroke-linecap="round" stroke="#000000" />
<path d="M304,208 C305,208 272,160 288,112 " fill="none" stroke-width="2" stroke-linejoin="bevel" stroke-linecap="round" stroke="#000000" />
<path d="M336,144 C337,144 319,224 320,224 " fill="none" stroke-width="2" stroke-linejoin="bevel" stroke-linecap="round" stroke="#000000" />
<path d="M464,208 C465,208 496,176 464,144 " fill="none" stroke-width="2" stroke-linejoin="bevel" stroke-linecap="round" stroke="#000000" />
<path d="M160,112 C161,112 144,48 112,64 " fill="none" stroke-width="2" stroke-linejoin="bevel" stroke-linecap="round" stroke="#000000" />
<path d="M96,176 C97,176 160,176 176,128 " fill="none" stroke-width="2" stroke-linejoin="bevel" stroke-linecap="round" stroke="#000000" />
<g transform="matrix(   1    0   -0    1  48 368)" fill="#000000" >
<text stroke="none" font-family="Helvetica" font-size="40" ><tspan x="0" y="0">WG</tspan>
</text></g>
<g transform="matrix(   1    0   -0    1 160 368)" fill="#000000" >
<text stroke="none" font-family="Helvetica" font-size="40" ><tspan x="0" y="0">A1</tspan>
</text></g>
<path d="M288,336 L288,384 352,384 352,336 z" fill="none" stroke-width="2" stroke-linejoin="bevel" stroke-linecap="round" stroke="#000000" />
<g transform="matrix(   1    0   -0    1 288 368)" fill="#000000" >
<text stroke="none" font-family="Helvetica" font-size="40" ><tspan x="0" y="0">A3</tspan>
</text></g>
<g transform="matrix(   1    0   -0    1 400 368)" fill="#000000" >
<text stroke="none" font-family="Helvetica" font-size="40" ><tspan x="0" y="0">GND</tspan>
</text></g>
<g transform="matrix(   1    0   -0    1  32  80)" fill="#000000" >
<text stroke="none" font-family="Helvetica" font-size="40" ><tspan x="0" y="0">WG</tspan>
</text></g>
<g transform="matrix(   1    0   -0    1  32 176)" fill="#000000" >
<text stroke="none" font-family="Helvetica" font-size="40" ><tspan x="0" y="0">A2</tspan>
</text></g>
<path d="M32,48 L96,48 " fill="none" stroke-width="2" stroke-linejoin="bevel" stroke-linecap="round" stroke="#000000" />
</g>
</svg>
