<?xml version="1.0" encoding="UTF-8" standalone="no"?>
<svg
   xmlns:dc="http://purl.org/dc/elements/1.1/"
   xmlns:cc="http://creativecommons.org/ns#"
   xmlns:rdf="http://www.w3.org/1999/02/22-rdf-syntax-ns#"
   xmlns:svg="http://www.w3.org/2000/svg"
   xmlns="http://www.w3.org/2000/svg"
   xmlns:xlink="http://www.w3.org/1999/xlink"
   xmlns:sodipodi="http://sodipodi.sourceforge.net/DTD/sodipodi-0.dtd"
   xmlns:inkscape="http://www.inkscape.org/namespaces/inkscape"
   viewBox="0 0 225 150"
   width="1350"
   height="900"
   version="1.1"
   id="svg34"
   sodipodi:docname="Flag_of_India_TA.svg"
   inkscape:version="0.92.4 (5da689c313, 2019-01-14)">
  <metadata
     id="metadata40">
    <rdf:RDF>
      <cc:Work
         rdf:about="">
        <dc:format>image/svg+xml</dc:format>
        <dc:type
           rdf:resource="http://purl.org/dc/dcmitype/StillImage" />
        <dc:title></dc:title>
      </cc:Work>
    </rdf:RDF>
  </metadata>
  <defs
     id="defs38" />
  <sodipodi:namedview
     pagecolor="#ffffff"
     bordercolor="#666666"
     borderopacity="1"
     objecttolerance="10"
     gridtolerance="10"
     guidetolerance="10"
     inkscape:pageopacity="0"
     inkscape:pageshadow="2"
     inkscape:window-width="1511"
     inkscape:window-height="848"
     id="namedview36"
     showgrid="false"
     inkscape:zoom="0.26222222"
     inkscape:cx="-72.457633"
     inkscape:cy="450"
     inkscape:window-x="241"
     inkscape:window-y="257"
     inkscape:window-maximized="0"
     inkscape:current-layer="text849" />
  <rect
     width="225"
     height="150"
     fill="#f93"
     id="rect2" />
  <rect
     width="225"
     height="100"
     y="50"
     fill="#fff"
     id="rect4" />
  <rect
     width="225"
     height="50"
     y="100"
     fill="#128807"
     id="rect6" />
  <g
     transform="translate(112.5,75)"
     id="g32">
    <circle
       r="20"
       fill="#008"
       id="circle8" />
    <circle
       r="17.5"
       fill="#fff"
       id="circle10" />
    <circle
       r="3.5"
       fill="#008"
       id="circle12" />
    <g
       id="d">
      <g
         id="c">
        <g
           id="b">
          <g
             id="a">
            <circle
               r="0.875"
               fill="#008"
               transform="rotate(7.5) translate(17.5)"
               id="circle14" />
            <path
               fill="#008"
               d="M 0,17.5 0.6,7 C 0.6,7 0,2 0,2 0,2 -0.6,7 -0.6,7 L 0,17.5 z"
               id="path16" />
          </g>
          <use
             xlink:href="#a"
             transform="rotate(15)"
             id="use19" />
        </g>
        <use
           xlink:href="#b"
           transform="rotate(30)"
           id="use22" />
      </g>
      <use
         xlink:href="#c"
         transform="rotate(60)"
         id="use25" />
    </g>
    <use
       xlink:href="#d"
       transform="rotate(120)"
       id="use28" />
    <use
       xlink:href="#d"
       transform="rotate(-120)"
       id="use30" />
  </g>
  <g
     aria-label="EN"
     style="font-style:normal;font-variant:normal;font-weight:normal;font-stretch:normal;font-size:4px;line-height:12.02519798px;font-family:Arimo;-inkscape-font-specification:'Arimo, Normal';font-variant-ligatures:normal;font-variant-caps:normal;font-variant-numeric:normal;font-feature-settings:normal;text-align:start;letter-spacing:0px;word-spacing:0px;writing-mode:lr-tb;text-anchor:start;fill:#000000;fill-opacity:1;stroke:none;stroke-width:0.16666667px;stroke-linecap:butt;stroke-linejoin:miter;stroke-opacity:1"
     id="text849">
    <g
       aria-label="родрооро┐"
       style="font-style:normal;font-weight:normal;font-size:107.41350555px;line-height:1.25;font-family:sans-serif;letter-spacing:0px;word-spacing:0px;fill:#000000;fill-opacity:1;stroke:none;stroke-width:0.44755629px"
       id="text48">
      <path
         d="M 60.214511,52.480137 V 70.627146 H 73.116719 V 52.480137 Z M 47.312303,82.165706 q 0,5.2448 4.090944,9.125952 4.19584,3.776256 10.070016,3.776256 4.72032,0 8.181888,-3.041984 3.461568,-3.041984 3.461568,-7.237824 V 75.76705 h -19.40576 q -2.727296,0 -4.615424,1.888128 -1.783232,1.783232 -1.783232,4.510528 z m 6.398656,-34.825473 h 43.846529 v 5.139904 H 79.515375 v 18.147009 h 5.139904 q 7.447616,0 12.692417,4.510528 5.349694,4.510528 5.349694,10.909184 0,10.699392 -7.132926,18.251902 -7.132929,7.55251 -17.307841,7.55251 H 53.710959 q -3.251776,0 -5.454592,2.6224 -2.202816,2.6224 -2.202816,6.39866 0,2.6224 1.258752,4.93011 1.363648,2.41261 3.881152,4.09095 l -3.881152,4.51052 q -3.566464,-2.09792 -5.664384,-5.66438 -2.09792,-3.56646 -2.09792,-7.8672 0,-5.97907 4.090944,-10.07002 4.19584,-4.09094 10.070016,-4.09094 h 24.545664 q 7.447616,0 12.692416,-6.08397 5.349697,-6.083966 5.349697,-14.580542 0,-4.300736 -3.461569,-7.237824 -3.356672,-3.041984 -8.181888,-3.041984 h -5.139904 v 9.021056 q 0,6.398656 -5.349696,10.909184 -5.2448,4.51053 -12.692416,4.51053 -8.496576,0 -14.580544,-5.244802 -6.083968,-5.349696 -6.083968,-12.797312 0,-4.72032 3.776256,-8.076992 3.881152,-3.461568 9.125952,-3.461568 z"
         style="stroke-width:0.44755629px"
         id="path50" />
      <path
         d="m 154.41112,60.242442 v 33.56672 h 18.04211 q 3.77626,0 6.39866,-4.090944 2.6224,-4.19584 2.6224,-10.070016 0,-11.748352 -5.66439,-20.035136 -5.66438,-8.391681 -13.74137,-8.391681 -3.25178,0 -5.4546,2.727297 -2.20281,2.6224 -2.20281,6.29376 z m 7.65741,-14.160961 h 1.36364 q -1.88812,-2.727296 -2.93708,-5.979072 -0.94407,-3.356672 -0.94407,-6.923136 0,-7.447616 5.97907,-12.692416 6.08397,-5.349696 14.68544,-5.349696 9.65044,0 16.36378,6.81824 6.81824,6.713344 6.81824,16.363776 V 98.949066 H 196.894 V 38.319177 q 0,-7.447616 -4.93011,-12.692416 -4.82522,-5.349696 -11.74836,-5.349696 -5.97907,0 -10.17491,3.881152 -4.09094,3.776256 -4.09094,9.021056 0,3.881152 1.36365,7.552512 1.36364,3.67136 3.77625,6.608448 7.65741,3.566464 12.16794,12.377729 4.61542,8.706368 4.61542,19.93024 0,7.972096 -4.51053,13.63648 -4.51052,5.664384 -10.90918,5.664384 H 116.96324 V 47.340233 h 6.50356 v 46.468929 h 24.44077 v -33.56672 q 0,-5.979072 4.09094,-10.070017 4.19584,-4.090944 10.07002,-4.090944 z"
         style="stroke-width:0.44755629px"
         id="path52" />
    </g>
  </g>
</svg>
