<?xml version="1.0" encoding="UTF-8" standalone="no"?>
<!-- Created with Inkscape (http://www.inkscape.org/) -->

<svg
   version="1.1"
   id="svg2"
   width="180"
   height="120"
   viewBox="0 0 180 120"
   sodipodi:docname="Flag_of_Arabic_Diaspora.svg"
   inkscape:version="1.1.2 (0a00cf5339, 2022-02-04)"
   xmlns:inkscape="http://www.inkscape.org/namespaces/inkscape"
   xmlns:sodipodi="http://sodipodi.sourceforge.net/DTD/sodipodi-0.dtd"
   xmlns="http://www.w3.org/2000/svg"
   xmlns:svg="http://www.w3.org/2000/svg">
  <defs
     id="defs6" />
  <sodipodi:namedview
     id="namedview4"
     pagecolor="#ffffff"
     bordercolor="#666666"
     borderopacity="1.0"
     inkscape:pageshadow="2"
     inkscape:pageopacity="0.0"
     inkscape:pagecheckerboard="0"
     showgrid="false"
     inkscape:zoom="3.0708333"
     inkscape:cx="46.078697"
     inkscape:cy="124.07056"
     inkscape:window-width="1680"
     inkscape:window-height="1050"
     inkscape:window-x="0"
     inkscape:window-y="0"
     inkscape:window-maximized="1"
     inkscape:current-layer="g1003" />
  <g
     inkscape:groupmode="layer"
     inkscape:label="Image"
     id="g8">
    <g
       id="g1003">
      <path
         style="fill:#eff5f2"
         d="M 0,60 V 0 h 90 90 v 60 60 H 90 0 Z"
         id="path1007" />
      <path
         style="fill:#006b34"
         d="M 0,60 V 0 h 90 90 v 60 60 H 90 0 Z m 95.055391,31.970356 c 2.337808,-1.251157 4.720496,-5.653597 6.981219,-12.899035 l 1.69385,-5.428679 5.02482,-0.07284 c 4.00421,-0.05805 5.94361,-0.732661 9.54825,-3.321321 C 120.79141,68.461815 123.23745,67 123.73916,67 c 0.50172,0 1.95683,1.11194 3.23358,2.470979 4.07352,4.336072 10.13992,5.299635 18.28823,2.904835 4.66569,-1.371253 5.85435,-9.500621 3.69723,-25.28562 -1.10052,-8.053173 -1.05427,-9.294634 0.43073,-11.561025 1.58395,-2.417415 1.55506,-2.685915 -0.60319,-5.605107 l -2.26684,-3.066064 -2.35182,2.734151 c -1.63053,1.895604 -2.19681,3.527522 -1.84639,5.321001 1.82453,9.338232 3.8784,26.12564 3.36125,27.473329 C 145.18169,63.690095 143.48398,64 136.84282,64 h -8.21994 l 2.18856,-2.038955 C 135.66568,57.43863 131.50875,50 124.12724,50 c -5.61768,0 -6.95451,0.741104 -9.16984,5.083497 -2.52802,4.955334 -2.47136,5.57069 0.5835,6.337412 C 120.10953,62.567561 117.0308,64 109.99769,64 c -5.96541,0 -7.09056,-0.294509 -8.42976,-2.206481 -1.52416,-2.176037 -1.56596,-2.179486 -3.03,-0.25 -2.705317,3.565395 -2.747968,5.422198 -0.223659,9.737069 L 100.78273,75.5 97.141367,79.576183 c -4.971333,5.56496 -8.63994,7.766141 -14.054934,8.433026 L 78.5,88.574052 82,90.783288 c 3.742102,2.362053 9.826241,2.915256 13.055391,1.187068 z m -48.01099,-8.05332 c 1.024086,-1.913523 1.257056,-1.954196 2.863925,-0.5 2.445749,2.213372 3.588165,1.983462 4.945356,-0.995248 1.026599,-2.25314 0.889233,-2.813288 -1.089485,-4.442654 -2.217667,-1.826128 -2.296951,-1.822081 -3.858066,0.196954 -1.318156,1.70481 -1.955472,1.867873 -3.684259,0.942655 -2.78799,-1.492088 -2.974228,-1.449987 -4.266392,0.964444 -0.889426,1.661906 -0.764083,2.470823 0.619803,4 2.213641,2.446045 3.08852,2.413519 4.469118,-0.166151 z m 27.367206,-2.207791 c 1.332042,-2.111726 -1.469246,-5.284841 -3.856747,-4.36867 -2.573889,0.987694 -3.103984,3.784727 -1.007777,5.317512 2.187085,1.599235 3.407378,1.361213 4.864524,-0.948842 z M 46.857435,71.073032 c 1.355046,-2.025673 1.360612,-2.025323 3.161907,0.198861 1.626583,2.008457 2.647433,2.217199 10.355408,2.117462 6.010526,-0.07777 9.278194,-0.58716 10.998852,-1.714579 C 75.946129,68.678741 77.100451,60.312322 74.019163,52.5 l -1.183242,-3 -1.876045,3.5 C 68.664487,57.282339 68.541209,59.374348 70.48899,60.990862 73.214676,63.252981 70.968507,64 61.440983,64 52.414373,64 52,63.904567 52,61.825686 v -2.174314 l -2.314451,2.174314 C 47.723712,63.668736 46.200179,64 39.685549,64 35.458497,64 31.991928,63.6625 31.982063,63.25 31.914434,60.42217 28.991027,43.657694 28.475668,43.142335 27.337053,42.00372 25,46.293534 25,49.52215 c 0,2.357021 -0.647499,3.486422 -2.596955,4.529739 -4.637514,2.481922 -7.540203,6.834872 -7.205145,10.805028 0.262808,3.114055 0.743731,3.705549 3.69761,4.54775 3.095974,0.882715 3.599309,0.71253 5.705747,-1.929195 2.580856,-3.236702 2.730975,-3.199106 4.090807,1.024528 1.351981,4.199248 4.676985,5.698674 11.307936,5.099368 4.052112,-0.36623 5.857348,-1.031294 6.857435,-2.526336 z M 21,59.860243 c 0,-1.110309 2.865957,-3.764802 4.133423,-3.82844 C 25.481805,56.014312 25.981903,57.125 26.244751,58.5 26.664454,60.695535 26.374186,61 23.861328,61 22.287598,61 21,60.487109 21,59.860243 Z m 143.57878,8.462982 c 0.86555,-5.771912 -1.54283,-37.501876 -2.81431,-37.078049 -0.50735,0.169117 -1.65399,1.513122 -2.54809,2.986678 -1.50305,2.477157 -1.49648,3.757127 0.0871,16.973669 0.94202,7.861963 1.7091,15.981977 1.70463,18.044477 -0.0123,5.687487 2.68371,4.987715 3.57064,-0.926775 z M 22.414351,38.818818 c 1.488998,-2.125842 1.579393,-2.134455 3.562835,-0.339464 2.24326,2.030122 2.221857,2.037524 4.006102,-1.385485 1.113072,-2.135388 0.987661,-2.609277 -1.114545,-4.211524 -2.294734,-1.748985 -2.415994,-1.743775 -3.881062,0.16676 -1.373573,1.791221 -1.708042,1.835063 -3.645702,0.477873 -1.974437,-1.382949 -2.258757,-1.302937 -3.816141,1.073933 -1.580909,2.412772 -1.577841,2.684145 0.05069,4.483651 2.217443,2.450246 2.964202,2.409226 4.837824,-0.265744 z"
         id="path1005" />
    </g>
  </g>
</svg>
