<?xml version="1.0" encoding="UTF-8" standalone="no"?>
<svg
   xmlns:dc="http://purl.org/dc/elements/1.1/"
   xmlns:cc="http://creativecommons.org/ns#"
   xmlns:rdf="http://www.w3.org/1999/02/22-rdf-syntax-ns#"
   xmlns:svg="http://www.w3.org/2000/svg"
   xmlns="http://www.w3.org/2000/svg"
   xmlns:xlink="http://www.w3.org/1999/xlink"
   xmlns:sodipodi="http://sodipodi.sourceforge.net/DTD/sodipodi-0.dtd"
   xmlns:inkscape="http://www.inkscape.org/namespaces/inkscape"
   viewBox="0 0 225 150"
   width="1350"
   height="900"
   version="1.1"
   id="svg34"
   sodipodi:docname="Flag_of_India_GU.svg"
   inkscape:version="0.92.4 (5da689c313, 2019-01-14)">
  <metadata
     id="metadata40">
    <rdf:RDF>
      <cc:Work
         rdf:about="">
        <dc:format>image/svg+xml</dc:format>
        <dc:type
           rdf:resource="http://purl.org/dc/dcmitype/StillImage" />
        <dc:title></dc:title>
      </cc:Work>
    </rdf:RDF>
  </metadata>
  <defs
     id="defs38" />
  <sodipodi:namedview
     pagecolor="#ffffff"
     bordercolor="#666666"
     borderopacity="1"
     objecttolerance="10"
     gridtolerance="10"
     guidetolerance="10"
     inkscape:pageopacity="0"
     inkscape:pageshadow="2"
     inkscape:window-width="1511"
     inkscape:window-height="848"
     id="namedview36"
     showgrid="false"
     inkscape:zoom="0.24224955"
     inkscape:cx="-260.49728"
     inkscape:cy="636.64963"
     inkscape:window-x="241"
     inkscape:window-y="257"
     inkscape:window-maximized="0"
     inkscape:current-layer="text849" />
  <rect
     width="225"
     height="150"
     fill="#f93"
     id="rect2" />
  <rect
     width="225"
     height="100"
     y="50"
     fill="#fff"
     id="rect4" />
  <rect
     width="225"
     height="50"
     y="100"
     fill="#128807"
     id="rect6" />
  <g
     transform="translate(112.5,75)"
     id="g32">
    <circle
       r="20"
       fill="#008"
       id="circle8" />
    <circle
       r="17.5"
       fill="#fff"
       id="circle10" />
    <circle
       r="3.5"
       fill="#008"
       id="circle12" />
    <g
       id="d">
      <g
         id="c">
        <g
           id="b">
          <g
             id="a">
            <circle
               r="0.875"
               fill="#008"
               transform="rotate(7.5) translate(17.5)"
               id="circle14" />
            <path
               fill="#008"
               d="M 0,17.5 0.6,7 C 0.6,7 0,2 0,2 0,2 -0.6,7 -0.6,7 L 0,17.5 z"
               id="path16" />
          </g>
          <use
             xlink:href="#a"
             transform="rotate(15)"
             id="use19" />
        </g>
        <use
           xlink:href="#b"
           transform="rotate(30)"
           id="use22" />
      </g>
      <use
         xlink:href="#c"
         transform="rotate(60)"
         id="use25" />
    </g>
    <use
       xlink:href="#d"
       transform="rotate(120)"
       id="use28" />
    <use
       xlink:href="#d"
       transform="rotate(-120)"
       id="use30" />
  </g>
  <g
     aria-label="EN"
     style="font-style:normal;font-variant:normal;font-weight:normal;font-stretch:normal;font-size:4px;line-height:12.02519798px;font-family:Arimo;-inkscape-font-specification:'Arimo, Normal';font-variant-ligatures:normal;font-variant-caps:normal;font-variant-numeric:normal;font-feature-settings:normal;text-align:start;letter-spacing:0px;word-spacing:0px;writing-mode:lr-tb;text-anchor:start;fill:#000000;fill-opacity:1;stroke:none;stroke-width:0.16666667px;stroke-linecap:butt;stroke-linejoin:miter;stroke-opacity:1"
     id="text849">
    <text
       xml:space="preserve"
       style="font-style:normal;font-weight:normal;font-size:6.66666698px;line-height:1.25;font-family:sans-serif;letter-spacing:0px;word-spacing:0px;fill:#000000;fill-opacity:1;stroke:none;stroke-width:0.02777778px"
       x="-244.06781"
       y="-0.63559324"
       id="text76"><tspan
         sodipodi:role="line"
         id="tspan74"
         x="-244.06781"
         y="5.2628446"
         style="stroke-width:0.02777778px"></tspan></text>
    <g
       id="g147"
       transform="matrix(23.533141,0,0,23.533141,4431.0747,-1482.1594)">
      <path
         style="fill:#8c8c8c;fill-opacity:1;stroke-width:0.02777778px"
         d="m -185.51762,68.543067 c -0.58503,-0.46019 -0.32086,-0.8016 0.30364,-0.392411 0.5182,0.339538 0.93577,0.223738 0.93577,-0.259505 0,-0.281878 -0.0869,-0.34 -0.44379,-0.296898 -0.58003,0.07005 -0.70735,-0.318788 -0.15017,-0.458632 0.57738,-0.144912 1.26063,0.309004 1.26063,0.837497 0,0.900451 -1.07664,1.222385 -1.90608,0.569949 z m 0.73941,-3.228553 c 0,-1.472222 0.0234,-1.583333 0.33334,-1.583333 0.30994,0 0.33333,0.111111 0.33333,1.583333 0,1.472222 -0.0234,1.583333 -0.33333,1.583333 -0.30994,0 -0.33334,-0.111111 -0.33334,-1.583333 z m 2.99368,1.238187 c -0.13431,-0.250962 -0.13495,-0.487901 -0.002,-0.868282 0.16568,-0.475272 0.13766,-0.567839 -0.30624,-1.011739 -0.56182,-0.561819 -1.07501,-0.510199 -0.98844,0.09942 0.0348,0.245014 0.18717,0.394713 0.43796,0.430263 0.43357,0.06146 0.40828,0.415655 -0.0358,0.501758 -0.73876,0.143232 -1.24136,-1.139892 -0.67022,-1.711038 0.42489,-0.424885 1.01088,-0.311342 1.63999,0.317769 l 0.57968,0.579674 0.40782,-0.521102 c 0.29239,-0.373605 0.49149,-0.488996 0.70341,-0.407674 0.26115,0.100212 0.23277,0.178233 -0.24357,0.669694 -0.47522,0.4903 -0.52565,0.628239 -0.4253,1.163161 0.1271,0.67751 -0.10642,1.10324 -0.60514,1.10324 -0.16888,0 -0.39018,-0.155316 -0.49178,-0.345146 z m -5.45659,-0.414304 c -0.39279,-0.275117 -0.5029,-0.74055 -0.17521,-0.74055 0.10737,0 0.32699,0.11926 0.48806,0.265022 0.47008,0.425424 0.9834,0.160038 0.9834,-0.508421 0,-0.56602 -0.21335,-0.756601 -0.84697,-0.756601 -0.18453,0 -0.3197,-0.114976 -0.3197,-0.271945 0,-0.221501 0.12487,-0.255195 0.6732,-0.181649 0.90282,0.121093 1.16013,0.37141 1.16013,1.128572 0,1.069393 -1.10277,1.668037 -1.96291,1.065572 z"
         id="path151"
         inkscape:connector-curvature="0" />
      <path
         style="fill:#333333;fill-opacity:1;stroke-width:0.02777778px"
         d="m -185.03399,68.73926 c -0.18652,-0.0756 -0.44902,-0.27239 -0.58334,-0.437308 -0.22295,-0.273747 -0.21519,-0.287465 0.0891,-0.157596 0.18334,0.07824 0.55834,0.148532 0.83334,0.156205 0.39354,0.01098 0.5,-0.05702 0.5,-0.31938 0,-0.22957 -0.12971,-0.350697 -0.41667,-0.389113 -0.68623,-0.09187 -0.79805,-0.360887 -0.15,-0.360887 0.70622,0 0.98333,0.245397 0.98333,0.870792 0,0.352008 -0.10786,0.511801 -0.42751,0.633333 -0.23514,0.0894 -0.44139,0.157787 -0.45834,0.151977 -0.0169,-0.0058 -0.18342,-0.07242 -0.36993,-0.148023 z m 0.25578,-3.424746 c 0,-1.296296 0.0453,-1.583333 0.25,-1.583333 0.20468,0 0.25,0.287037 0.25,1.583333 0,1.296296 -0.0453,1.583333 -0.25,1.583333 -0.20468,0 -0.25,-0.287037 -0.25,-1.583333 z m 3.2,1.383333 c -0.24334,-0.243345 -0.25746,-0.714536 -0.0339,-1.132214 0.22611,-0.422488 -0.5516,-1.374489 -1.0632,-1.301478 -0.50052,0.07143 -0.58639,0.79229 -0.10924,0.917069 0.35968,0.09406 0.38811,0.394932 0.048,0.50829 -0.27269,0.0909 -0.875,-0.568775 -0.875,-0.958333 0,-0.183334 0.15384,-0.48717 0.34186,-0.675192 0.42582,-0.425818 0.90343,-0.315089 1.53079,0.354894 0.25079,0.26783 0.51794,0.486964 0.59366,0.486964 0.0757,0 0.30944,-0.232333 0.51938,-0.516296 0.27673,-0.374296 0.43195,-0.466063 0.56436,-0.333657 0.1324,0.132406 0.0409,0.331704 -0.33282,0.724629 -0.421,0.442674 -0.49989,0.641528 -0.43054,1.085184 0.0485,0.310317 -0.003,0.649718 -0.12129,0.791667 -0.2496,0.300751 -0.37052,0.310024 -0.63207,0.04847 z m -5.54387,-0.608731 c -0.22337,-0.181083 -0.34863,-0.386948 -0.27835,-0.457478 0.0703,-0.07053 0.21653,-0.03948 0.325,0.06899 0.46502,0.465017 1.29722,0.110395 1.29722,-0.552778 0,-0.480447 -0.31148,-0.75 -0.86666,-0.75 -0.25667,0 -0.46667,-0.075 -0.46667,-0.166666 0,-0.09167 0.28838,-0.166667 0.64084,-0.166667 0.86373,0 1.27127,0.44451 1.12455,1.226587 -0.18158,0.967906 -1.07252,1.368252 -1.77593,0.798015 z"
         id="path149"
         inkscape:connector-curvature="0" />
    </g>
  </g>
</svg>
