<?xml version="1.0" encoding="UTF-8" standalone="no"?>
<svg
   xmlns:dc="http://purl.org/dc/elements/1.1/"
   xmlns:cc="http://creativecommons.org/ns#"
   xmlns:rdf="http://www.w3.org/1999/02/22-rdf-syntax-ns#"
   xmlns:svg="http://www.w3.org/2000/svg"
   xmlns="http://www.w3.org/2000/svg"
   xmlns:xlink="http://www.w3.org/1999/xlink"
   xmlns:sodipodi="http://sodipodi.sourceforge.net/DTD/sodipodi-0.dtd"
   xmlns:inkscape="http://www.inkscape.org/namespaces/inkscape"
   viewBox="0 0 225 150"
   width="1350"
   height="900"
   version="1.1"
   id="svg34"
   sodipodi:docname="Flag_of_India_0R.svg"
   inkscape:version="0.92.4 (5da689c313, 2019-01-14)">
  <metadata
     id="metadata40">
    <rdf:RDF>
      <cc:Work
         rdf:about="">
        <dc:format>image/svg+xml</dc:format>
        <dc:type
           rdf:resource="http://purl.org/dc/dcmitype/StillImage" />
        <dc:title></dc:title>
      </cc:Work>
    </rdf:RDF>
  </metadata>
  <defs
     id="defs38" />
  <sodipodi:namedview
     pagecolor="#ffffff"
     bordercolor="#666666"
     borderopacity="1"
     objecttolerance="10"
     gridtolerance="10"
     guidetolerance="10"
     inkscape:pageopacity="0"
     inkscape:pageshadow="2"
     inkscape:window-width="1511"
     inkscape:window-height="848"
     id="namedview36"
     showgrid="false"
     inkscape:zoom="0.24224955"
     inkscape:cx="-260.49728"
     inkscape:cy="636.64963"
     inkscape:window-x="241"
     inkscape:window-y="257"
     inkscape:window-maximized="0"
     inkscape:current-layer="text849" />
  <rect
     width="225"
     height="150"
     fill="#f93"
     id="rect2" />
  <rect
     width="225"
     height="100"
     y="50"
     fill="#fff"
     id="rect4" />
  <rect
     width="225"
     height="50"
     y="100"
     fill="#128807"
     id="rect6" />
  <g
     transform="translate(112.5,75)"
     id="g32">
    <circle
       r="20"
       fill="#008"
       id="circle8" />
    <circle
       r="17.5"
       fill="#fff"
       id="circle10" />
    <circle
       r="3.5"
       fill="#008"
       id="circle12" />
    <g
       id="d">
      <g
         id="c">
        <g
           id="b">
          <g
             id="a">
            <circle
               r="0.875"
               fill="#008"
               transform="rotate(7.5) translate(17.5)"
               id="circle14" />
            <path
               fill="#008"
               d="M 0,17.5 0.6,7 C 0.6,7 0,2 0,2 0,2 -0.6,7 -0.6,7 L 0,17.5 z"
               id="path16" />
          </g>
          <use
             xlink:href="#a"
             transform="rotate(15)"
             id="use19" />
        </g>
        <use
           xlink:href="#b"
           transform="rotate(30)"
           id="use22" />
      </g>
      <use
         xlink:href="#c"
         transform="rotate(60)"
         id="use25" />
    </g>
    <use
       xlink:href="#d"
       transform="rotate(120)"
       id="use28" />
    <use
       xlink:href="#d"
       transform="rotate(-120)"
       id="use30" />
  </g>
  <g
     aria-label="EN"
     style="font-style:normal;font-variant:normal;font-weight:normal;font-stretch:normal;font-size:4px;line-height:12.02519798px;font-family:Arimo;-inkscape-font-specification:'Arimo, Normal';font-variant-ligatures:normal;font-variant-caps:normal;font-variant-numeric:normal;font-feature-settings:normal;text-align:start;letter-spacing:0px;word-spacing:0px;writing-mode:lr-tb;text-anchor:start;fill:#000000;fill-opacity:1;stroke:none;stroke-width:0.16666667px;stroke-linecap:butt;stroke-linejoin:miter;stroke-opacity:1"
     id="text849">
    <text
       xml:space="preserve"
       style="font-style:normal;font-weight:normal;font-size:6.66666698px;line-height:1.25;font-family:sans-serif;letter-spacing:0px;word-spacing:0px;fill:#000000;fill-opacity:1;stroke:none;stroke-width:0.02777778px"
       x="-244.06781"
       y="-0.63559324"
       id="text76"><tspan
         sodipodi:role="line"
         id="tspan74"
         x="-244.06781"
         y="5.2628446"
         style="stroke-width:0.02777778px"></tspan></text>
    <g
       aria-label="ଓଡ଼ି"
       style="font-style:normal;font-weight:normal;font-size:92.66799164px;line-height:1.25;font-family:sans-serif;letter-spacing:0px;word-spacing:0px;fill:#000000;fill-opacity:1;stroke:none;stroke-width:0.38611662px"
       id="text272">
      <path
         d="m 114.09762,84.639577 q 0,4.751044 -1.90042,8.642376 -1.85517,3.891332 -5.15828,6.651462 -3.25786,2.714885 -7.782661,4.253315 -4.524804,1.49319 -9.818825,1.49319 -16.560784,0 -25.157912,-10.452301 -8.55188,-10.452298 -8.55188,-30.859166 0,-17.601488 11.131019,-31.990366 h 5.927493 q -11.673995,15.474831 -11.673995,31.990366 0,8.551881 1.809922,15.339087 1.85517,6.741958 5.384517,11.402507 3.574595,4.660548 8.77812,7.149191 5.203525,2.443392 11.990732,2.443392 4.298564,0 7.873159,-1.085951 3.619841,-1.131201 6.198981,-3.212611 2.57914,-2.08141 4.02708,-5.067781 1.44793,-3.031619 1.44793,-6.787206 0,-3.167363 -1.1312,-6.01799 -1.08595,-2.895875 -3.03162,-5.067781 -1.94566,-2.217154 -4.570048,-3.529347 -2.579139,-1.312193 -5.610757,-1.312193 -2.579139,0 -5.475014,1.447937 -2.850626,1.447937 -6.47047,5.158277 L 78.532656,70.92942 q 6.289478,-6.968199 13.529164,-7.601671 3.348356,-0.180993 6.153734,-1.357442 2.805376,-1.221697 4.841536,-3.303107 2.03617,-2.08141 3.16737,-4.932037 1.1312,-2.850626 1.1312,-6.334726 0,-2.217154 -0.67872,-4.117571 -0.63347,-1.945666 -1.85517,-3.393604 -1.17645,-1.447937 -2.89588,-2.262402 -1.71942,-0.859713 -3.84608,-0.859713 -1.764674,0 -3.484099,0.678721 -1.719426,0.633473 -3.122115,1.719426 -1.357441,1.085953 -2.217154,2.53389 -0.814465,1.447937 -0.814465,3.031619 0,3.665091 1.764674,6.01799 l -4.434309,2.669634 q -1.312193,-1.583681 -2.081409,-3.393603 -0.723969,-1.809922 -0.723969,-4.117572 0,-3.031619 1.176449,-5.610757 1.221697,-2.624387 3.257859,-4.570053 2.036162,-1.945665 4.705796,-3.031618 2.714883,-1.131202 5.701254,-1.131202 3.303108,0 6.108488,1.312194 2.85062,1.266945 4.88679,3.574595 2.08141,2.262402 3.21261,5.384517 1.17645,3.076867 1.17645,6.696711 0,11.493002 -9.90932,17.058512 10.81428,6.379974 10.81428,19.049426 z"
         style="stroke-width:0.38611662px"
         id="path274" />
      <path
         d="m 189.88809,65.680647 q 0,7.827911 -4.02708,11.854987 l -4.5248,-2.714883 q 1.31219,-2.217154 2.12666,-4.343812 0.85971,-2.126658 0.85971,-4.886788 0,-6.289478 -2.21716,-11.583499 -2.21715,-5.294021 -6.15373,-9.140105 -3.89133,-3.846084 -9.2306,-5.972742 -5.33927,-2.126658 -11.5835,-2.126658 -3.52935,0 -6.8777,0.995457 -3.30311,0.950209 -6.19898,2.669635 -2.89588,1.719425 -5.33927,4.072324 -2.4434,2.352898 -4.16282,5.06778 -1.71943,2.714883 -2.71489,5.746502 -0.9502,3.031619 -0.9502,6.063238 0,2.398146 0.72396,4.343812 0.72397,1.945666 1.99092,3.393603 1.26694,1.447937 2.98637,2.352898 1.76467,0.859713 3.84608,1.131201 6.60622,-7.692167 14.34363,-8.868616 l 3.98183,3.891332 q -3.5746,0.90496 -6.65146,2.714882 -3.07687,1.764674 -5.33927,4.208068 -2.2624,2.443394 -3.5746,5.429765 -1.26694,2.941123 -1.26694,6.24423 0,3.031619 1.2217,5.610757 1.22169,2.579139 3.3031,4.479557 2.12666,1.900417 4.93204,2.986371 2.80538,1.040707 5.92749,1.040707 3.21261,0 5.9275,-1.131204 2.76013,-1.176449 4.75104,-3.167363 2.03616,-2.036161 3.16736,-4.705796 1.1312,-2.714883 1.1312,-5.836998 0,-4.434308 -4.16281,-9.00436 l -8.05416,8.461384 -4.4343,-3.981828 17.33,-17.420496 4.07232,4.16282 -5.11303,4.886788 q 6.19898,5.113029 6.19898,12.805196 0,4.524805 -1.71942,8.280392 -1.67418,3.755588 -4.52481,6.470475 -2.85062,2.71488 -6.60621,4.20806 -3.71034,1.49319 -7.78266,1.49319 -4.84155,0 -8.86862,-1.58368 -4.02708,-1.62893 -6.9682,-4.434311 -2.89587,-2.850627 -4.5248,-6.69671 -1.62893,-3.846084 -1.62893,-8.370888 0,-3.438851 1.85517,-7.058695 -12.12648,-2.76013 -12.12648,-16.017807 0,-4.16282 1.2217,-8.008904 1.26694,-3.891331 3.4841,-7.239686 2.21715,-3.393604 5.24877,-6.198982 3.07687,-2.805379 6.69671,-4.796293 3.61984,-1.990914 7.69217,-3.076867 4.11757,-1.085953 8.37089,-1.085953 7.23968,0 13.43866,2.579139 6.19899,2.53389 10.72379,7.103942 4.57005,4.570053 7.14919,10.904779 2.62439,6.289478 2.62439,13.800653 z m -25.02217,55.881333 q 0,1.49318 -0.67872,2.80538 -0.63347,1.35744 -1.76467,2.39814 -1.08596,1.04071 -2.53389,1.62893 -1.44794,0.63348 -2.98638,0.63348 -1.58368,0 -2.94112,-0.63348 -1.31219,-0.58822 -2.30765,-1.62893 -0.95021,-1.0407 -1.53843,-2.39814 -0.54298,-1.3122 -0.54298,-2.80538 0,-1.53843 0.54298,-2.94112 0.54297,-1.40269 1.49318,-2.4434 0.99546,-0.99545 2.3529,-1.62893 1.35744,-0.58822 2.94112,-0.58822 1.58369,0 3.03162,0.58822 1.44794,0.58823 2.53389,1.58368 1.08596,1.04071 1.71943,2.39815 0.67872,1.40269 0.67872,3.03162 z"
         style="stroke-width:0.38611662px"
         id="path276" />
      <path
         d="m 183.77959,25.998113 q -10.54279,-9.456841 -24.16245,-9.456841 -13.25768,0 -24.20771,9.456841 l -3.43885,-4.072324 q 12.12648,-10.769034 26.78684,-10.769034 8.14465,0 15.1581,2.714883 7.01344,2.669634 13.39342,8.32564 z"
         style="stroke-width:0.38611662px"
         id="path278" />
    </g>
  </g>
</svg>
