<svg id="Layer_1" data-name="Layer 1" xmlns="http://www.w3.org/2000/svg" viewBox="0 0 500 500"><defs><style>.cls-1{fill:#b9b9ba;}.cls-2{fill:#989898;}.cls-3{fill:#868686;}.cls-4{fill:#5d5e5f;}.cls-5{fill:#4b4d4d;}.cls-6{fill:none;stroke:#000;stroke-linecap:round;stroke-linejoin:round;stroke-width:20px;}.cls-7{fill:#f6b956;}</style></defs><title>error</title><rect class="cls-1" x="133" y="441.56" width="234.01" height="38.92"/><rect class="cls-2" x="317.27" y="441.56" width="49.73" height="38.92"/><polygon class="cls-2" points="318.87 441.56 181.13 441.56 196.05 372.73 303.95 372.73 318.87 441.56"/><polygon class="cls-3" points="303.95 372.73 254.22 372.73 269.14 441.56 318.87 441.56 303.95 372.73"/><rect class="cls-4" x="11.29" y="19.52" width="477.42" height="353.21" rx="24.87" ry="24.87"/><path class="cls-5" d="M463.84,19.52H414.11A24.86,24.86,0,0,1,439,44.38V347.86a24.86,24.86,0,0,1-24.87,24.87h49.73a24.86,24.86,0,0,0,24.87-24.87V44.38A24.86,24.86,0,0,0,463.84,19.52Z"/><path class="cls-1" d="M11.29,311.67v35.91a25,25,0,0,0,24.87,25.15H463.84a25,25,0,0,0,24.87-25.15V311.67Z"/><path class="cls-2" d="M439,347.86a24.86,24.86,0,0,1-24.87,24.87h49.73a25,25,0,0,0,24.87-25.15V311.67H439Z"/><rect class="cls-6" x="11.29" y="19.52" width="477.42" height="353.21" rx="24.87" ry="24.87"/><path class="cls-6" d="M11.29,311.67v35.91a25,25,0,0,0,24.87,25.15H463.84a25,25,0,0,0,24.87-25.15V311.67Z"/><polygon class="cls-6" points="318.87 441.56 181.13 441.56 196.05 372.73 303.95 372.73 318.87 441.56"/><rect class="cls-6" x="133" y="441.56" width="234.01" height="38.92"/><path class="cls-7" d="M267.44,75.88,357,229.31a20.2,20.2,0,0,1-17.44,30.37H160.44A20.2,20.2,0,0,1,143,229.31L232.56,75.88A20.19,20.19,0,0,1,267.44,75.88Z"/><path class="cls-6" d="M267.44,75.88,357,229.31a20.2,20.2,0,0,1-17.44,30.37H160.44A20.2,20.2,0,0,1,143,229.31L232.56,75.88A20.19,20.19,0,0,1,267.44,75.88Z"/><line class="cls-6" x1="250" y1="128.32" x2="250" y2="177.25"/><line class="cls-6" x1="250" y1="223.47" x2="250" y2="207.01"/></svg>