<svg xmlns="http://www.w3.org/2000/svg"
   xmlns:xlink="http://www.w3.org/1999/xlink"
   version="1.1"
   id="clipping" width="100%" height="100%"  viewBox="-6 -6 566 262">
<desc>
XCircuit Version 3.8
File "clipping.ps" Page 1
</desc>
<g stroke="black">
<path d="M192,80 L220,80 " fill="none" stroke-width="2" stroke-linejoin="bevel" stroke-linecap="round" stroke="#000000" />
<path d="M320,80 L292,80 " fill="none" stroke-width="2" stroke-linejoin="bevel" stroke-linecap="round" stroke="#000000" />
<path d="M292,80 L286,66 274,94 262,66 250,94 238,66 226,94 220,80 " fill="none" stroke-width="2" stroke-linejoin="bevel" stroke-linecap="round" stroke="#000000" />
<path d="M176,192 L176,240 240,240 240,192 z" fill="none" stroke-width="2" stroke-linejoin="bevel" stroke-linecap="round" stroke="#000000" />
<ellipse cx="336" cy="80" rx="16" ry="16" fill="none" stroke-width="2" stroke-linejoin="bevel" stroke-linecap="round" stroke="#000000" />
<path d="M304,192 L304,240 368,240 368,192 z" fill="none" stroke-width="2" stroke-linejoin="bevel" stroke-linecap="round" stroke="#000000" />
<path d="M432,192 L432,240 528,240 528,192 z" fill="none" stroke-width="2" stroke-linejoin="bevel" stroke-linecap="round" stroke="#000000" />
<path d="M0,0 L0,256 560,256 560,0 z" fill="none" stroke-width="2" stroke-linejoin="bevel" stroke-linecap="round" stroke="#000000" />
<ellipse cx="464" cy="80" rx="16" ry="16" fill="none" stroke-width="2" stroke-linejoin="bevel" stroke-linecap="round" stroke="#000000" />
<ellipse cx="176" cy="80" rx="16" ry="16" fill="none" stroke-width="2" stroke-linejoin="bevel" stroke-linecap="round" stroke="#000000" />
<path d="M336,96 C337,96 288,160 336,192 " fill="none" stroke-width="2" stroke-linejoin="bevel" stroke-linecap="round" stroke="#000000" />
<path d="M384,62 L416,80 384,98 z" fill="#000000" stroke="none" />
<path d="M352,80 L384,80 " fill="none" stroke-width="2" stroke-linejoin="bevel" stroke-linecap="round" stroke="#000000" />
<path d="M448,80 L416,80 " fill="none" stroke-width="2" stroke-linejoin="bevel" stroke-linecap="round" stroke="#000000" />
<path d="M416,62 L416,98 " fill="none" stroke-width="2" stroke-linejoin="bevel" stroke-linecap="round" stroke="#000000" />
<path d="M32,192 L32,240 160,240 160,192 z" fill="none" stroke-width="2" stroke-linejoin="bevel" stroke-linecap="round" stroke="#000000" />
<path d="M112,192 C113,192 80,96 160,80 " fill="none" stroke-width="2" stroke-linejoin="bevel" stroke-linecap="round" stroke="#000000" />
<path d="M208,192 C209,192 160,144 176,96 " fill="none" stroke-width="2" stroke-linejoin="bevel" stroke-linecap="round" stroke="#000000" />
<g transform="matrix(   1    0   -0    1 240  48)" fill="#000000" >
<text stroke="none" font-family="Helvetica" font-size="40" ><tspan x="0" y="0">10K</tspan>
</text></g>
<path d="M480,192 C481,192 512,128 464,96 " fill="none" stroke-width="2" stroke-linejoin="bevel" stroke-linecap="round" stroke="#000000" />
<g transform="matrix(   1    0   -0    1  48 224)" fill="#000000" >
<text stroke="none" font-family="Helvetica" font-size="40" ><tspan x="0" y="0">SINE</tspan>
</text></g>
<g transform="matrix(   1    0   -0    1 192 224)" fill="#000000" >
<text stroke="none" font-family="Helvetica" font-size="40" ><tspan x="0" y="0">A1</tspan>
</text></g>
<g transform="matrix(   1    0   -0    1 304 224)" fill="#000000" >
<text stroke="none" font-family="Helvetica" font-size="40" ><tspan x="0" y="0">A2</tspan>
</text></g>
<g transform="matrix(   1    0   -0    1 448 224)" fill="#000000" >
<text stroke="none" font-family="Helvetica" font-size="40" ><tspan x="0" y="0"></tspan>
</text></g>
<g transform="matrix(   1    0   -0    1 448 224)" fill="#000000" >
<text stroke="none" font-family="Helvetica" font-size="40" ><tspan x="0" y="0">PV1</tspan>
</text></g>
</g>
</svg>
